<?xml version="1.0" encoding="utf-8"?>
<!-- Generator: Adobe Illustrator 22.0.0, SVG Export Plug-In . SVG Version: 6.00 Build 0)  -->
<svg version="1.1" id="Layer_1" xmlns="http://www.w3.org/2000/svg" xmlns:xlink="http://www.w3.org/1999/xlink" x="0px" y="0px"
	 viewBox="0 0 100 100" style="enable-background:new 0 0 100 100;" xml:space="preserve">
<style type="text/css">
	.st0{fill:#5f9061;}
</style>
<title>Untitled-1</title>
<path class="st0" d="M50.5,0.5C23.2,0.5,1,22.7,1,50c0,25.3,18.9,46.1,43.4,49.1l0.5-39.6h-9.3V48h9.3v-6.6C44.9,29.3,51,24,61.5,24
	c3,0,5.9,0.1,8.9,0.5V34H62c-4,0-5.5,3.8-5.5,8.2V48h12.1L67,59.5H56.5l0.2,39.6C81.1,96.1,100,75.2,100,50
	C100,22.7,77.8,0.5,50.5,0.5z"/>
</svg>
