<svg id="Layer_1" data-name="Layer 1" xmlns="http://www.w3.org/2000/svg" viewBox="0 0 100 60"><defs><style>.cls-1{fill:#006ed2;}</style></defs><title>payment_methods</title><path class="cls-1" d="M85,16.24h4.59c.87,0,1.12.2,1.24,1.07q.78,5.63,1.52,11.26.94,7,1.9,14c0,.21.05.41.07.61.14,1.15.14,1.15-1,1.15H87.58c-.76,0-1.08-.24-1.1-1a6,6,0,0,0-2.54-4.85c-1.24-1-2.37-2.05-3.57-3.06a1.21,1.21,0,0,1-.47-1.4,1.15,1.15,0,0,1,1.26-.75c1.14,0,2.29,0,3.43,0,.45,0,.61-.13.55-.6-.36-2.85-.7-5.7-1-8.55,0-.21,0-.41-.08-.61s.07-.46-.21-.5-.3.23-.39.4l-7,13c-1.25,2.33-2.51,4.66-3.75,7a1.58,1.58,0,0,1-1.55.94c-2.08,0-4.16,0-6.24,0-.69,0-.75-.09-.44-.67l14.4-26.57a1.55,1.55,0,0,1,1.53-.88C81.93,16.25,83.46,16.24,85,16.24Z"/><path class="cls-1" d="M53.82,15.62c4.81.16,8.72,2,11.39,6.18.12.18.22.39.34.58.24.36.19.6-.24.81-1.72.83-3.42,1.7-5.14,2.54a1.44,1.44,0,0,1-2-.29A6.93,6.93,0,0,0,49.35,24a7.91,7.91,0,0,0-4.47,7.32,6.24,6.24,0,0,0,6.7,6.18,7.39,7.39,0,0,0,5.62-2.78,1.61,1.61,0,0,1,2.44-.47c1.42.76,2.83,1.52,4.26,2.26.41.21.47.42.2.8-3.91,5.37-9.06,8.19-15.79,7.48A12.59,12.59,0,0,1,37,31.7,17,17,0,0,1,51.3,15.84C52.13,15.73,53,15.68,53.82,15.62Z"/><path class="cls-1" d="M28,17.38A13.94,13.94,0,0,0,17.86,16c-7.67,1.61-13.69,8.7-13.52,16.46a12.67,12.67,0,0,0,8.84,11.81,15.26,15.26,0,0,0,13.31-2,16.36,16.36,0,0,0,7.92-13.47C34.27,23.7,32.26,19.86,28,17.38ZM19.66,37.45a7.93,7.93,0,0,1-1,.08,6.36,6.36,0,0,1-6.35-7.88A8.53,8.53,0,0,1,20,23.07a5.94,5.94,0,0,1,6.52,6.16A8.21,8.21,0,0,1,19.66,37.45Z"/></svg>