<?xml version="1.0" encoding="utf-8"?>
<!-- Generator: Adobe Illustrator 22.0.0, SVG Export Plug-In . SVG Version: 6.00 Build 0)  -->
<svg version="1.1" id="Layer_1" xmlns="http://www.w3.org/2000/svg" xmlns:xlink="http://www.w3.org/1999/xlink" x="0px" y="0px"
	 viewBox="0 0 100 100" style="enable-background:new 0 0 100 100;" xml:space="preserve">
<style type="text/css">
	.st0{fill:#FFFFFF;}
</style>
<title>Untitled-1</title>
<path class="st0" d="M40.8,44.4c0.5-0.6,0.9-1.3,1.2-2c0.3-0.7,0.3-1.4-0.1-2.1c-0.3-0.6-2.5-6.3-3.6-8.6c-0.8-2-1.7-2-2.6-2
	c-0.9,0-1.4,0-2.2,0c-1.1,0-2.3,0.5-3.1,1.4c-2.6,2.5-4.1,6-4,9.7c0,5.7,4.1,11.3,4.7,12c0.6,0.7,8,13,19.9,17.6
	c9.8,3.8,11.7,3.1,13.9,2.9c2.1-0.2,6.8-2.9,7.8-5.5c1-2.7,1-5,0.6-5.4C73,61.9,72.2,61.6,71,61c-1.1-0.6-6.8-3.4-7.9-3.7
	c-1-0.3-1.8-0.6-2.6,0.6c-0.8,1.2-2.9,3.7-3.6,4.5c-0.7,0.8-1.4,0.9-2.6,0.3c-3.4-1.4-6.6-3.3-9.3-5.8c-2.6-2.3-4.7-5.1-6.5-8
	c-0.7-1.2-0.1-1.8,0.5-2.4C39.6,45.9,40.2,45.1,40.8,44.4z"/>
<g>
	<path class="st0" d="M51,10.2c10.9,0.2,21,4.5,28.6,12.3c7.6,7.8,11.6,18,11.5,28.8C90.9,62.1,86.6,72.2,79,79.7
		c-7.6,7.5-17.7,11.7-28.5,11.7c-0.2,0-0.4,0-0.6,0c-6.5-0.1-12.7-1.6-18.4-4.6l-2.5-1.3l-2.8,0.6l-14.8,3l3-14.6l0.6-2.7l-1.3-2.5
		c-3-5.9-4.5-12.1-4.6-18.5c0-22.4,18.2-40.5,40.6-40.5H51 M51.1,2.2c-0.5,0-1,0-1.4,0C22.9,2.2,1.1,24,1.1,50.8
		c0.1,7.7,2,15.2,5.5,22.1L1.1,99.4l26.7-5.5c6.8,3.5,14.3,5.4,22,5.5c0.2,0,0.5,0,0.7,0c26.6,0,48.2-21.4,48.6-48
		C99.5,24.6,78,2.6,51.1,2.2L51.1,2.2z"/>
</g>
</svg>
