<svg id="Layer_1" data-name="Layer 1" xmlns="http://www.w3.org/2000/svg" viewBox="0 0 213.23 68.41"><defs><style>.cls-1{fill:#fff;}</style></defs><title>awning</title><path class="cls-1" d="M695.8,394.7v7.6c-.1,8.7-6,15.3-13.7,15.3s-13.3-6.7-13.8-15.4c-.6-12.6,1.6-24.7,4-36.8.9-4.7,1.8-9.5,2.6-14.3.2-1.4.6-1.9,2-1.9,3.6.1,7.1.1,10.7,0,1.1,0,1.4.3,1.6,1.5l6.3,34.2C696.1,388.4,695.6,391.8,695.8,394.7Z" transform="translate(-575.69 -349.19)"/><path class="cls-1" d="M714.9,394.2c.8-8.9-2.2-18.2-3.7-27.7-.8-5.1-1.8-10.1-2.8-15.2-.3-1.4-.2-2.1,1.4-2,3.5.1,7,.1,10.4,0a2.17,2.17,0,0,1,2.3,1.5c6.3,11.4,12.5,22.9,18.9,34.3a5.66,5.66,0,0,1,.8,2.8v14.8c-.1,8.3-6.1,14.9-13.6,14.9-7.7,0-13.7-6.6-13.7-15Z" transform="translate(-575.69 -349.19)"/><path class="cls-1" d="M761.5,395.8c1.3-6.6-1.2-11.9-4.3-17.2-5.2-8.9-9.9-18.1-15-27.1-.9-1.6-1-2.2,1-2.1,3.3.1,6.5.1,9.8,0a3.4,3.4,0,0,1,3,1.3q15.75,17.25,31.6,34.4a4.3,4.3,0,0,1,1.3,3.4c-.1,4.7,0,9.4,0,14.1-.1,8.4-6.1,15-13.8,15-7.5,0-13.5-6.6-13.6-14.9C761.4,400.4,761.5,398.1,761.5,395.8Z" transform="translate(-575.69 -349.19)"/><path class="cls-1" d="M603.1,395.6c-1.3-6.6,1.2-11.9,4.3-17.2,5.2-8.9,10-18.1,15-27.1.9-1.6,1-2.1-1-2.1-3.3.2-6.6.1-9.8,0a3.4,3.4,0,0,0-3,1.3q-15.75,17.25-31.6,34.4a4.3,4.3,0,0,0-1.3,3.4c.1,4.7,0,9.4,0,14.1.1,8.4,6.1,15,13.8,15s13.5-6.5,13.6-14.9Z" transform="translate(-575.69 -349.19)"/><path class="cls-1" d="M649.4,394.2c-.8-8.9,2.2-18.2,3.7-27.7.8-5.1,1.8-10.1,2.8-15.2.3-1.4.2-2.1-1.4-2-3.5.1-7,.1-10.4,0a2.17,2.17,0,0,0-2.3,1.5c-6.2,11.4-12.5,22.9-18.9,34.3a5.66,5.66,0,0,0-.8,2.8v14.8c.1,8.3,6.1,14.9,13.6,14.9,7.7,0,13.7-6.6,13.7-15Z" transform="translate(-575.69 -349.19)"/></svg>