<svg id="Layer_1" data-name="Layer 1" xmlns="http://www.w3.org/2000/svg" viewBox="0 0 287.13 148.65"><defs><style>.cls-1{fill:blue;}.cls-2{fill:none;stroke:#000;stroke-miterlimit:10;stroke-width:13.69px;}.cls-3{fill:#333;}</style></defs><title>tiendu-logo</title><path class="cls-1" d="M161.63,48.16c0,2.85,0,5.24,0,7.63-.07,8.72-6,15.3-13.72,15.3s-13.3-6.74-13.75-15.39c-.65-12.56,1.57-24.66,4-36.79.93-4.74,1.84-9.48,2.62-14.25.24-1.42.65-1.93,2-1.89,3.55.11,7.11.08,10.67,0,1.06,0,1.43.33,1.65,1.5,2.06,11.4,4.22,22.79,6.29,34.19C162,41.82,161.49,45.24,161.63,48.16Z" transform="translate(-4.23 -2.55)"/><path class="cls-1" d="M180.77,47.65c.81-8.89-2.17-18.2-3.66-27.72-.8-5.08-1.79-10.12-2.76-15.16-.27-1.4-.22-2.08,1.42-2,3.48.14,7,.1,10.45,0a2.33,2.33,0,0,1,2.33,1.51q9.38,17.17,18.85,34.3a5.42,5.42,0,0,1,.75,2.81c0,4.93,0,9.86,0,14.79-.07,8.34-6.11,14.91-13.62,14.89-7.67,0-13.67-6.58-13.73-15C180.76,53.56,180.77,51.09,180.77,47.65Z" transform="translate(-4.23 -2.55)"/><path class="cls-1" d="M227.32,49.2c1.25-6.55-1.2-11.86-4.34-17.23-5.2-8.89-9.95-18.1-15-27.13-.87-1.57-1-2.16,1-2.07,3.27.14,6.54.09,9.81,0a3.6,3.6,0,0,1,3,1.32q15.74,17.27,31.56,34.45a4.46,4.46,0,0,1,1.3,3.41c-.08,4.7,0,9.4,0,14.1-.06,8.44-6.1,15-13.77,15-7.51,0-13.48-6.55-13.58-14.94C227.29,53.83,227.32,51.51,227.32,49.2Z" transform="translate(-4.23 -2.55)"/><path class="cls-1" d="M69,49c-1.26-6.55,1.19-11.86,4.33-17.23,5.21-8.9,10-18.1,15-27.14.86-1.56,1-2.15-1-2.07-3.27.15-6.55.09-9.82,0a3.56,3.56,0,0,0-3,1.32Q58.74,21.15,42.91,38.32a4.48,4.48,0,0,0-1.3,3.42c.08,4.7,0,9.4,0,14.1.06,8.44,6.11,15,13.77,15S68.9,64.32,69,55.93C69,53.61,69,51.3,69,49Z" transform="translate(-4.23 -2.55)"/><path class="cls-1" d="M115.26,47.65c-.81-8.89,2.17-18.2,3.66-27.72.8-5.08,1.79-10.12,2.76-15.16.27-1.4.22-2.08-1.42-2-3.48.14-7,.1-10.45,0a2.33,2.33,0,0,0-2.33,1.51q-9.37,17.17-18.85,34.3a5.42,5.42,0,0,0-.75,2.81c0,4.93,0,9.86,0,14.79C88,64.52,94,71.09,101.53,71.07c7.67,0,13.67-6.58,13.73-15C115.27,53.56,115.26,51.09,115.26,47.65Z" transform="translate(-4.23 -2.55)"/><path class="cls-2" d="M209,144.15" transform="translate(-4.23 -2.55)"/><path class="cls-3" d="M29.46,137.31a11.55,11.55,0,0,1-11.54-11.49l.1-11.49H36.31V100.64H18.13l.15-19.12H18v0H15.19A10.66,10.66,0,0,0,4.53,92.23v2.83h0l-.25,30.71A25.26,25.26,0,0,0,29.46,151h6.85V137.31Z" transform="translate(-4.23 -2.55)"/><path class="cls-3" d="M56.76,100.26a10.66,10.66,0,0,0-9.11,9.18v41.27h13.7V100.24Z" transform="translate(-4.23 -2.55)"/><path class="cls-3" d="M233.17,125.39c0-1,0-4.7-.14-18.4l-.15-18.73-4.07,0a10.65,10.65,0,0,0-9.52,10.6v2c0,.76,0,1.55,0,2.41a25,25,0,0,0-11.37-2.71,25.23,25.23,0,1,0,25.23,25.23v-.38Zm-25.23,11.92a11.54,11.54,0,1,1,11.54-11.73v.19A11.55,11.55,0,0,1,207.94,137.31Z" transform="translate(-4.23 -2.55)"/><path class="cls-3" d="M286.22,100.34a10.67,10.67,0,0,0-8.55,9.1v16a11.54,11.54,0,0,1-23.08,0V100.34H240.9v25.14a25.23,25.23,0,0,0,50.46,0V100.34Z" transform="translate(-4.23 -2.55)"/><path class="cls-3" d="M152.1,100.83a25.26,25.26,0,0,0-25.23,25.23V151.2h13.69V126.06a11.54,11.54,0,1,1,23.08,0v16a10.67,10.67,0,0,0,8.55,9.1h5.14V126.06A25.26,25.26,0,0,0,152.1,100.83Z" transform="translate(-4.23 -2.55)"/><path class="cls-3" d="M94.4,137.41A11.54,11.54,0,1,1,103.69,119h-1.76v.1H99.1a10.66,10.66,0,0,0-10.66,10.66v2.93h21.15a10.64,10.64,0,0,0,9.79-10.35,25.23,25.23,0,1,0-25,28.74A27.73,27.73,0,0,0,108,147.7l-6.73-11.92A14.08,14.08,0,0,1,94.4,137.41Z" transform="translate(-4.23 -2.55)"/></svg>