<?xml version="1.0" encoding="utf-8"?>
<!-- Generator: Adobe Illustrator 22.0.0, SVG Export Plug-In . SVG Version: 6.00 Build 0)  -->
<svg version="1.1" id="Layer_1" xmlns="http://www.w3.org/2000/svg" xmlns:xlink="http://www.w3.org/1999/xlink" x="0px" y="0px"
	 viewBox="0 0 287.1 71.6" style="enable-background:new 0 0 287.1 71.6;" xml:space="preserve">
<style type="text/css">
	.st0{fill:#FFFFFF;stroke:#000000;stroke-width:13.69;stroke-miterlimit:10;}
	.st1{fill:#FFFFFF;}
</style>
<title>tiendu-logo</title>
<path class="st0" d="M204.8,64.6"/>
<path class="st1" d="M25.2,57.8c-6.4,0-11.5-5.1-11.5-11.5l0.1-11.5h18.3V21.1H13.9L14,2h-0.3l0,0H11C5.1,2,0.3,6.7,0.3,12.6
	c0,0,0,0,0,0.1v2.8l0,0L0.1,46.2c0,13.9,11.3,25.2,25.2,25.2h6.8V57.8H25.2z"/>
<path class="st1" d="M52.5,20.7c-4.8,0.7-8.5,4.4-9.1,9.2v41.3h13.7V20.7L52.5,20.7z"/>
<path class="st1" d="M228.9,45.8c0-1,0-4.7-0.1-18.4l-0.1-18.7h-4.1c-5.4,0.6-9.5,5.2-9.5,10.6v2c0,0.8,0,1.6,0,2.4
	c-3.5-1.8-7.4-2.7-11.4-2.7c-13.9,0-25.2,11.3-25.2,25.2s11.3,25.2,25.2,25.2s25.2-11.3,25.2-25.2l0,0L228.9,45.8L228.9,45.8z
	 M203.7,57.8c-6.4,0-11.5-5.2-11.5-11.5c0-6.4,5.2-11.5,11.5-11.5c6.3,0,11.4,5.1,11.5,11.4v0.2C215.2,52.6,210.1,57.8,203.7,57.8z"
	/>
<path class="st1" d="M282,20.8c-4.5,0.9-8,4.5-8.5,9.1v16c0,6.4-5.2,11.5-11.5,11.5c-6.4,0-11.5-5.2-11.5-11.5l0,0V20.8h-13.7v25.1
	c0,13.9,11.3,25.2,25.2,25.2c13.9,0,25.2-11.3,25.2-25.2V20.8H282z"/>
<path class="st1" d="M147.9,21.3c-13.9,0-25.2,11.3-25.2,25.2v25.1h13.7V46.5c0-6.4,5.2-11.5,11.5-11.5c6.4,0,11.5,5.2,11.5,11.5v16
	c0.6,4.6,4,8.2,8.6,9.1h5.1V46.5C173.1,32.6,161.8,21.3,147.9,21.3z"/>
<path class="st1" d="M90.2,57.9c-6.4,0-11.5-5.2-11.5-11.6c0-6.4,5.2-11.5,11.6-11.5c3.6,0,7.1,1.7,9.3,4.7h-1.8v0.1h-2.8
	c-5.9,0-10.7,4.8-10.7,10.7v2.9h21.2c5.4-0.4,9.7-4.9,9.8-10.3c-1.9-13.8-14.7-23.4-28.5-21.5S63.2,36,65.2,49.8
	c1.7,12.4,12.4,21.7,25,21.7c4.8,0.1,9.4-1.1,13.6-3.4L97,56.2C94.9,57.3,92.6,57.9,90.2,57.9z"/>
</svg>
