<?xml version="1.0" encoding="UTF-8"?>
<svg xmlns="http://www.w3.org/2000/svg" xmlns:xlink="http://www.w3.org/1999/xlink" width="193.44pt" height="52.18pt" viewBox="0 0 193.44 52.18" version="1.1">
<defs>
<clipPath id="clip1">
  <path d="M 0 0 L 54 0 L 54 52.179688 L 0 52.179688 Z M 0 0 "/>
</clipPath>
<clipPath id="clip2">
  <path d="M 170 13 L 193.441406 13 L 193.441406 41 L 170 41 Z M 170 13 "/>
</clipPath>
</defs>
<g id="surface1">
<path style=" stroke:none;fill-rule:nonzero;fill:rgb(100%,100%,100%);fill-opacity:1;" d="M 26.640625 7.058594 L 26.691406 7.058594 L 26.664063 7.015625 "/>
<g clip-path="url(#clip1)" clip-rule="nonzero">
<path style=" stroke:none;fill-rule:nonzero;fill:rgb(0%,14.498901%,43.899536%);fill-opacity:1;" d="M 53.324219 26.089844 C 53.324219 40.5 41.386719 52.179688 26.660156 52.179688 C 11.9375 52.179688 0 40.5 0 26.089844 C 0 11.683594 11.9375 0.00390625 26.660156 0.00390625 C 41.386719 0.00390625 53.324219 11.683594 53.324219 26.089844 "/>
</g>
<path style=" stroke:none;fill-rule:nonzero;fill:rgb(87.5%,14.898682%,21.998596%);fill-opacity:1;" d="M 46.042969 26.0625 C 46.042969 15.59375 37.386719 7.101563 26.691406 7.058594 L 44.332031 33.871094 C 45.429688 31.488281 46.042969 28.847656 46.042969 26.0625 "/>
<path style=" stroke:none;fill-rule:nonzero;fill:rgb(87.5%,14.898682%,21.998596%);fill-opacity:1;" d="M 14.898438 41.234375 C 18.152344 43.644531 22.207031 45.070313 26.605469 45.070313 C 30.957031 45.070313 34.976563 43.671875 38.214844 41.308594 L 26.605469 23.96875 "/>
<path style=" stroke:none;fill-rule:nonzero;fill:rgb(87.5%,14.898682%,21.998596%);fill-opacity:1;" d="M 26.605469 7.054688 C 15.871094 7.054688 7.167969 15.566406 7.167969 26.0625 C 7.167969 28.941406 7.820313 31.664063 8.992188 34.109375 L 26.640625 7.058594 C 26.628906 7.058594 26.617188 7.054688 26.605469 7.054688 "/>
<path style=" stroke:none;fill-rule:nonzero;fill:rgb(100%,100%,100%);fill-opacity:1;" d="M 44.332031 33.871094 L 26.691406 7.054688 L 26.640625 7.054688 L 8.992188 34.109375 C 10.34375 36.929688 12.378906 39.378906 14.898438 41.234375 L 26.601563 23.96875 L 38.214844 41.308594 C 40.847656 39.386719 42.964844 36.832031 44.332031 33.871094 "/>
<path style=" stroke:none;fill-rule:nonzero;fill:rgb(0%,14.498901%,43.899536%);fill-opacity:1;" d="M 79.847656 30.300781 L 79.03125 20.628906 L 78.960938 20.628906 L 74.394531 30.300781 Z M 88.777344 40.28125 L 80.734375 40.28125 L 80.371094 35.933594 L 71.714844 35.933594 L 69.652344 40.28125 L 60.8125 40.28125 L 75.808594 13.730469 L 84.554688 13.730469 "/>
<path style=" stroke:none;fill-rule:nonzero;fill:rgb(0%,14.498901%,43.899536%);fill-opacity:1;" d="M 103.429688 35.753906 C 104.492188 35.753906 105.410156 35.085938 106.191406 33.753906 C 106.96875 32.417969 107.359375 30.734375 107.359375 28.707031 C 107.359375 26.535156 106.496094 25.445313 104.769531 25.445313 C 103.511719 25.445313 102.503906 26.167969 101.742188 27.613281 C 100.984375 29.054688 100.601563 30.644531 100.601563 32.382813 C 100.601563 33.492188 100.890625 34.335938 101.464844 34.902344 C 102.035156 35.46875 102.691406 35.753906 103.429688 35.753906 M 102.539063 22.441406 C 103.386719 21.789063 104.191406 21.324219 104.957031 21.046875 C 105.726563 20.769531 106.6875 20.628906 107.847656 20.628906 C 110.058594 20.628906 111.726563 21.378906 112.855469 22.875 C 113.984375 24.375 114.550781 26.304688 114.550781 28.671875 C 114.550781 31.714844 113.703125 34.484375 112.011719 36.984375 C 110.324219 39.484375 108.089844 40.734375 105.3125 40.734375 C 102.449219 40.734375 100.324219 39.53125 98.9375 37.128906 L 98.230469 40.28125 L 91.367188 40.28125 L 97.015625 13.730469 L 104.386719 13.730469 "/>
<path style=" stroke:none;fill-rule:nonzero;fill:rgb(0%,14.498901%,43.899536%);fill-opacity:1;" d="M 144.9375 21.0625 L 143.816406 26.335938 L 139.960938 26.335938 L 138.546875 33.128906 C 138.449219 33.417969 138.402344 33.722656 138.402344 34.050781 C 138.402344 34.921875 138.976563 35.355469 140.121094 35.355469 C 140.484375 35.355469 141.246094 35.238281 142.40625 35.011719 L 141.296875 40.28125 C 139.078125 40.582031 137.449219 40.734375 136.410156 40.734375 C 134.34375 40.734375 132.878906 40.238281 132.019531 39.25 C 131.152344 38.257813 130.722656 37.179688 130.722656 36.007813 C 130.722656 35.621094 130.894531 34.585938 131.246094 32.910156 L 132.625 26.335938 L 129.980469 26.335938 L 131.066406 21.0625 L 133.765625 21.0625 L 134.398438 18.058594 L 142.640625 13.945313 L 141.117188 21.0625 "/>
<path style=" stroke:none;fill-rule:nonzero;fill:rgb(0%,14.498901%,43.899536%);fill-opacity:1;" d="M 159.734375 31.679688 C 156.34375 32.246094 154.351563 32.746094 153.757813 33.183594 C 153.167969 33.617188 152.871094 34.128906 152.871094 34.722656 C 152.871094 35.335938 153.082031 35.820313 153.507813 36.179688 C 153.929688 36.535156 154.472656 36.710938 155.136719 36.710938 C 156.066406 36.710938 156.984375 36.335938 157.898438 35.582031 C 158.808594 34.824219 159.421875 33.523438 159.734375 31.679688 M 147.78125 26.335938 C 148.230469 24.511719 149.246094 23.105469 150.835938 22.113281 C 152.421875 21.125 154.882813 20.628906 158.214844 20.628906 C 161.992188 20.628906 164.546875 21.105469 165.867188 22.050781 C 167.1875 23 167.851563 24.378906 167.851563 26.191406 C 167.851563 27.398438 167.519531 29.382813 166.855469 32.148438 C 166.238281 34.769531 165.929688 36.59375 165.929688 37.617188 C 165.929688 38.488281 166.085938 39.375 166.402344 40.28125 L 159.210938 40.28125 C 159.042969 39.519531 158.957031 38.789063 158.957031 38.089844 C 157.023438 39.851563 154.871094 40.734375 152.492188 40.734375 C 150.066406 40.734375 148.320313 40.164063 147.257813 39.03125 C 146.195313 37.898438 145.664063 36.578125 145.664063 35.082031 C 145.664063 33.382813 146.136719 32.082031 147.085938 31.191406 C 148.03125 30.296875 149.203125 29.6875 150.589844 29.367188 C 151.976563 29.050781 153.875 28.769531 156.277344 28.527344 C 158.414063 28.296875 159.839844 28.074219 160.550781 27.855469 C 160.695313 27.289063 160.769531 26.855469 160.769531 26.554688 C 160.769531 26.070313 160.523438 25.683594 160.035156 25.394531 C 159.546875 25.105469 158.894531 24.957031 158.089844 24.957031 C 157.242188 24.957031 156.558594 25.09375 156.03125 25.367188 C 155.507813 25.636719 155.046875 26.207031 154.648438 27.078125 "/>
<g clip-path="url(#clip2)" clip-rule="nonzero">
<path style=" stroke:none;fill-rule:nonzero;fill:rgb(0%,14.498901%,43.899536%);fill-opacity:1;" d="M 182.320313 35.753906 C 183.382813 35.753906 184.304688 35.085938 185.082031 33.753906 C 185.863281 32.417969 186.25 30.734375 186.25 28.707031 C 186.25 26.535156 185.386719 25.445313 183.660156 25.445313 C 182.40625 25.445313 181.398438 26.167969 180.636719 27.613281 C 179.875 29.054688 179.496094 30.644531 179.496094 32.382813 C 179.496094 33.492188 179.78125 34.335938 180.355469 34.902344 C 180.929688 35.46875 181.585938 35.753906 182.320313 35.753906 M 181.433594 22.441406 C 182.277344 21.789063 183.085938 21.324219 183.851563 21.046875 C 184.617188 20.769531 185.582031 20.628906 186.738281 20.628906 C 188.949219 20.628906 190.617188 21.378906 191.746094 22.875 C 192.878906 24.375 193.441406 26.304688 193.441406 28.671875 C 193.441406 31.714844 192.597656 34.484375 190.90625 36.984375 C 189.214844 39.484375 186.980469 40.734375 184.203125 40.734375 C 181.34375 40.734375 179.21875 39.53125 177.828125 37.128906 L 177.121094 40.28125 L 170.257813 40.28125 L 175.910156 13.730469 L 183.28125 13.730469 "/>
</g>
<path style=" stroke:none;fill-rule:nonzero;fill:rgb(0%,14.498901%,43.899536%);fill-opacity:1;" d="M 116.304688 40.28125 L 123.714844 40.28125 L 127.84375 21.066406 L 120.414063 21.066406 Z M 116.304688 40.28125 "/>
<path style=" stroke:none;fill-rule:nonzero;fill:rgb(87.5%,14.898682%,21.998596%);fill-opacity:1;" d="M 126.792969 18.28125 C 126.886719 17.984375 126.96875 17.660156 127.039063 17.3125 C 127.867188 17.09375 128.578125 16.730469 129.09375 16.277344 C 128.605469 17.1875 127.785156 17.902344 126.792969 18.28125 M 125.167969 18.582031 C 124.9375 18.582031 124.714844 18.5625 124.492188 18.53125 C 124.378906 18.242188 124.273438 17.890625 124.1875 17.484375 C 124.503906 17.527344 124.832031 17.550781 125.167969 17.550781 C 125.5625 17.550781 125.945313 17.519531 126.316406 17.460938 C 126.230469 17.863281 126.128906 18.210938 126.015625 18.5 C 125.738281 18.554688 125.457031 18.582031 125.167969 18.582031 M 121.238281 16.277344 C 121.789063 16.761719 122.5625 17.140625 123.464844 17.355469 C 123.539063 17.710938 123.628906 18.042969 123.726563 18.347656 C 122.644531 17.992188 121.757813 17.242188 121.238281 16.277344 M 123.703125 10.332031 C 123.59375 10.6875 123.496094 11.082031 123.417969 11.503906 C 122.449219 11.742188 121.632813 12.167969 121.089844 12.710938 C 121.566406 11.605469 122.519531 10.734375 123.703125 10.332031 M 125.167969 10.09375 C 125.464844 10.09375 125.757813 10.125 126.039063 10.179688 C 126.164063 10.511719 126.273438 10.921875 126.363281 11.394531 C 125.980469 11.332031 125.578125 11.300781 125.167969 11.300781 C 124.8125 11.300781 124.46875 11.324219 124.140625 11.367188 C 124.230469 10.894531 124.339844 10.480469 124.46875 10.148438 C 124.695313 10.113281 124.929688 10.09375 125.167969 10.09375 M 129.242188 12.710938 C 128.730469 12.199219 127.980469 11.792969 127.089844 11.550781 C 127.011719 11.136719 126.917969 10.75 126.8125 10.402344 C 127.910156 10.824219 128.789063 11.660156 129.242188 12.710938 M 127.320313 14.757813 L 129.460938 14.757813 C 129.160156 15.546875 128.308594 16.203125 127.171875 16.5625 C 127.253906 16 127.304688 15.394531 127.320313 14.757813 M 123.890625 14.757813 L 126.605469 14.757813 C 126.589844 15.472656 126.53125 16.144531 126.441406 16.742188 C 126.039063 16.820313 125.609375 16.859375 125.167969 16.859375 C 124.78125 16.859375 124.410156 16.828125 124.058594 16.773438 C 123.96875 16.167969 123.90625 15.484375 123.890625 14.757813 M 123.175781 14.757813 C 123.191406 15.410156 123.246094 16.035156 123.332031 16.613281 C 122.109375 16.265625 121.1875 15.585938 120.871094 14.757813 Z M 123.171875 14.089844 L 120.871094 14.089844 C 121.1875 13.269531 122.09375 12.59375 123.300781 12.242188 C 123.226563 12.820313 123.179688 13.441406 123.171875 14.089844 M 126.609375 14.089844 L 123.886719 14.089844 C 123.894531 13.371094 123.945313 12.691406 124.023438 12.078125 C 124.390625 12.019531 124.769531 11.988281 125.167969 11.988281 C 125.621094 11.988281 126.0625 12.03125 126.476563 12.109375 C 126.554688 12.710938 126.601563 13.382813 126.609375 14.089844 M 127.324219 14.089844 C 127.316406 13.460938 127.273438 12.859375 127.203125 12.296875 C 128.324219 12.65625 129.160156 13.308594 129.460938 14.089844 Z M 126.503906 9.578125 C 126.21875 9.503906 125.921875 9.449219 125.621094 9.425781 C 125.472656 9.414063 125.320313 9.40625 125.167969 9.40625 C 125.074219 9.40625 124.980469 9.410156 124.886719 9.414063 C 124.589844 9.429688 124.296875 9.46875 124.015625 9.53125 C 121.75 10.035156 120.0625 11.980469 120.0625 14.308594 C 120.0625 16.636719 121.75 18.582031 124.015625 19.085938 C 124.296875 19.148438 124.589844 19.1875 124.886719 19.203125 C 124.980469 19.207031 125.074219 19.210938 125.167969 19.210938 C 125.320313 19.210938 125.472656 19.203125 125.621094 19.191406 C 125.921875 19.164063 126.21875 19.117188 126.503906 19.042969 C 128.671875 18.476563 130.269531 16.574219 130.269531 14.308594 C 130.269531 12.046875 128.671875 10.140625 126.503906 9.578125 "/>
</g>
</svg>
