<svg id="Layer_1" data-name="Layer 1" xmlns="http://www.w3.org/2000/svg" viewBox="0 0 177 177"><defs><style>.cls-1{fill:red;}</style></defs><title>alert</title><path class="cls-1" d="M88.5,0A88.5,88.5,0,1,0,177,88.5,88.5,88.5,0,0,0,88.5,0Zm-.84,143.83c-6.9-.09-11.72-5.5-11.83-13.26-.11-8.73,4.73-14.69,12-14.73s12.9,5.69,13,13.43S94.85,143.93,87.66,143.83Zm14.61-97.42c-2.06,14.3-4.46,28.56-6.68,42.85-.77,4.92-1.59,9.84-2,14.8-.29,3.27-1.55,3.94-4.87,4-4.68,0-4.54-1.2-5-4.75C81.11,85,78.17,66.81,75.32,48.59c-1.95-12.43,5.79-19.68,17.94-16.75C99.64,33.39,103.34,39,102.27,46.41Z" transform="translate(0)"/></svg>