<svg id="Layer_1" data-name="Layer 1" xmlns="http://www.w3.org/2000/svg" viewBox="0 0 100 60"><defs><style>.cls-1{fill:#1c9ef6;}.cls-2{fill:#5c5c5c;}.cls-3{opacity:0.26;}.cls-4{fill:#fe4d43;}.cls-5{fill:#fed219;}.cls-6{stroke:#4c4c4c;stroke-miterlimit:10;stroke-width:1.73px;}</style></defs><title>payment_methods</title><rect class="cls-1" x="19.16" y="8.5" width="52.35" height="32.52" rx="3.79" ry="3.79" transform="translate(-5.06 13.4) rotate(-15.94)"/><polygon class="cls-2" points="69.76 14.94 19.17 28.43 17.43 22.35 67.91 8.46 69.76 14.94"/><path class="cls-3" d="M27.94,24.91V46.62l.34-.07,43.05-12.3a3.79,3.79,0,0,0,2.6-4.69l-2.41-8.44H31.73A3.79,3.79,0,0,0,27.94,24.91Z"/><rect class="cls-4" x="31.29" y="23.89" width="52.35" height="32.52" rx="3.79" ry="3.79"/><rect class="cls-5" x="67.24" y="36.14" width="12.4" height="7.87" rx="2.04" ry="2.04"/><line class="cls-6" x1="35.54" y1="49.33" x2="79.07" y2="49.33"/><line class="cls-6" x1="35.58" y1="44.02" x2="59.21" y2="44.02"/></svg>