<svg id="Layer_1" data-name="Layer 1" xmlns="http://www.w3.org/2000/svg" viewBox="0 0 100 60"><defs><style>.cls-1{fill:#fed72b;}.cls-2{fill:#1c6eb7;}</style></defs><title>payment_methods</title><path class="cls-1" d="M15.66,13.89c.06.51.11,1,.16,1.45.23,2,.45,4.05.68,6.08,0,.41.05.41-.34.56A8.55,8.55,0,0,0,13,24a7.53,7.53,0,0,0-1.84,3.38,12.28,12.28,0,0,0-.31,4.71,5.08,5.08,0,0,0,1.23,2.83,4.08,4.08,0,0,0,3.72,1.34c.35,0,.69-.12,1-.18s.26,0,.26.22c0,.53,0,1.06,0,1.59,0,1.83,0,3.65,0,5.47,0,.24,0,.24-.2.3a8.92,8.92,0,0,1-3.29.32,7.45,7.45,0,0,1-5.17-2.83,12,12,0,0,1-2.08-4.05,18.2,18.2,0,0,1-.74-6.35,23.14,23.14,0,0,1,2.7-10,15.76,15.76,0,0,1,4.34-5.16A13.72,13.72,0,0,1,15.49,14Z"/><path class="cls-2" d="M27.74,44.06l-.43-1.31c-1.06-3.17-2.12-6.35-3.19-9.51a.48.48,0,0,1,.09-.51,7.51,7.51,0,0,0,1.5-3.37,5.34,5.34,0,0,0-.07-2.18,2.74,2.74,0,0,0-.36-.8,1.9,1.9,0,0,0-1.46-.82c-.12,0-.2,0-.19.16a1,1,0,0,1,0,.17c0,5.65,0,11.31.07,17V43c0,.09,0,.14-.13.14H20.64a1.08,1.08,0,0,0-.18,0c-.09,0-.13-.05-.13-.14v-.2c0-6.6,0-13.2,0-19.8,0-.48,0-1,0-1.45,0-.22,0-.22.22-.22a30.44,30.44,0,0,1,4.48.25,6.28,6.28,0,0,1,1.72.48A4.21,4.21,0,0,1,29,24.64a7.72,7.72,0,0,1,.33,2.78,10.53,10.53,0,0,1-.67,3.28,9.81,9.81,0,0,1-1.11,2.1.51.51,0,0,0-.05.59c.86,1.78,1.7,3.56,2.54,5.35.15.31.29.63.44.95a.31.31,0,0,1,0,.32q-1.32,2-2.63,4Z"/><path class="cls-2" d="M33.37,32.27c0-3.6,0-7.14,0-10.67,0-.28,0-.28.28-.3,1.94-.1,3.87-.3,5.8-.48h0c.41-.05.41-.05.42.38,0,1.44,0,2.88,0,4.32,0,.34,0,.3-.3.32L37,26c-.28,0-.28,0-.28.3v3.61c0,.13.06.17.18.16l.88-.08c.5-.05,1-.1,1.49-.17.14,0,.17,0,.17.15,0,.42,0,.85,0,1.28,0,1.06,0,2.12,0,3.18,0,.26,0,.27-.26.26l-2.1-.09-.26,0c-.09,0-.14,0-.14.13V38.1c0,.06,0,.1.11.11H37c1,0,1.91,0,2.87,0,.22,0,.22,0,.23.21,0,1.61,0,3.22,0,4.83,0,.2,0,.21-.21.2l-2.47-.11-3.92-.18c-.22,0-.22,0-.22-.26C33.39,39.32,33.36,35.76,33.37,32.27Z"/><path class="cls-2" d="M82.33,29.78a.47.47,0,0,1,0,.25c0,1.45,0,2.9,0,4.35v0c0,.25,0,.26-.24.25l-.91,0-1.39-.06c-.22,0-.23,0-.23.21V38c0,.23,0,.23.25.23.93,0,1.86,0,2.79,0h.2c.11,0,.18,0,.17.14s0,.14,0,.2c0,1.55,0,3.09,0,4.64v.08c0,.14,0,.19-.18.18l-.71,0-4.37-.21-1.28-.06c-.28,0-.28,0-.28-.28,0-.7,0-1.41,0-2.11,0-6.2,0-12.4,0-18.6,0-.21,0-.42,0-.62s0-.21.19-.21l1-.07c1.6-.11,3.21-.26,4.81-.42h.14c.37-.06.33,0,.34.27,0,1.45,0,2.9.05,4.35v.2c0,.14,0,.2-.19.21-.31,0-.62,0-.94,0L80,26c-.34,0-.32,0-.32.32v3.47c0,.29,0,.29.31.27C80.74,30,81.54,29.89,82.33,29.78Z"/><path class="cls-2" d="M67,34.86v-8c0-.23,0-.24-.24-.23l-1.73.08-1.14.07c-.26,0-.26,0-.26-.25v-4.9c0-.18,0-.19.2-.18,1.15.11,2.31.15,3.46.19a29.82,29.82,0,0,0,3,0c.87,0,1.74-.07,2.61-.13l.71-.06c.13,0,.18,0,.17.15v5c0,.23,0,.24-.24.23l-1.25-.08-1.64-.08c-.21,0-.21,0-.22.19v.12c0,5.11,0,10.22,0,15.33,0,.24,0,.48,0,.71s0,.2-.2.2h-3.1c-.2,0-.2,0-.2-.27l0-5.09c0-1,0-1.94,0-2.91Z"/><path class="cls-2" d="M90.16,29.57v8c0,.25,0,.25.26.25.94,0,1.87,0,2.81-.1.31,0,.32,0,.32.29,0,1.7,0,3.39,0,5.09v.06c0,.24,0,.25-.25.24l-4-.2L87,43.13h-.2c-.07,0-.1,0-.1-.11v-.17c.06-2.65,0-5.31,0-8,0-3.7,0-7.4,0-11.09,0-.75,0-1.5,0-2.25,0-.22,0-.22.21-.22,1,0,2.09,0,3.13,0,.21,0,.21,0,.2.26l-.06,7.88v.11Z"/><path class="cls-2" d="M60.8,32.22c0,3.52,0,7,.05,10.55,0,.39,0,.36-.34.36H57.69a1.34,1.34,0,0,0-.2,0c-.12,0-.16-.06-.16-.17s0-.5,0-.74c0-5.24,0-10.47,0-15.7l0-4.89c0-.31,0-.31.31-.31,1,0,2,0,2.92,0h.15c.11,0,.14.05.14.15v.46C60.82,25.36,60.78,28.79,60.8,32.22Z"/><path class="cls-2" d="M54.23,28.29a9,9,0,0,0-.73-2.89,5.87,5.87,0,0,0-3.94-3.53A14.29,14.29,0,0,0,47,21.43c-1-.09-2.08-.1-3.12-.12-.15,0-.2.05-.2.2,0,.46,0,.91,0,1.37,0,3.15,0,6.29,0,9.9,0,3.07,0,6.6-.07,10.13a1.62,1.62,0,0,1,0,.22c0,.1,0,.15.13.14H44a9.54,9.54,0,0,0,5.63-2.05,11.22,11.22,0,0,0,3.62-5.07A18.11,18.11,0,0,0,54.23,28.29ZM50,34.49A6.15,6.15,0,0,1,48.36,37a3.56,3.56,0,0,1-1.08.67.12.12,0,0,1-.14,0V26.57c0-.33-.09-.36.36-.33a3.08,3.08,0,0,1,2.88,2.24,5.43,5.43,0,0,1,.26,1.31A10.59,10.59,0,0,1,50,34.49Z"/></svg>