<svg id="Layer_1" data-name="Layer 1" xmlns="http://www.w3.org/2000/svg" viewBox="0 0 100 60"><defs><style>.cls-1{fill:#004a98;}.cls-2{fill:#fff;}</style></defs><title>payment_methods</title><path class="cls-1" d="M60.15,52.5c12.8,0,24.5-10.44,24.5-23.22,0-14-11.7-23.59-24.5-23.59h-11a23.08,23.08,0,0,0-23.6,22.56h0a9,9,0,0,0,0,1,23.47,23.47,0,0,0,23.6,23.22Z"/><path class="cls-2" d="M54,41.73V16.37a13.57,13.57,0,0,1,0,25.36M35.59,29.07a13.63,13.63,0,0,1,8.73-12.69V41.75a13.64,13.64,0,0,1-8.73-12.68M49.18,7.62A21.45,21.45,0,1,0,70.61,29.09v0A21.45,21.45,0,0,0,49.18,7.62"/></svg>