<svg id="Layer_1" data-name="Layer 1" xmlns="http://www.w3.org/2000/svg" viewBox="0 0 1099.78 741.74"><defs><style>.cls-1{fill:#f3f3f4;}.cls-2{fill:#bdbec0;}.cls-3,.cls-5{fill:none;stroke:#d1d2d4;stroke-width:19px;}.cls-3{stroke-miterlimit:10;}.cls-4{fill:#d1d2d4;}.cls-5{stroke-linecap:round;stroke-linejoin:round;}.cls-6{fill:#e7e8e9;}</style></defs><title>empty-cart</title><path class="cls-1" d="M144.13,762.37s57-85.48,47.49-161.46S56.28,437.08,39.66,377.72-7.83,107,220.11,69s237.44,104.48,365.66,95,368.62-82.78,460.63-23.74c140.94,90.41,68.86,239.81,9.5,379.9-82.52,189.18,9.5,242.19,9.5,242.19Z" transform="translate(-28.22 -20.63)"/><path class="cls-2" d="M443.3,686.39H429.06c-13.12,0-23.75,17-23.75,38s10.63,38,23.75,38H443.3c13.12,0,23.75-17,23.75-38S456.42,686.39,443.3,686.39Z" transform="translate(-28.22 -20.63)"/><path class="cls-2" d="M600,686.39H585.77c-13.11,0-23.75,17-23.75,38s10.64,38,23.75,38H600c13.11,0,23.74-17,23.74-38S613.13,686.39,600,686.39Z" transform="translate(-28.22 -20.63)"/><path class="cls-3" d="M861.2,396.71s37.38-46.19,47.18-61.08-8-22-8-22l-228,9.49s-14.35.76-24.36,6.32-78.86,50.67-78.86,50.67" transform="translate(-28.22 -20.63)"/><path class="cls-1" d="M72.9,529.68s71.23-4.75,76,85.48-19,95-38,104.47-57-23.74-71.23-90.23S39.66,534.43,72.9,529.68Z" transform="translate(-28.22 -20.63)"/><path class="cls-1" d="M506.8,76.09s2.44-63.58,107.43-54.59S722.07,52.16,730.94,70.31,697.1,117.15,618.55,120,508.59,106.13,506.8,76.09Z" transform="translate(-28.22 -20.63)"/><polygon class="cls-4" points="476.82 404.57 557.55 390.33 851.98 342.84 809.24 632.52 552.8 632.52 514.81 608.77 476.82 404.57"/><polygon class="cls-2" points="557.55 342.84 260.75 387.95 557.55 390.33 851.98 342.84 557.55 342.84"/><polyline class="cls-5" points="800.21 627.77 790.24 708.5 555.17 703.75 412.71 703.75 552.8 703.75 567.05 627.77"/><path class="cls-6" d="M585.77,411,289,408.58,344.89,628A30.62,30.62,0,0,0,374.25,651l211.52,2.14Z" transform="translate(-28.22 -20.63)"/><circle class="cls-2" cx="360.47" cy="530.42" r="16.62"/><circle class="cls-2" cx="479.19" cy="530.42" r="16.62"/><path class="cls-2" d="M424.31,572.42c0-10.87,10.28-19.68,22.95-19.68s22.95,8.81,22.95,19.68" transform="translate(-28.22 -20.63)"/><path class="cls-2" d="M828,686H813.71C800.6,686,790,703,790,724s10.63,38,23.74,38H828c13.11,0,23.74-17,23.74-38S841.07,686,828,686Z" transform="translate(-28.22 -20.63)"/><path class="cls-2" d="M671.25,686.39H657c-13.11,0-23.74,17-23.74,38s10.63,38,23.74,38h14.25c13.11,0,23.74-17,23.74-38S684.36,686.39,671.25,686.39Z" transform="translate(-28.22 -20.63)"/></svg>