<?xml version="1.0" encoding="utf-8"?>
<!-- Generator: Adobe Illustrator 22.0.0, SVG Export Plug-In . SVG Version: 6.00 Build 0)  -->
<svg version="1.1" id="Layer_1" xmlns="http://www.w3.org/2000/svg" xmlns:xlink="http://www.w3.org/1999/xlink" x="0px" y="0px"
	 viewBox="0 0 16 16" style="enable-background:new 0 0 16 16;" xml:space="preserve">
<style type="text/css">
	.st0{fill:#ED1C24;}
</style>
<path class="st0" d="M16,8c0,4.4-3.6,8-8,8s-8-3.6-8-8s3.6-8,8-8S16,3.6,16,8z M8,4C7.5,4,7.1,4.4,7.1,4.9c0,0,0,0.1,0,0.1l0.3,3.5
	C7.5,8.8,7.7,9,8,9c0.3,0,0.5-0.2,0.5-0.5L8.9,5C8.9,4.5,8.6,4.1,8,4C8.1,4,8,4,8,4z M8,10c-0.6,0-1,0.4-1,1s0.4,1,1,1s1-0.4,1-1
	S8.6,10,8,10z"/>
</svg>
