<?xml version="1.0" encoding="utf-8"?>
<svg version="1.1" id="Layer_1" xmlns="http://www.w3.org/2000/svg" xmlns:xlink="http://www.w3.org/1999/xlink" x="0px" y="0px"
	 viewBox="0 0 134 14" style="enable-background:new 0 0 134 14;" xml:space="preserve">
<style type="text/css">
	.st0{fill:#262626;}
</style>
<path class="st0" d="M0,11l3,3l8-8l5,5l3,3l3-3l5-5l5,5l3,3l3-3l5-5l5,5l3,3l3-3l5-5l5,5l3,3l3-3l5-5l5,5l3,3l3-3l5-5l5,5l3,3l3-3
	l5-5l5,5l3,3l3-3l5-5l8,8l3-3l-8-8l-3-3l-3,3l-5,5l-5-5l-3-3l-3,3l-5,5l-5-5l-3-3l-3,3l-5,5l-5-5l-3-3l-3,3l-5,5l-5-5l-3-3l-3,3
	l-5,5l-5-5l-3-3l-3,3l-5,5l-5-5l-3-3l-3,3l-5,5l-5-5l-3-3L8,3L0,11z"/>
</svg>
