<?xml version="1.0" encoding="utf-8"?>
<!-- Generator: Adobe Illustrator 22.0.0, SVG Export Plug-In . SVG Version: 6.00 Build 0)  -->
<svg version="1.1" id="Layer_1" xmlns="http://www.w3.org/2000/svg" xmlns:xlink="http://www.w3.org/1999/xlink" x="0px" y="0px"
	 viewBox="0 0 100 100" style="enable-background:new 0 0 100 100;" xml:space="preserve">
<style type="text/css">
	.st0{fill:none;stroke:#D3D3D3;stroke-width:8;stroke-linecap:round;stroke-linejoin:round;}
	.st1{fill:#FFFFFF;stroke:#D3D3D3;stroke-width:8;stroke-linecap:round;stroke-linejoin:round;}
</style>
<title>product-icons</title>
<rect x="16.3" y="5.1" class="st0" width="66.4" height="69.7"/>
<path class="st0" d="M16.8,95.5c-0.1-4.1-1.5-8.1-4-11.3c-4-5-7.2-14.4-7.2-14.4s-2.1-8.4-0.9-27.3s9.6-13,9.6-13s2.9,0.6,1.5,18.7"
	/>
<path class="st0" d="M38.6,95c0,0,1.3-14.7-1.3-21.4s-15-22-15-22s-3.1-2.8-5.6-0.8c-1.5,1.3-2.2,3.3-1.8,5.3l7.6,18.5"/>
<path class="st1" d="M16.8,95.5c-0.1-4.1-1.5-8.1-4-11.3c-4-5-7.2-14.4-7.2-14.4s-2.1-8.4-0.9-27.3s11.6-13.3,11.6-13.3l-0.5,22.4
	c0,0,12.1,16.2,15.1,27.3"/>
<path class="st1" d="M38.6,95c0,0,1.3-14.7-1.3-21.4s-15-22-15-22s-3.1-2.8-5.6-0.8c-1.5,1.3-2.2,3.3-1.8,5.3l7.6,18.5"/>
<path class="st1" d="M82.6,95.6c0.1-4.1,1.5-8.1,4-11.3c4-5,7.2-14.4,7.2-14.4s2.1-8.4,0.9-27.3S83,29.2,83,29.2l0.4,22.4
	c0,0-12.1,16.2-15,27.3"/>
<path class="st1" d="M60.8,95.1c0,0-1.3-14.7,1.3-21.4c2.6-6.7,15-22,15-22s3.1-2.8,5.6-0.8c1.5,1.3,2.2,3.3,1.8,5.3l-7.6,18.5"/>
</svg>
