<svg id="Layer_1" data-name="Layer 1" xmlns="http://www.w3.org/2000/svg" viewBox="0 0 100 60"><defs><style>.cls-1{fill:#007dc3;}.cls-2{fill:#fdbb30;}</style></defs><title>payment_methods</title><g id="layer1"><g id="g41068"><g id="g6970"><path id="path6972" class="cls-1" d="M22.59,23.45c0,1.3-1.05,1.84-2.34,1.84a2.14,2.14,0,0,1-2.35-1.84,2.15,2.15,0,0,1,2.35-1.84,2.14,2.14,0,0,1,2.34,1.84m-.7,3.27c-.92,4.18-2,8.45-2.91,12.66H15.26q1.16-5,2.33-10H15.64l.68-2.67Zm41.75-.07s-1,2.77-1,2.87c-1-.29-1.43-.84-2.79-.7-3.52.35-4.34,4.81-5,8.4l-.34,2.16H50.86c1-4.15,2-8.62,3-12.73h3.6l-.19,1a8.47,8.47,0,0,1,6.34-1M40.89,33.77c-.64,4.13,5.57,3.51,7.58,1.94-.22.94-.26,2.06-.46,3-4.89,1.47-10.43.42-10.92-3.95-.59-5.26,3.77-8,8.29-8.36,2.58-.19,5.54.27,6.34,2.09a3.51,3.51,0,0,1-.54,3.33c-1.82,2.22-6.73,2.75-10.29,1.93m3.63-2c1.54-.1,4.3-.62,3.8-2.09-.31-.9-2.09-1-3.18-.85a5.36,5.36,0,0,0-3.56,2.71,9.34,9.34,0,0,0,2.94.23m-5.77-10L35.92,33.3a8.49,8.49,0,0,1-7.73,6.05c-3.44.26-6.42-1.13-6.73-4.18-.67-6.44,6.25-10.44,12.31-8,.37-1.84,1-3.54,1.41-5.39ZM26.1,31.14a5.06,5.06,0,0,0-.46,4.65c.81,1.46,3.61,1.48,4.95.46s1.93-4.36,2.48-6.35c-2.29-2-5.69-.72-7,1.24m-12-9.33s-1.85,6.33-3.12,11.43l-.52,2c-.24.92.38.95.38.95h3.49l-.85,3.18H9.6a4,4,0,0,1-2.7-.81A2.84,2.84,0,0,1,6.32,36c0-.43,1.7-6.67,1.7-6.67l2.12-7.55Z"/></g><g id="g7002"><path id="path7004" class="cls-2" d="M76.91,33a1.26,1.26,0,0,1,0,1.59l-6.43,4.51c-.67.39-1.67-.08-2.24-1.06s-.47-2.09.2-2.48l7.12-3.31a1.27,1.27,0,0,1,1.4.75Zm8.47,0a1.27,1.27,0,0,1,1.4-.75l7.13,3.31c.67.39.76,1.49.2,2.48s-1.58,1.45-2.25,1.07L85.43,34.6A1.28,1.28,0,0,1,85.38,33Zm-4.24,2.45a1.28,1.28,0,0,1,1.36.83l.69,7.83c0,.78-.9,1.41-2,1.41s-2.05-.63-2.05-1.41l.69-7.83a1.29,1.29,0,0,1,1.36-.83Zm4.24-7.34a1.29,1.29,0,0,0,1.4.76l7.13-3.32c.67-.39.76-1.49.2-2.47S92.53,21.63,91.86,22l-6.43,4.51a1.28,1.28,0,0,0-.05,1.59Zm-8.47,0a1.26,1.26,0,0,0,0-1.59L70.43,22c-.67-.39-1.67.08-2.24,1.06s-.47,2.09.2,2.48l7.12,3.32a1.28,1.28,0,0,0,1.4-.76Zm4.23-2.44a1.29,1.29,0,0,0,1.36-.84L83.19,17c0-.77-.9-1.41-2-1.41S79.1,16.24,79.1,17l.69,7.83a1.29,1.29,0,0,0,1.36.84Z"/></g></g></g></svg>