<svg id="Layer_1" data-name="Layer 1" xmlns="http://www.w3.org/2000/svg" viewBox="0 0 524.24 116.57"><defs><style>.cls-1{fill:#fff;}</style></defs><title>main-logo-white</title><path class="cls-1" d="M106.45,144.27a7.82,7.82,0,0,1-.72,2.88,6.23,6.23,0,0,0-.43,1.15c-.09.39-.24.87-.43,1.44a2.48,2.48,0,0,0-.43,1.16,1.59,1.59,0,0,1-.15.72,4.38,4.38,0,0,0-.57.93,1.87,1.87,0,0,1-.44.65c-.19.67-.4,1.37-.64,2.09a2,2,0,0,1-1.23,1.37,3.19,3.19,0,0,0-.07,1.15,1,1,0,0,1-.22.86c-.77,1.93-1.46,3.77-2.08,5.55s-1.33,3.48-2.09,5.11a2.51,2.51,0,0,1-.51,2.31,6.17,6.17,0,0,0-1.22,2,1.38,1.38,0,0,0-.22,1,2.31,2.31,0,0,1-.07,1,1.81,1.81,0,0,1-.58.8.7.7,0,0,0-.14.93,5.29,5.29,0,0,0-1.73,3.24,10.55,10.55,0,0,1-1.15,3.53,5.07,5.07,0,0,1-.65.79,3.8,3.8,0,0,0-.65.94c-.57,1.06-1.13,2-1.65,2.95a9.16,9.16,0,0,0-1.08,2.81,5.9,5.9,0,0,0-1.16,1.59L85.28,195a19.4,19.4,0,0,1-1.23,2.37c-.33.53-.64,1.08-.93,1.66a.94.94,0,0,0-.29.72c0,.29-.19.53-.58.72a5,5,0,0,1-.86,2,4.24,4.24,0,0,0-.72,2.3c-.19.2-.36.39-.51.58s-.31.43-.5.72a9.9,9.9,0,0,1-1.3,4,14.37,14.37,0,0,0-1.58,3.82,3.24,3.24,0,0,1-.65.72,3,3,0,0,0-.65.72,12.72,12.72,0,0,1-.72,2.3,3.35,3.35,0,0,1-1.44,1.59,4.28,4.28,0,0,1-.36,2.37c-.34.72-.7,1.47-1.08,2.24-.19.48-.36.93-.5,1.36a7,7,0,0,1-.65,1.37c-.48,1.06-.84,1.88-1.08,2.45a2.11,2.11,0,0,1-.94,1.15,5.81,5.81,0,0,1-1.15,3.39,6.54,6.54,0,0,0-1.3,3.24,1.21,1.21,0,0,1-.93.51,1.11,1.11,0,0,0-.94.64.76.76,0,0,0-.14.8,1.1,1.1,0,0,1-.15.93,13.18,13.18,0,0,0-.86,2.23,9.3,9.3,0,0,1-.43,1.37,4.59,4.59,0,0,0-.8,1.15,1.12,1.12,0,0,1-.36.58,13.27,13.27,0,0,0-1.36,2.52c-.44,1-.85,2-1.23,3.1q-.57,1-1.08,1.8a3.17,3.17,0,0,1-1.66,1.22c.1.39,0,.63-.14.72s-.24.39-.14.87a13.15,13.15,0,0,1-1.37.72,2,2,0,0,1-1.8-.43c-.68-.48-1-.8-1.08-.94a.7.7,0,0,0-.36-.36c-.49-.48-.72-.84-.72-1.08v-.5a5.67,5.67,0,0,0-.65-.8,5,5,0,0,1-.65-.79c-.19-.38-.36-.74-.5-1.08s-.32-.69-.51-1.08a8.64,8.64,0,0,1-.5-.86l-.51-1a5.47,5.47,0,0,0-.64-1,9.26,9.26,0,0,1-.65-.86c-.48-.58-.8-1-.94-1.16a5.3,5.3,0,0,0-.36-.43,5,5,0,0,0-.65-1.37,2.06,2.06,0,0,1-.36-.5,16.47,16.47,0,0,1-1.44-2.38c-.29-.62-.57-1.17-.86-1.66a7.16,7.16,0,0,0-.58-1.15c-.19-.29-.43-.62-.72-1a7.18,7.18,0,0,0-.79-1.36.6.6,0,0,1-.22-.36,3.18,3.18,0,0,1-.79-1,.87.87,0,0,0-.22-.43,15.83,15.83,0,0,1-1.08-1.23,4.87,4.87,0,0,1-.79-1.8,8.51,8.51,0,0,1-1.22-1.51,6.71,6.71,0,0,1-.8-2.09,6.3,6.3,0,0,1-.57-1.66,6.34,6.34,0,0,0-.58-1.66,6.59,6.59,0,0,1-.93-1.65c-.15-.43-.27-.74-.36-.94a2.43,2.43,0,0,1-.15-.79,1.48,1.48,0,0,0-.29-.79l-.64-1.59a3,3,0,0,1-.22-1.73,1.42,1.42,0,0,1-.65-.93,3.61,3.61,0,0,0-.36-1.08,3.14,3.14,0,0,1-.72-1.51,2,2,0,0,0-.14-.8,11.86,11.86,0,0,0-.58-1.22c-.19-.34-.38-.7-.58-1.08a2,2,0,0,1-.21-1.15c0-.39-.17-.67-.65-.87a5,5,0,0,1,.07-.86,4.31,4.31,0,0,0,.07-.72c-.38-.87-.64-1.47-.79-1.8a5.6,5.6,0,0,0-.5-.94,8.51,8.51,0,0,0-1.08-4,8.28,8.28,0,0,1-1.08-4,26.8,26.8,0,0,1-.94-3,7.92,7.92,0,0,0-.65-1.8,5.63,5.63,0,0,0-.36-.86,8.77,8.77,0,0,1-.36-.86,10.44,10.44,0,0,0-.36-2.09,4.19,4.19,0,0,0-.5-1.08,7.3,7.3,0,0,1-.29-2.31,5.87,5.87,0,0,1-.72-1.66,3.19,3.19,0,0,0-.58-1.22,1.54,1.54,0,0,1-.28-1.08,4.06,4.06,0,0,0-.29-1.51,3.48,3.48,0,0,0-.72-1.59,2.72,2.72,0,0,0-.51-2.23,2.26,2.26,0,0,1-.5-1.95,51.67,51.67,0,0,1-2-5.18q-.28-1.16-.57-2.16c-.2-.67-.39-1.35-.58-2a20.3,20.3,0,0,1-.72-2.3c-.19-.77-.38-1.44-.58-2a17.41,17.41,0,0,1-.72-2,16.16,16.16,0,0,0-.72-2,3,3,0,0,0-.14-2.09,5.69,5.69,0,0,1-.43-2.38,6.77,6.77,0,0,0,.93-1.58,4.88,4.88,0,0,1,1.08-1.59,24.43,24.43,0,0,1,2.88-.43,4.47,4.47,0,0,0,2.6-1,29.28,29.28,0,0,0,3.17-.5c1.15-.24,2.3-.46,3.45-.65a4.9,4.9,0,0,1,2.74-.29,4.11,4.11,0,0,1,2,1.87,7.26,7.26,0,0,0,.07,1.08.89.89,0,0,1-.22.8,5.62,5.62,0,0,1,.36,1.58,13.37,13.37,0,0,0,.36,2c.1.48.22,1,.36,1.58s.27,1.11.36,1.59a3.84,3.84,0,0,1,0,1.51,1.49,1.49,0,0,0,.43,1.37c-.19.86-.21,1.37-.07,1.51a.58.58,0,0,1,.22.36c.19,1,.36,1.73.5,2.31s.31,1.15.51,1.72a1.27,1.27,0,0,1,.21.8,1.28,1.28,0,0,0,.22.79,8.22,8.22,0,0,1,.58,2.16v1a10.67,10.67,0,0,0,.72,1.87,5.66,5.66,0,0,0,1.15,1.58,23.33,23.33,0,0,0,.72,3c.29.91.57,1.85.86,2.81l.44,1.73c.28,1,.5,1.65.64,2.08a8.55,8.55,0,0,0,.51,1.23,3.09,3.09,0,0,1,.57,1,3.7,3.7,0,0,1,.29,1.44,2.64,2.64,0,0,0,.43.79,4.64,4.64,0,0,1,.58.94c.19.77.31,1.22.36,1.36a3.41,3.41,0,0,0,.22.51,11.76,11.76,0,0,1,1,2.74,7.88,7.88,0,0,0,1,2.44c.39,1.06.67,1.78.87,2.17l.57,1.15a3.73,3.73,0,0,0,.29,1.51c.19.43.34.75.43.94a3.44,3.44,0,0,1,.36,1.22,1.56,1.56,0,0,0,.65,1.08A8,8,0,0,1,46,202a2,2,0,0,0,.43.94,2.19,2.19,0,0,0,.29,1.08c.19.34.39.7.58,1.08a8.52,8.52,0,0,0,.58,2,6.68,6.68,0,0,0,.79,1.8,7,7,0,0,1,.79,1.8,2.43,2.43,0,0,1,.29,1.08,2.34,2.34,0,0,0,.29,1.08,3.38,3.38,0,0,1,.64,1,2.68,2.68,0,0,0,.22.57,10.63,10.63,0,0,0,.79,1.8,11.37,11.37,0,0,1,.79,1.8,10.43,10.43,0,0,0,1.3-1.94c.19-.43.38-.94.58-1.51s.38-1.13.57-1.66.39-1,.58-1.51a6.17,6.17,0,0,0,.22-.94,2.63,2.63,0,0,1,.21-.79,42,42,0,0,1,3-5.76c.19-.29.36-.53.5-.72a2.55,2.55,0,0,0,.36-.72,15.92,15.92,0,0,0,.51-1.52,9.29,9.29,0,0,1,.64-1.65A26.63,26.63,0,0,0,62.59,196a14.63,14.63,0,0,1,1.22-2.44,4.61,4.61,0,0,1,.65-1.16l.94-1.15a6.52,6.52,0,0,1,.86-1.44c.2-.19.29-.34.29-.43a4.72,4.72,0,0,1,.43-1.3l.29-.29a9.22,9.22,0,0,0,.72-1.44l.29-.86c.38-.67.74-1.3,1.08-1.87a13.17,13.17,0,0,0,.94-2c.09-.29.24-.82.43-1.59a26.08,26.08,0,0,0,1.44-3,6.68,6.68,0,0,1,1-1.87,10.4,10.4,0,0,0,.72-1.44c.29-.67.53-1.3.72-1.88a5.88,5.88,0,0,0,1-1.73,1.78,1.78,0,0,1,.43-.86l.79-1.3a7.77,7.77,0,0,0,.65-1.29,21.75,21.75,0,0,1,1.3-2.52,11.61,11.61,0,0,0,.86-1.66c.19-.48.41-1,.65-1.44a5,5,0,0,1,.94-1.3,6.1,6.1,0,0,1,.57-2.73,5.84,5.84,0,0,0,.79-2.38,3.18,3.18,0,0,1,.65-1.8,5.07,5.07,0,0,1,.22-2.81,4.71,4.71,0,0,0,.21-2.66,7,7,0,0,1,3.46-3,6.43,6.43,0,0,1,2.52-.65,15.74,15.74,0,0,0,2.67-.36,2.43,2.43,0,0,0,.79-.43,2.43,2.43,0,0,1,.79-.43,5.09,5.09,0,0,1,2-.22c.72,0,1.36.07,1.94.07l.87-.28.86-.29c1,.38,1.61.48,1.94.29a2.38,2.38,0,0,1,1.23-.29,1.07,1.07,0,0,0,.79.29,2.41,2.41,0,0,1,1.08.28,5,5,0,0,0,1.3,1.37A1.07,1.07,0,0,1,106.45,144.27Z" transform="translate(-9.8 -139.42)"/><path class="cls-1" d="M138.29,250.44a2.08,2.08,0,0,1-1.08,1.51,4.4,4.4,0,0,0-1.51,1.22,2.43,2.43,0,0,1-.94-.21,2.64,2.64,0,0,0-1.08-.22,1.73,1.73,0,0,0-1,0,5.69,5.69,0,0,1-1.3.14,2.92,2.92,0,0,1-.86-.14,2.62,2.62,0,0,0-.86-.14c-.77,0-1.54,0-2.31.07s-1.63.07-2.59.07a12,12,0,0,0-1.37.07,2.16,2.16,0,0,1-1.37-.36c-.77.19-1.56.41-2.38.65a9.35,9.35,0,0,1-2.66.36A2.63,2.63,0,0,1,116,252a2,2,0,0,0-.93-1.3,19,19,0,0,1-.08-2.88,14.13,14.13,0,0,0-.21-3.17,7.86,7.86,0,0,0-.07-.93,6.41,6.41,0,0,1-.07-.94l-.29-1.08a3.81,3.81,0,0,1-.15-1.08,3.33,3.33,0,0,1,.15-.94,3.62,3.62,0,0,0,.14-.93,5.46,5.46,0,0,0-.22-1.51,6,6,0,0,1-.21-1.52,9.6,9.6,0,0,1,.14-1.73,7,7,0,0,0,.15-1.44q0-1.57-.15-3.24c-.09-1.1-.14-2.18-.14-3.24a9,9,0,0,1,.14-1.51,8.13,8.13,0,0,0,.15-1.51,2.46,2.46,0,0,0-.15-.94c-.09-.24-.19-.5-.29-.79a4.18,4.18,0,0,1-.07-2,4.26,4.26,0,0,0,.36-1,8.19,8.19,0,0,0-.14-1.08,4.57,4.57,0,0,1,0-1.65c0-1,0-2.24.07-3.82s.07-3,.07-4.25a7.38,7.38,0,0,1,.22-1.87,1.79,1.79,0,0,0-.65-1.73q.57-2.88.72-4.47a19.63,19.63,0,0,0-.29-4.46,1.08,1.08,0,0,0,.51-1,3,3,0,0,1,.07-1.16,36.86,36.86,0,0,0,0-4.46,21.14,21.14,0,0,1,.14-2.45,8.85,8.85,0,0,0,0-2.3,3.22,3.22,0,0,0-.14-1.16.58.58,0,0,1,0-.57,22.69,22.69,0,0,1-.07-4.76,31,31,0,0,0,.21-3.45,5.76,5.76,0,0,0-.14-1.3,2.24,2.24,0,0,1,0-1.15,17.23,17.23,0,0,1,.07-1.73,8.94,8.94,0,0,0-.07-1.87v-3.75a4.11,4.11,0,0,0-1-3,1.84,1.84,0,0,0,.29-1.73,3.71,3.71,0,0,1-.15-1.73c0-.29,0-.82.08-1.59a19.52,19.52,0,0,1,.21-2,2.65,2.65,0,0,1,.15-.87,2.5,2.5,0,0,0,.14-.72,4,4,0,0,0-.43-1.65,2.1,2.1,0,0,1,.29-2.09,6.52,6.52,0,0,0-.94-1.44,1.44,1.44,0,0,1-.36-1.3,2.27,2.27,0,0,1,1.22-1.87,9.51,9.51,0,0,1,2.53-.87c.57,0,.93-.09,1.08-.28a.6.6,0,0,1,.5-.29,2.81,2.81,0,0,1,1.08.21,8.84,8.84,0,0,0,.94.36,8.12,8.12,0,0,0,1.87.08c.67-.05,1.1.12,1.3.5.76-.09,1.51-.22,2.23-.36a11.63,11.63,0,0,1,2.23-.22,1.19,1.19,0,0,1,.72.22,1.46,1.46,0,0,0,.87.22.79.79,0,0,0,.79-.15.62.62,0,0,1,.79,0,5.82,5.82,0,0,0,1.44.87l1.44.57a3.76,3.76,0,0,1,.51,1.66c0,.62.12,1.27.21,1.94s0,1.32.07,1.95.08,1.22.08,1.8q-.15,1.15-.36,2.16a9.88,9.88,0,0,0-.22,2.16,5.48,5.48,0,0,0,.22,2.38,2.25,2.25,0,0,1-.36,2.09,11.43,11.43,0,0,0,.5,1.29c.14.29,0,.68-.36,1.15a3.27,3.27,0,0,1,.58,2.17,16.93,16.93,0,0,0-.15,2.44v2.53c0,.91-.05,1.84-.14,2.8a8.21,8.21,0,0,1-.15,1.95,3.37,3.37,0,0,0-.14.79,12.83,12.83,0,0,1,.43,3.1,4.63,4.63,0,0,0,.58,2.37,5.23,5.23,0,0,0-.15,1.95,3,3,0,0,1,.15.79,6.06,6.06,0,0,1-.15,1.37,3.51,3.51,0,0,0,0,1.37,1.53,1.53,0,0,1,.22,1.08,3.51,3.51,0,0,0,.07,1.22,4.5,4.5,0,0,0-.07,2.09,2.82,2.82,0,0,1,.22,1.08,4.53,4.53,0,0,1-.29,1.52,4.43,4.43,0,0,0-.29,1.51,3.36,3.36,0,0,1,0,1.44l-.29.86a3.79,3.79,0,0,1,.36,1.23,3.66,3.66,0,0,0,.36,1.22,1.39,1.39,0,0,1,.07,1.15,2.7,2.7,0,0,0-.21,1.16,3.7,3.7,0,0,0,.29,1.44,11.42,11.42,0,0,1,.43,1.29,7,7,0,0,1-.15,1.44,7.89,7.89,0,0,0-.14,1.44,11.64,11.64,0,0,0,.29,3.68,8.14,8.14,0,0,1,.14,3.38,4.41,4.41,0,0,1-.21,1.37,4.14,4.14,0,0,0-.22,1.37,2.61,2.61,0,0,0,.22,1.08,7.16,7.16,0,0,1,.36,1.22,13.57,13.57,0,0,1,.21,3.32c0,1.34-.07,2.69-.07,4-.1,1.73-.19,3.53-.29,5.4a22,22,0,0,0,.29,5.12,19.34,19.34,0,0,1,.43,4.89,22.16,22.16,0,0,0,0,3.46c.1.29.22.6.36.94a6.22,6.22,0,0,1,.36,1.08c.19.67.34,1.13.43,1.37A1.69,1.69,0,0,1,138.29,250.44Z" transform="translate(-9.8 -139.42)"/><path class="cls-1" d="M240.85,144.27a7.82,7.82,0,0,1-.72,2.88,6.23,6.23,0,0,0-.43,1.15c-.1.39-.24.87-.43,1.44a2.48,2.48,0,0,0-.43,1.16,1.59,1.59,0,0,1-.15.72,4,4,0,0,0-.57.93,1.87,1.87,0,0,1-.44.65c-.19.67-.41,1.37-.64,2.09a2,2,0,0,1-1.23,1.37,3.19,3.19,0,0,0-.07,1.15,1,1,0,0,1-.22.86c-.77,1.93-1.46,3.77-2.09,5.55a54.51,54.51,0,0,1-2.08,5.11,2.51,2.51,0,0,1-.51,2.31,6.17,6.17,0,0,0-1.22,2,1.38,1.38,0,0,0-.22,1,2.31,2.31,0,0,1-.07,1,1.81,1.81,0,0,1-.58.8.7.7,0,0,0-.14.93,5.29,5.29,0,0,0-1.73,3.24,10.55,10.55,0,0,1-1.15,3.53,5.07,5.07,0,0,1-.65.79,3.8,3.8,0,0,0-.65.94c-.57,1.06-1.13,2-1.66,2.95a9.7,9.7,0,0,0-1.08,2.81,6.08,6.08,0,0,0-1.15,1.59l-.86,1.73a19.4,19.4,0,0,1-1.23,2.37,17.74,17.74,0,0,0-.93,1.66.94.94,0,0,0-.29.72c0,.29-.19.53-.58.72a5,5,0,0,1-.86,2,4.24,4.24,0,0,0-.72,2.3c-.19.2-.36.39-.51.58s-.31.43-.5.72a9.9,9.9,0,0,1-1.3,4,14.37,14.37,0,0,0-1.58,3.82,3.24,3.24,0,0,1-.65.72,3,3,0,0,0-.65.72,12.72,12.72,0,0,1-.72,2.3,3.35,3.35,0,0,1-1.44,1.59,4.28,4.28,0,0,1-.36,2.37c-.34.72-.7,1.47-1.08,2.24-.19.48-.36.93-.5,1.36a7,7,0,0,1-.65,1.37c-.48,1.06-.84,1.88-1.08,2.45a2.11,2.11,0,0,1-.94,1.15,5.88,5.88,0,0,1-1.15,3.39,6.45,6.45,0,0,0-1.3,3.24,1.21,1.21,0,0,1-.93.51,1.11,1.11,0,0,0-.94.64.76.76,0,0,0-.14.8,1.1,1.1,0,0,1-.15.93,13.18,13.18,0,0,0-.86,2.23,9.3,9.3,0,0,1-.43,1.37,4.31,4.31,0,0,0-.8,1.15,1.19,1.19,0,0,1-.36.58,13.85,13.85,0,0,0-1.37,2.52c-.43,1-.84,2-1.22,3.1q-.57,1-1.08,1.8a3.17,3.17,0,0,1-1.66,1.22c.1.39.05.63-.14.72s-.24.39-.14.87a13.15,13.15,0,0,1-1.37.72,2,2,0,0,1-1.8-.43c-.68-.48-1-.8-1.08-.94a.7.7,0,0,0-.36-.36c-.49-.48-.72-.84-.72-1.08v-.5a5.67,5.67,0,0,0-.65-.8,5,5,0,0,1-.65-.79q-.28-.57-.51-1.08c-.14-.33-.31-.69-.5-1.08a8.64,8.64,0,0,1-.5-.86l-.51-1a5,5,0,0,0-.65-1c-.24-.29-.45-.58-.64-.86-.49-.58-.8-1-.94-1.16a5.3,5.3,0,0,0-.36-.43,5,5,0,0,0-.65-1.37,2.06,2.06,0,0,1-.36-.5,16.47,16.47,0,0,1-1.44-2.38c-.29-.62-.57-1.17-.86-1.66a7.16,7.16,0,0,0-.58-1.15c-.19-.29-.43-.62-.72-1a7.18,7.18,0,0,0-.79-1.36.6.6,0,0,1-.22-.36,3.18,3.18,0,0,1-.79-1,.87.87,0,0,0-.22-.43,15.83,15.83,0,0,1-1.08-1.23,4.87,4.87,0,0,1-.79-1.8,8.51,8.51,0,0,1-1.22-1.51,6.71,6.71,0,0,1-.8-2.09,6.3,6.3,0,0,1-.57-1.66,6.34,6.34,0,0,0-.58-1.66,7,7,0,0,1-.94-1.65,9.74,9.74,0,0,0-.35-.94,2.43,2.43,0,0,1-.15-.79,1.48,1.48,0,0,0-.29-.79c-.19-.48-.41-1-.65-1.59a3.05,3.05,0,0,1-.21-1.73,1.42,1.42,0,0,1-.65-.93,3.61,3.61,0,0,0-.36-1.08,3.14,3.14,0,0,1-.72-1.51,2,2,0,0,0-.14-.8,11.86,11.86,0,0,0-.58-1.22c-.19-.34-.39-.7-.58-1.08a2,2,0,0,1-.21-1.15c0-.39-.17-.67-.65-.87a5,5,0,0,1,.07-.86,4.31,4.31,0,0,0,.07-.72c-.38-.87-.64-1.47-.79-1.8a5.6,5.6,0,0,0-.5-.94,8.51,8.51,0,0,0-1.08-4,8.28,8.28,0,0,1-1.08-4,26.8,26.8,0,0,1-.94-3,7.92,7.92,0,0,0-.65-1.8,6.86,6.86,0,0,0-.36-.86,8.77,8.77,0,0,1-.36-.86,10.44,10.44,0,0,0-.36-2.09,4.19,4.19,0,0,0-.5-1.08,7.3,7.3,0,0,1-.29-2.31,5.87,5.87,0,0,1-.72-1.66,3.19,3.19,0,0,0-.58-1.22,1.54,1.54,0,0,1-.29-1.08,4,4,0,0,0-.28-1.51,3.48,3.48,0,0,0-.72-1.59,2.76,2.76,0,0,0-.51-2.23,2.26,2.26,0,0,1-.5-1.95,51.67,51.67,0,0,1-2-5.18q-.28-1.16-.57-2.16c-.2-.67-.39-1.35-.58-2a20.3,20.3,0,0,1-.72-2.3c-.19-.77-.38-1.44-.58-2a17.41,17.41,0,0,1-.72-2,16.16,16.16,0,0,0-.72-2,3,3,0,0,0-.14-2.09,5.69,5.69,0,0,1-.43-2.38,6.77,6.77,0,0,0,.93-1.58,4.88,4.88,0,0,1,1.08-1.59,24.43,24.43,0,0,1,2.88-.43,4.47,4.47,0,0,0,2.6-1,29.13,29.13,0,0,0,3.16-.5c1.16-.24,2.31-.46,3.46-.65a4.9,4.9,0,0,1,2.74-.29,4.11,4.11,0,0,1,2,1.87,7.26,7.26,0,0,0,.07,1.08.89.89,0,0,1-.22.8,5.62,5.62,0,0,1,.36,1.58,13.37,13.37,0,0,0,.36,2c.1.48.22,1,.36,1.58s.27,1.11.36,1.59a3.84,3.84,0,0,1,0,1.51,1.49,1.49,0,0,0,.43,1.37c-.19.86-.21,1.37-.07,1.51a.58.58,0,0,1,.22.36c.19,1,.36,1.73.5,2.31s.31,1.15.51,1.72a1.27,1.27,0,0,1,.21.8,1.28,1.28,0,0,0,.22.79,8.22,8.22,0,0,1,.58,2.16v1a10.67,10.67,0,0,0,.72,1.87,5.66,5.66,0,0,0,1.15,1.58,23.33,23.33,0,0,0,.72,3c.29.91.57,1.85.86,2.81l.43,1.73c.29,1,.51,1.65.65,2.08a8.55,8.55,0,0,0,.51,1.23,3.09,3.09,0,0,1,.57,1,3.89,3.89,0,0,1,.29,1.44,2.64,2.64,0,0,0,.43.79,5.14,5.14,0,0,1,.58.94c.19.77.31,1.22.36,1.36a3.41,3.41,0,0,0,.22.51,11.76,11.76,0,0,1,1,2.74,7.88,7.88,0,0,0,1,2.44,21.09,21.09,0,0,0,.87,2.17l.57,1.15a3.73,3.73,0,0,0,.29,1.51c.19.43.34.75.43.94a3.66,3.66,0,0,1,.36,1.22,1.56,1.56,0,0,0,.65,1.08,8.55,8.55,0,0,1,.72,1.8,2,2,0,0,0,.43.94,2.19,2.19,0,0,0,.29,1.08c.19.34.39.7.58,1.08a9.15,9.15,0,0,0,.57,2,7,7,0,0,0,.8,1.8,7,7,0,0,1,.79,1.8,2.43,2.43,0,0,1,.29,1.08,2.34,2.34,0,0,0,.29,1.08,3.61,3.61,0,0,1,.64,1,2.68,2.68,0,0,0,.22.57,10.63,10.63,0,0,0,.79,1.8,11.37,11.37,0,0,1,.79,1.8,10.43,10.43,0,0,0,1.3-1.94c.19-.43.38-.94.58-1.51s.38-1.13.57-1.66.39-1,.58-1.51a6.17,6.17,0,0,0,.22-.94,2.36,2.36,0,0,1,.21-.79,42,42,0,0,1,3-5.76c.19-.29.36-.53.5-.72a2.55,2.55,0,0,0,.36-.72,13.53,13.53,0,0,0,.5-1.52,10.22,10.22,0,0,1,.65-1.65A26.63,26.63,0,0,0,197,196a14.63,14.63,0,0,1,1.22-2.44,4.61,4.61,0,0,1,.65-1.16l.94-1.15a6.52,6.52,0,0,1,.86-1.44c.19-.19.29-.34.29-.43a4.72,4.72,0,0,1,.43-1.3l.29-.29a9.22,9.22,0,0,0,.72-1.44l.29-.86c.38-.67.74-1.3,1.08-1.87a13.17,13.17,0,0,0,.94-2c.09-.29.23-.82.43-1.59a26.08,26.08,0,0,0,1.44-3,6.68,6.68,0,0,1,1-1.87,10.4,10.4,0,0,0,.72-1.44c.29-.67.52-1.3.72-1.88a5.88,5.88,0,0,0,1-1.73,1.7,1.7,0,0,1,.43-.86l.79-1.3a7.77,7.77,0,0,0,.65-1.29,21.75,21.75,0,0,1,1.3-2.52,11.61,11.61,0,0,0,.86-1.66c.19-.48.41-1,.65-1.44a5.15,5.15,0,0,1,.93-1.3,6.1,6.1,0,0,1,.58-2.73,5.84,5.84,0,0,0,.79-2.38,3.18,3.18,0,0,1,.65-1.8,5.07,5.07,0,0,1,.22-2.81,4.71,4.71,0,0,0,.21-2.66,7,7,0,0,1,3.46-3,6.43,6.43,0,0,1,2.52-.65,15.74,15.74,0,0,0,2.67-.36,2.54,2.54,0,0,0,.79-.43,2.43,2.43,0,0,1,.79-.43,5.09,5.09,0,0,1,2-.22c.72,0,1.36.07,1.94.07l.86-.28.87-.29c1,.38,1.61.48,1.94.29a2.38,2.38,0,0,1,1.23-.29,1.07,1.07,0,0,0,.79.29,2.41,2.41,0,0,1,1.08.28,5,5,0,0,0,1.3,1.37A1.07,1.07,0,0,1,240.85,144.27Z" transform="translate(-9.8 -139.42)"/><path class="cls-1" d="M315.18,145.57a3.29,3.29,0,0,1,.72,1.08,4.54,4.54,0,0,1,.36,1.37,3.25,3.25,0,0,1-.14,1.36,1.22,1.22,0,0,1-1.08.8c.38.38.48.74.29,1.08a2.32,2.32,0,0,0-.29,1.22,16.79,16.79,0,0,0,0,3.17,10.75,10.75,0,0,1-.14,3,4.21,4.21,0,0,1-.44,1.23q-.29.51-.57,1.08c-.2.48-.39.91-.58,1.3a3.12,3.12,0,0,1-.58.86,3.26,3.26,0,0,1-2.88.14,4.54,4.54,0,0,0-3.17,0,2.66,2.66,0,0,0-2.3-.57,2.85,2.85,0,0,1-2.45-.72,4.45,4.45,0,0,1-2.52.14,22.08,22.08,0,0,0-2.66-.43,2.93,2.93,0,0,0-.87.14,1.27,1.27,0,0,1-.86,0,5.25,5.25,0,0,1-1.44-.5,3.27,3.27,0,0,0-1.45-.36,2.23,2.23,0,0,0-1.22.07,4.14,4.14,0,0,1-1.37.22h-2.45c-1.34-.19-2.73-.34-4.17-.43s-3.08-.24-4.9-.44a33.6,33.6,0,0,0-4.39-.28,40.59,40.59,0,0,0-4.69.28,5,5,0,0,0-.5,3c.14,1,.26,2,.36,3.09s.17,2.12.21,3.17.12,2.12.22,3.17a3.69,3.69,0,0,1-.14.94,3.33,3.33,0,0,0-.15.94,19.58,19.58,0,0,0,.15,2.16,23.66,23.66,0,0,1,.14,2.44,10.83,10.83,0,0,1-.14,1.81,2.56,2.56,0,0,0,.29,1.65,9,9,0,0,0,2.88.43,13.18,13.18,0,0,0,1.94.15H276c1.06-.1,2.09-.15,3.1-.15H287c1.59,0,3.34-.09,5.26-.28.86-.1,1.7-.22,2.52-.37a3.78,3.78,0,0,1,2.52.51,4.06,4.06,0,0,1,1.51-.29,8.34,8.34,0,0,0,1.52-.14,2.21,2.21,0,0,1,1.15,0,4,4,0,0,0,1.15.14,23.55,23.55,0,0,1,3.6,0,21.43,21.43,0,0,0,2.45.15l1.37-.29a2.52,2.52,0,0,1,1.22,0c.48,0,.75.17.8.5a2,2,0,0,0,.36.94,5.3,5.3,0,0,1,.57,2.37c0,.82,0,1.81-.14,3a2.75,2.75,0,0,1-.07,1.37,3.38,3.38,0,0,0-.22,1.08,19,19,0,0,0,0,3.38,12.49,12.49,0,0,0,.72,3.1c-.19.48-.38,1-.58,1.51a3.67,3.67,0,0,1-.86,1.37,1.25,1.25,0,0,0-1,.14,1.48,1.48,0,0,1-.86.29,2.7,2.7,0,0,1-1.16-.21l-1-.51c-.2-.29-.51-.31-.94-.07s-.6,0-.5-.65a5.85,5.85,0,0,1-2.45.94,1.84,1.84,0,0,0-1.44.65,2.26,2.26,0,0,0-1.66-.51,7.66,7.66,0,0,0-1.8.36,5.55,5.55,0,0,0-1.51-.36l-2.09-.21a2,2,0,0,0-1.66.14,7.71,7.71,0,0,1-1.66.58,4.86,4.86,0,0,0-2.59-.15,14.78,14.78,0,0,0-2.16.72c-.48.1-.77,0-.86-.36s-.39-.45-.87-.36A2.4,2.4,0,0,1,284,202a1.65,1.65,0,0,0-1.52.51,2,2,0,0,0-2.08-.36,2.17,2.17,0,0,1-2.24-.51c-.19.39-.45.51-.79.36a2.13,2.13,0,0,0-1.22-.07,4.09,4.09,0,0,0-1.08.14,3.83,3.83,0,0,1-1.09.15,3.35,3.35,0,0,1-1.65-.15,2,2,0,0,0-1.66.15,1,1,0,0,0-.57,1.15,4.71,4.71,0,0,1,0,1.59c-.1.28-.2.57-.29.86a2.64,2.64,0,0,0-.15.86,2.74,2.74,0,0,0,.22,1.08,1.66,1.66,0,0,1,.07,1.08,9.14,9.14,0,0,1-.36,2.45c-.24.87-.46,1.73-.65,2.6a16,16,0,0,0-.57,3.6,3.86,3.86,0,0,1-.72,2.3,3.73,3.73,0,0,1,.43,1.59,21,21,0,0,1,.14,2.45V228a6.77,6.77,0,0,1-.29,1.94c-.09.29-.19.58-.28.86a2.65,2.65,0,0,0-.15.87,3,3,0,0,0,.15,1.58,2.7,2.7,0,0,1,0,1.73,4.77,4.77,0,0,0,2.81.58c1-.1,2.18-.15,3.52-.15,1.64-.09,3.29-.23,5-.43a41,41,0,0,1,4.54-.29,7.13,7.13,0,0,1,2.09.29,3.24,3.24,0,0,0,1.95,0,19.78,19.78,0,0,1,2.37-.5,8.64,8.64,0,0,1,2.52-.07,10.44,10.44,0,0,1,2.52,0,12.8,12.8,0,0,0,1.81.14c.86,0,1.65,0,2.37-.07s1.47-.12,2.23-.22c.39-.09.75-.19,1.08-.29a4.22,4.22,0,0,1,1.09-.14,5.09,5.09,0,0,0,1.44.07,4.13,4.13,0,0,1,.72-.07,1.77,1.77,0,0,0,1.15.14,1.15,1.15,0,0,1,.43-.14,1.71,1.71,0,0,0,1.44-.07,3.52,3.52,0,0,1,2.16-.07,1.21,1.21,0,0,1,.51.93,1.19,1.19,0,0,0,.5.94c-.1.48,0,.77.29.86a.91.91,0,0,1,.57.72,31.86,31.86,0,0,1-.14,6.84q-.43,3.39-.58,7.14a1.84,1.84,0,0,1-.72.64l-1,.51c-.29.19-.61.38-.94.57a2.09,2.09,0,0,1-1.08.29,3.29,3.29,0,0,1-1.15-.21,8.59,8.59,0,0,0-1.16-.36,6,6,0,0,0-1.36.14,7.57,7.57,0,0,1-1.52.14c-.77,0-1.61,0-2.52-.14l-2.81-.29c-1.05-.09-2-.17-2.95-.21a4.6,4.6,0,0,1-2.09-.51,1,1,0,0,0-1,.22,1.23,1.23,0,0,1-1,.36,10.64,10.64,0,0,0-3.09-.43c-1.11,0-2.28,0-3.53-.15a8.81,8.81,0,0,0-2.52.07,14.87,14.87,0,0,1-2.67.22,10.43,10.43,0,0,1-2.37,0,9.48,9.48,0,0,0-2.38,0,11.68,11.68,0,0,0-2.38.22,7.21,7.21,0,0,1-2.23.07,3,3,0,0,1-1.22-.22,3.23,3.23,0,0,0-1.23-.21,2.79,2.79,0,0,1-1.44-.08,3.33,3.33,0,0,0-1.15-.21,12,12,0,0,0-2.45-.36,5.21,5.21,0,0,1-2.45-.79,1.5,1.5,0,0,1-1.08.14,3.81,3.81,0,0,0-1.08-.14,3.72,3.72,0,0,1-1.15.07,4.31,4.31,0,0,0-.72-.07,8.59,8.59,0,0,0-2,.5,3,3,0,0,1-1.94.07,2.63,2.63,0,0,1-1.15-1.29,11.1,11.1,0,0,0-.44-1.3,8.84,8.84,0,0,0-.36-.94,2.74,2.74,0,0,1-.21-1.08,2.5,2.5,0,0,1,0-1.22,2.19,2.19,0,0,0,0-1.08,6.27,6.27,0,0,0-.44-1.37q-.28-.64-.57-1.23a8.07,8.07,0,0,0,0-3,11.28,11.28,0,0,1-.15-3.17,8.22,8.22,0,0,1,.15-1.87,4.58,4.58,0,0,0,.14-1,2.93,2.93,0,0,0-.14-.87c-.1-.28-.2-.57-.29-.86-.1-.48-.1-.74,0-.79s.09-.31,0-.79a10.27,10.27,0,0,0-.65-2.45,3.7,3.7,0,0,1-.07-2.6,1.73,1.73,0,0,0,.07-1.29,1.75,1.75,0,0,1-.21-.72,5.84,5.84,0,0,1,.21-1.51c.15-.53.31-1.09.51-1.66a4.4,4.4,0,0,0-.15-1.23c-.1-.33-.19-.69-.29-1.08.19-.67.22-1.08.08-1.22a.85.85,0,0,1-.22-.65,5,5,0,0,1,.14-1.15,4.54,4.54,0,0,0,.15-1.15,6,6,0,0,1,.07-2.09,1.43,1.43,0,0,0-.5-1.52,4.32,4.32,0,0,0,.36-3,14,14,0,0,1-.36-3.24,2.85,2.85,0,0,1,0-1.3c.09-.38.19-.81.28-1.29a4.09,4.09,0,0,0-.14-1.08,3.81,3.81,0,0,1-.14-1.08,10.83,10.83,0,0,0,.14-1.66v-1.8a2.82,2.82,0,0,1,.14-.86,2.65,2.65,0,0,0,.15-.87,3.77,3.77,0,0,1-.29-.94,4.83,4.83,0,0,1-.14-1.08c0-.86.14-1.39.43-1.58-.2-.48-.36-.86-.51-1.15s0-.67.36-1.16c-.38-1-.5-1.67-.36-1.87a1.38,1.38,0,0,0,.22-.86c-.1-1.06-.19-2-.29-2.81a19.57,19.57,0,0,1-.14-2.38,3.18,3.18,0,0,1,.14-.93,3.33,3.33,0,0,0,.15-.94,3.56,3.56,0,0,0-.15-1.15,1.73,1.73,0,0,1,0-1,14.53,14.53,0,0,0,.72-3.82,4,4,0,0,1,.72-2.38,6.1,6.1,0,0,1-.43-4.39,23.08,23.08,0,0,0,.58-5.11,19.09,19.09,0,0,0-.08-3.68,16.68,16.68,0,0,1,.08-4.1,7.4,7.4,0,0,0-.15-2.59,6.61,6.61,0,0,1-.29-1.73,3.89,3.89,0,0,1,.29-1.44c.19-.48.38-1,.58-1.44s.36-.75.5-1.08a1.63,1.63,0,0,1,.8-.8,41.66,41.66,0,0,0,12.17.51,61.37,61.37,0,0,1,11.45-.22c1.05.2,2.09.41,3.1.65a21,21,0,0,0,3.09.5,5.5,5.5,0,0,0,2-.07,24.53,24.53,0,0,1,2.59-.36,6.78,6.78,0,0,0,1.95.22,5.5,5.5,0,0,1,.79-.07,3.81,3.81,0,0,1,1.3.21,3.49,3.49,0,0,0,1.29.22,9.06,9.06,0,0,0,2.16.29,18.73,18.73,0,0,1,2.16.14,14.38,14.38,0,0,0,1.88-.14,6.77,6.77,0,0,1,2,0,17.23,17.23,0,0,1,3.17.36,32.67,32.67,0,0,0,3.6.5,5,5,0,0,1,1.66,0c.34.1.65.19.94.29a16.54,16.54,0,0,0,3.74.14A15.75,15.75,0,0,1,315.18,145.57Z" transform="translate(-9.8 -139.42)"/><path class="cls-1" d="M409.1,250.44a4.66,4.66,0,0,1-1.87,1.72,6.59,6.59,0,0,0-1.51.94,1,1,0,0,1-.65.36,2.49,2.49,0,0,1-2.3-.43,10.47,10.47,0,0,1-3.68.43,9.07,9.07,0,0,0-3.24.29,2.49,2.49,0,0,0-1.15.5,5.31,5.31,0,0,1-1,.65,3.78,3.78,0,0,1-1.51.22,13.45,13.45,0,0,0-1.51-.07,3.3,3.3,0,0,1-.94-1.09,11.37,11.37,0,0,1-.65-1.36,7.62,7.62,0,0,1-1.73-1.73,2.62,2.62,0,0,1-.5-.79,2.56,2.56,0,0,0-.51-.8,13.15,13.15,0,0,1-1.58-2.52,19.15,19.15,0,0,1-.86-2.09c-.29-.38-.61-.76-.94-1.15a8.19,8.19,0,0,1-.94-1.3c-.29-.38-.62-.79-1-1.22a5.86,5.86,0,0,1-.86-1.22,2.5,2.5,0,0,1-.29-1.08,2.51,2.51,0,0,0-.29-1.09,6.71,6.71,0,0,0-1.08-1.58,3.37,3.37,0,0,1-.79-1.87,14.18,14.18,0,0,1-1.08-1.23,2.84,2.84,0,0,0-1.51-.93,3.77,3.77,0,0,0-.94-1.66,5,5,0,0,1-1.08-1.8,12.35,12.35,0,0,1-.86-1.87,2,2,0,0,1-.36-.94,2.3,2.3,0,0,0-.36-.94,3.18,3.18,0,0,0-1.23-1.15,2.3,2.3,0,0,1-1.08-1.58,1.58,1.58,0,0,1-1.51-.65,1.72,1.72,0,0,0-1.37-.79,11,11,0,0,0-1.8-2.6,12.92,12.92,0,0,1-1.94-2.73,13.67,13.67,0,0,1-3.61-2.6,15.75,15.75,0,0,0-3.74-2.73,3.05,3.05,0,0,0-2.59-1.59,3.3,3.3,0,0,0-.58,2.38,8.43,8.43,0,0,1-.14,2.66,22.52,22.52,0,0,1-.51,3.1,22.22,22.22,0,0,1-.79,2.67c-.19.48-.14.79.14.93s.39.46.29.94c-.09.29-.21.62-.36,1a1.89,1.89,0,0,0-.07,1.15,2.78,2.78,0,0,0,.36,1.37,3.36,3.36,0,0,1,.36,1.65,7.6,7.6,0,0,1-.22,2.6,27.27,27.27,0,0,0-.5,2.73,5.72,5.72,0,0,1,.07,1.45,2.22,2.22,0,0,0-.07.57v2a14.24,14.24,0,0,1-.14,1.87,6,6,0,0,1-.15,2.38,10,10,0,0,0-.43,1.51c.19.67.24,1.06.14,1.15a.62.62,0,0,0-.14.43,2.93,2.93,0,0,0,.14.87.89.89,0,0,1,0,.72,8.48,8.48,0,0,1-.5,2.45,4.41,4.41,0,0,0-.07,2.45c.19.67.33,1.12.43,1.37a.79.79,0,0,1,0,.64,2.71,2.71,0,0,1-1,1.73,2,2,0,0,0-.86,1.59,7.91,7.91,0,0,0-3.1.29,3.31,3.31,0,0,1-2.67-.29c-.67.19-1.49.38-2.44.57a9.22,9.22,0,0,1-2.74.15,4.84,4.84,0,0,0-2.09-.29.76.76,0,0,1-.79-.14,40.12,40.12,0,0,0-.72-4.76,3.69,3.69,0,0,1,.72-3.31,2.65,2.65,0,0,0-.15-.87,1.88,1.88,0,0,1,0-1,6.48,6.48,0,0,0-.07-2.31,4.67,4.67,0,0,1-.21-1.3,4.17,4.17,0,0,1,.36-1,2,2,0,0,0,.21-.87,2.75,2.75,0,0,0-.14-1.51,4.64,4.64,0,0,1-.29-1.66,10.26,10.26,0,0,1,.14-1.58,9.42,9.42,0,0,0,.15-1.59,4.15,4.15,0,0,0-.36-1.58,1.76,1.76,0,0,1,.21-1.73,3.39,3.39,0,0,0,.22-1.73c0-.77-.07-1.53-.07-2.3a10.3,10.3,0,0,1,.07-1.3c.05-.38.12-.81.22-1.3s0-1.12-.08-1.65-.07-1-.07-1.52a3,3,0,0,1,.15-.79,1.17,1.17,0,0,0,0-.79,6.53,6.53,0,0,1-.22-2,11.36,11.36,0,0,0,.07-1.15,5,5,0,0,0,.07-1.51,7.53,7.53,0,0,1,.08-1.8,4.54,4.54,0,0,0-.15-1.15,3.16,3.16,0,0,1,0-1.3,4.72,4.72,0,0,0,0-1.73c-.09-.29-.19-.58-.29-.86a2.65,2.65,0,0,1,.15-.87,3.37,3.37,0,0,0,.14-1,12.81,12.81,0,0,0-.29-2.59,13.41,13.41,0,0,1-.28-2.59c.19-1.92.09-3-.29-3.17a10.9,10.9,0,0,0,.43-1.3c.09-.38.19-.81.29-1.29a13.73,13.73,0,0,0-.15-2,8.33,8.33,0,0,1,.15-2.59q.14-.3.36-.72a2,2,0,0,0,.21-.87,5,5,0,0,0-.14-1.15,2.85,2.85,0,0,1,0-1.3c0-.86.05-1.77.14-2.73s.24-1.92.44-2.89a4.67,4.67,0,0,0,.14-1.87,4,4,0,0,1-.14-1,6,6,0,0,1,.28-1.87,3.46,3.46,0,0,0,0-2,5.62,5.62,0,0,0-.07-.79,8.45,8.45,0,0,1-.07-1.22,7.83,7.83,0,0,0,0-2.09,5.4,5.4,0,0,1-.14-1.23c.19-.76.23-1.2.14-1.29a.57.57,0,0,1-.14-.43c.19-.39.23-.65.14-.8a1.47,1.47,0,0,1-.14-.79c.09-.77.16-1.41.21-1.94a13,13,0,0,0-.07-2.24c-.19-.67-.22-1.05-.07-1.15s.16-.24.07-.43a2.38,2.38,0,0,0-.29-1l-.57-1.15a4.71,4.71,0,0,0,.14-2,8.85,8.85,0,0,1,0-2.3,3.43,3.43,0,0,1,.14-.8,2.87,2.87,0,0,0,.15-.79,9.57,9.57,0,0,1-.51-1.65,3,3,0,0,0-.21-.8,6.23,6.23,0,0,0-.43-1.15,2.21,2.21,0,0,1-.29-1,3,3,0,0,1,.43-1.58c.29-.48.58-1,.86-1.44a4.06,4.06,0,0,1,.65-.51,1.26,1.26,0,0,1,.94-.07l.65-.65a5.58,5.58,0,0,1,.79-.65,2,2,0,0,1,1.8.22,5.41,5.41,0,0,0,1.37.79,8.18,8.18,0,0,1,2.45-.21,12.41,12.41,0,0,0,2.88-.22,6.62,6.62,0,0,1,1.87-.22,7.46,7.46,0,0,0,.87.08,14,14,0,0,1,3-.44,12,12,0,0,1,2,.15,3.76,3.76,0,0,1,1.37.14.84.84,0,0,0,.5.15,1.8,1.8,0,0,1,1.3-.08,9.61,9.61,0,0,0,1.15.37,19.72,19.72,0,0,0,2.3.14,19.89,19.89,0,0,1,2.31.14l2.37.29a10.22,10.22,0,0,1,2.38.58,3.51,3.51,0,0,1,.87.43,3.3,3.3,0,0,0,.86.43,4,4,0,0,0,1.37.07,3.35,3.35,0,0,1,1.51.22,13.83,13.83,0,0,1,3.1.94,14.34,14.34,0,0,0,3.1.93,11.73,11.73,0,0,0,1.58.51,4.06,4.06,0,0,1,1.58.79,16.4,16.4,0,0,1,3.61.36,11.93,11.93,0,0,1,2.73.94c.48.19,1,.38,1.66.57a3.6,3.6,0,0,1,1.51.87c.48.38.91.72,1.3,1a11.55,11.55,0,0,1,1.15,1,5.22,5.22,0,0,1,1.08,1.08,3.25,3.25,0,0,0,.51.65,4.73,4.73,0,0,1,1.08,1.15,1.18,1.18,0,0,0,.5.58,5.82,5.82,0,0,1,1.08.79,2.06,2.06,0,0,0,.79.51,2.86,2.86,0,0,0,1.08,1.72,14.14,14.14,0,0,1,1.52,1.3,8.35,8.35,0,0,1,.86,2,1.34,1.34,0,0,0,.72,1,20.91,20.91,0,0,1,.86,4.32,4.06,4.06,0,0,0,1.3,2.88,4.23,4.23,0,0,0,.22,2.09c.24.62.5,1.27.79,1.94a2.28,2.28,0,0,0-.14,1.37,6.7,6.7,0,0,1,.14,1.37,3.2,3.2,0,0,1-.36,1.44,1,1,0,0,0,.22,1.3c-.39,1.15-.75,2.33-1.09,3.53a12.36,12.36,0,0,1-1.51,3.38,2,2,0,0,0-.43.65c-.1.24-.38.36-.86.36a1.22,1.22,0,0,1-.29,1.22,1.32,1.32,0,0,0-.43,1.08,11.27,11.27,0,0,0-1.81,1.37,10.6,10.6,0,0,0-1.36,1.8,4.68,4.68,0,0,1-.8.87,11,11,0,0,1-1.08.72c-.77.48-1.34.82-1.73,1a9.89,9.89,0,0,0-1,.57,3.5,3.5,0,0,0-1.23.72,1.27,1.27,0,0,1-.5.43,5.64,5.64,0,0,1-.94.51,5.14,5.14,0,0,0-.93.5,6.26,6.26,0,0,1-1.23.87,1.31,1.31,0,0,0-.5.29c-.87.38-1.8.74-2.81,1.08a11.15,11.15,0,0,0-3,1.51,1.57,1.57,0,0,0-1.45.14,7.61,7.61,0,0,1-1.58.72,5.75,5.75,0,0,1-1.94.22c-.53,0-.89.31-1.09,1.08a1.1,1.1,0,0,0,.65,1.44,7.94,7.94,0,0,1,1.8,1.15,5.77,5.77,0,0,0,.8,1.37,2.79,2.79,0,0,0,1.36.94,4.79,4.79,0,0,1,1.37,2,1.4,1.4,0,0,0,1.37,1,8.91,8.91,0,0,0,1.15,1.87,4,4,0,0,1,1.08,1.16,2.68,2.68,0,0,0,.22.57,4.31,4.31,0,0,0,1,1.3.47.47,0,0,1,.29.43c.38.58.79,1.2,1.22,1.87a7.6,7.6,0,0,1,.94,2.17l.86.86a8.89,8.89,0,0,0,1,.86,1.39,1.39,0,0,0,.22.87,1.45,1.45,0,0,1,.21.86c.58.68,1.2,1.35,1.88,2a5.75,5.75,0,0,1,1.44,2.59,3.78,3.78,0,0,1,.72.65,1.47,1.47,0,0,0,.86.5,6.75,6.75,0,0,0,1.37,2.53,25.34,25.34,0,0,1,1.8,2.37,5.84,5.84,0,0,0,1.3,1.44,10,10,0,0,1,1,1.52,11.35,11.35,0,0,0,1,1.51,18.43,18.43,0,0,1,1.08,1.94,2,2,0,0,0,1.08,1.08,2.1,2.1,0,0,0,.51,1.08,1.36,1.36,0,0,1,.21,1.23c.39.19.77.41,1.16.65a7.75,7.75,0,0,0,1.29.64q.29,1.15.51,1.95A2.79,2.79,0,0,1,409.1,250.44Zm-20-76.35a7.71,7.71,0,0,1-.79-2,2.71,2.71,0,0,0-.22-.86,1.45,1.45,0,0,0-.5-.72,3.24,3.24,0,0,1-.65-.72,5.51,5.51,0,0,0-1.3-1.88,2.3,2.3,0,0,1-.72-.79,1.36,1.36,0,0,0-.72-.65,6,6,0,0,1-1.51-1.44,1,1,0,0,0-1.08-.43,1.56,1.56,0,0,0-1.22-1.08,1.55,1.55,0,0,1-1.23-1.08,4.63,4.63,0,0,1-1.87-.58c-.48-.28-1-.62-1.59-1a2.54,2.54,0,0,0-.79.43,1.28,1.28,0,0,1-1.08.14,3.88,3.88,0,0,1-1.22-.43,4,4,0,0,0-1.23-.43,6.93,6.93,0,0,1-2.3-.07,4.1,4.1,0,0,0-1.15-.22,6.81,6.81,0,0,0-2.31-.58,8.5,8.5,0,0,0-2.45.08c-.86.14-1.73.26-2.59.36a38.59,38.59,0,0,1-4.75-.29,18.71,18.71,0,0,0-4.61,0,.72.72,0,0,0,.07.93,1.47,1.47,0,0,1,.36,1.08,8,8,0,0,0,0,2.24,6,6,0,0,1,.14,1.22,2.76,2.76,0,0,0-.14,1.44,1.27,1.27,0,0,1,.14.43v2.45a19.17,19.17,0,0,0-.21,3.68,32.37,32.37,0,0,1-.08,3.67c0,1.44,0,2.71-.07,3.82s-.12,2.23-.21,3.38a5.16,5.16,0,0,1-.08,2.09,2.81,2.81,0,0,0-.21,1.08,9.15,9.15,0,0,0,.29,3.17,11.56,11.56,0,0,0,3.09.43h2.24a3.74,3.74,0,0,0,1.22.07,3.28,3.28,0,0,1,.79-.07q1.44.15,2.67.36a7.07,7.07,0,0,0,2.66-.07,12,12,0,0,0,1.37-.07c.43,0,.89-.12,1.37-.22a5.44,5.44,0,0,1,1.66-.43h.79a12.72,12.72,0,0,1,2.16-.65,3.06,3.06,0,0,0,.86-.21c1.92-.77,3.32-1.3,4.18-1.59,1.34-.48,2.38-.81,3.1-1s1.37-.33,1.94-.43A2.25,2.25,0,0,1,383,185a2.09,2.09,0,0,0,1.59-1.88,1.62,1.62,0,0,1,.93-.28c.34,0,.55-.2.65-.58.29-.87.58-1.78.86-2.74a8.44,8.44,0,0,1,1.16-2.45c-.1-.76,0-1.27.21-1.51A3.42,3.42,0,0,0,389.08,174.09Z" transform="translate(-9.8 -139.42)"/><path class="cls-1" d="M534,200.88a27.36,27.36,0,0,1-.65,5.84c-.43,2-.89,3.81-1.37,5.54a2.64,2.64,0,0,0-.14.87,1.57,1.57,0,0,1-.15.72,2.86,2.86,0,0,1-.5.86,2.82,2.82,0,0,0-.51.87,10.16,10.16,0,0,0-.36,3,5.57,5.57,0,0,1-.5,2.59,10,10,0,0,1-1,1.44,3.4,3.4,0,0,0-.58,1c-.48.77-.86,1.42-1.15,2a2.43,2.43,0,0,1-1,1.08,1.81,1.81,0,0,1-.14.64,1.5,1.5,0,0,0,0,.94,4,4,0,0,0-1.51,2.09,6.38,6.38,0,0,1-1.37,2.38,11.92,11.92,0,0,0-1.08,1.37,3.19,3.19,0,0,1-.51.64,3.1,3.1,0,0,1-.86.65,3.3,3.3,0,0,0-.86.65,15.23,15.23,0,0,1-2,2.16,3.42,3.42,0,0,0-1.15,1.73,3.2,3.2,0,0,0-1.44.72,4.61,4.61,0,0,0-1.3,1.22,1,1,0,0,1-.43.51,4,4,0,0,1-1.44.86,1.78,1.78,0,0,0-.87.44,9.82,9.82,0,0,1-2.3,1.36,48.36,48.36,0,0,1-4.4,2.74,3.84,3.84,0,0,1-1.08.79,4.5,4.5,0,0,1-1.51.58,1.36,1.36,0,0,0-1.08,1,22.43,22.43,0,0,0-3,1.08,8.29,8.29,0,0,1-2.67.65,6,6,0,0,1-2.66,1.22,22.47,22.47,0,0,1-3.53.65c-.48,0-1,0-1.44-.07a13.9,13.9,0,0,0-1.44-.08,6.8,6.8,0,0,0-1.66.51,3.65,3.65,0,0,1-1.51.36,1.4,1.4,0,0,1-1.08-.15,10.37,10.37,0,0,0-1.23-.57,20.19,20.19,0,0,0-2.59.36,9.23,9.23,0,0,1-1.87.21,5.44,5.44,0,0,1-1.8,0c-.63-.09-1.18-.19-1.66-.28-.19.19-.65.21-1.37.07a3,3,0,0,1-1.37-.51,1.74,1.74,0,0,1-2,.15,9.48,9.48,0,0,0-2-.87,8.39,8.39,0,0,0-2.81-.36,3.45,3.45,0,0,1-2.52-.93q-3.31,0-4.75-1.73a14.15,14.15,0,0,1-2.6-.72q-.57-.28-1.29-.72a4.25,4.25,0,0,0-1-.79A3.51,3.51,0,0,1,450,247a4.63,4.63,0,0,0-1.08-.72,2,2,0,0,1-.64-.43,5.84,5.84,0,0,1-.8-1,2.81,2.81,0,0,0-.79-.87,2,2,0,0,1-1.22-.36,10,10,0,0,1-1.23-1.08c-.48-.38-1-.84-1.65-1.37a3.74,3.74,0,0,1-1.23-1.65l-1.73-.58a2.56,2.56,0,0,1-1.29-.86c-.77-.77-1.4-1.39-1.88-1.88a7.33,7.33,0,0,1-1.15-1.44,10.28,10.28,0,0,0-1.15-2.09,7,7,0,0,0-1-.93l-1.87-2.59c-.48-.68-.87-1.25-1.15-1.73a2.85,2.85,0,0,1-.87-1,8.54,8.54,0,0,1-.5-1.23,5.94,5.94,0,0,0-.58-1.22,2.32,2.32,0,0,0-.93-.86,2.73,2.73,0,0,0-.51-2.09,7.68,7.68,0,0,1-1.08-1.8,5.61,5.61,0,0,1-.36-1.59c-.05-.57-.12-1.2-.22-1.87-.19-.29-.38-.6-.57-.94a2,2,0,0,1-.29-1.08,3.42,3.42,0,0,0-.07-1.58c-.15-.38-.27-.72-.36-1a3.91,3.91,0,0,1-.07-1.3,3.21,3.21,0,0,0-.08-1.15l-.43-2.16a9.47,9.47,0,0,1,.07-1.08.87.87,0,0,0-.5-.94,12.44,12.44,0,0,0,.29-2,4.76,4.76,0,0,1-.22-1.52,1.08,1.08,0,0,0,.07-.36,7.48,7.48,0,0,1,0-2,5.75,5.75,0,0,0-.14-2.16,1.39,1.39,0,0,1-.07-1.16,3.42,3.42,0,0,0,.07-1.58c-.19-1.06-.31-1.87-.36-2.45a4.33,4.33,0,0,1,.07-1.44,2.18,2.18,0,0,1,.22-1,2.28,2.28,0,0,0,.21-1,6.61,6.61,0,0,1,0-1.94,3,3,0,0,0,.15-.79c-.1-.29-.2-.58-.29-.87a2.25,2.25,0,0,1-.15-.72,8.13,8.13,0,0,1,.15-1.51c.09-.53.19-1,.29-1.51a5.56,5.56,0,0,0,.29-1.73,3.21,3.21,0,0,1,.28-1.44,18.2,18.2,0,0,0,1.66-3l.94-2.23a22.94,22.94,0,0,0,.93-2.88,4,4,0,0,1,1.52-2.3,5.74,5.74,0,0,1,.5-1.88,13.66,13.66,0,0,0,.65-1.58,11.07,11.07,0,0,1,1.08-1.87,4.43,4.43,0,0,0,.65-1.16,6.45,6.45,0,0,0,.86-1.8,4.3,4.3,0,0,1,.29-.93,9.3,9.3,0,0,0,1.65-2.09c.34-.63.6-1.18.8-1.66a4.44,4.44,0,0,0,2.3-2.3,1.39,1.39,0,0,0,1.15-.8c.2-.43.68-.59,1.45-.5a2.22,2.22,0,0,1,1.29-1.15,1.34,1.34,0,0,1,.65-.72,1.52,1.52,0,0,0,.65-.58,4,4,0,0,0,1.94-.72,12.25,12.25,0,0,1,1.66-1,8.24,8.24,0,0,1,1.8-.65,5.44,5.44,0,0,0,1.94-.93,3.73,3.73,0,0,0,2-.22,8.34,8.34,0,0,0,1.44-.93,3.41,3.41,0,0,0,1.95,0c.62-.2,1.17-.39,1.65-.58a27,27,0,0,1,2.81-.86c1.11-.29,2.19-.53,3.24-.73.77-.19,1.52-.36,2.24-.5a13.85,13.85,0,0,0,2.23-.65,8.67,8.67,0,0,0,1.44-.43,1.34,1.34,0,0,1,.58-.14,1.18,1.18,0,0,1,.72-.08,4.91,4.91,0,0,0,.86.08,3.7,3.7,0,0,0,1.44.36,2.25,2.25,0,0,1,.58-.08,8.43,8.43,0,0,0,2,.44,23.13,23.13,0,0,0,3.75.86,3.53,3.53,0,0,1,2.16,1,4.76,4.76,0,0,1,2.38-.29A23.19,23.19,0,0,0,486,142a1.13,1.13,0,0,1,1,.43,1.32,1.32,0,0,0,.72.57,9.06,9.06,0,0,1,2.88.44,3.36,3.36,0,0,0,1.58.36,1.55,1.55,0,0,1,.87.07,9.64,9.64,0,0,1,.93.36c.34.14.6.26.79.36a21.19,21.19,0,0,0,2.38.65,2.76,2.76,0,0,1,1.8,1.36c.38,0,.63-.11.72-.36s.38-.26.87-.07a7.19,7.19,0,0,0,2.66.72,10.88,10.88,0,0,1,2.95.72,8.64,8.64,0,0,1,1.66,1.08,2.85,2.85,0,0,0,.65.51c.48.19.94.36,1.37.5a1.17,1.17,0,0,1,.79.94,3.14,3.14,0,0,1,1.22.21,6.47,6.47,0,0,1,.94.51,6.76,6.76,0,0,1,1.3,1,15,15,0,0,0,1.29,1.15,3.54,3.54,0,0,0,1.37,1.15,5.5,5.5,0,0,1,.79.29,10.84,10.84,0,0,1,.73,1.08c.19.34.38.65.57.94a2.8,2.8,0,0,1,1.73.72,3.57,3.57,0,0,0,1.58.86,8.85,8.85,0,0,0,1.73,2,8.67,8.67,0,0,1,1.23,1.65,5.6,5.6,0,0,0,.5.94,3.21,3.21,0,0,1,.43.94,6.47,6.47,0,0,0,.44,1.08c.28.48.67,1.08,1.15,1.8a3.51,3.51,0,0,1,.43,2.66,2.3,2.3,0,0,1,1,1.3,7.34,7.34,0,0,0,.86,1.73,3.9,3.9,0,0,1,.72,1.65,1.75,1.75,0,0,0,.15.8,10.4,10.4,0,0,1,.5,1.73c.15.67.26,1.34.36,2a2.21,2.21,0,0,1,0,1.15,1.3,1.3,0,0,0,0,.87,14.53,14.53,0,0,0,.79,2.66,16.27,16.27,0,0,0,1.23,2.38,23,23,0,0,0-.07,3.17,27.35,27.35,0,0,1-.08,3.31,16.34,16.34,0,0,0,.22,4A20.25,20.25,0,0,1,534,200.88ZM518.44,190.8a4.8,4.8,0,0,0-.22-1.44,5.12,5.12,0,0,1-.21-1.44,12,12,0,0,1,.07-1.37,4.59,4.59,0,0,0-.07-1.37,3.19,3.19,0,0,0-.44-1,9.1,9.1,0,0,1-.57-1c-.1-.48,0-.81.21-1s.17-.44-.21-.73a12,12,0,0,1-.79-2c-.24-.77-.46-1.54-.65-2.31-.68-.67-1.11-1.12-1.3-1.36s-.38-.51-.58-.8a11.15,11.15,0,0,1-1.08-1.65,2.55,2.55,0,0,0-.5-.8,12.55,12.55,0,0,0-2.3-1.8,25.35,25.35,0,0,1-2.6-1.8A6.4,6.4,0,0,1,506,168a14.29,14.29,0,0,0-1.23-1.08,8.28,8.28,0,0,1-1.8-1.3,8.36,8.36,0,0,0-.65-.72,6.51,6.51,0,0,0-2.59-.65,3.37,3.37,0,0,1-2.45-1.22,6.78,6.78,0,0,1-3.74-.51,9.74,9.74,0,0,0-4.32-.65,2.21,2.21,0,0,1-.72-.36,7.12,7.12,0,0,0-.87-.5,3,3,0,0,1-1.87.22c-.48-.15-1-.31-1.44-.51a9.85,9.85,0,0,1-1-.29l-.86-.28-2-.58a16.33,16.33,0,0,0-1.87-.43,4.12,4.12,0,0,1-2.16,0,5.17,5.17,0,0,0-1.59-.29,5.9,5.9,0,0,0-1.51.21,5.14,5.14,0,0,1-1.37.22,18.72,18.72,0,0,0-4-.65,9.8,9.8,0,0,1-2.67-.36,9.59,9.59,0,0,0-1.36-.43,3,3,0,0,1-1.23-.58,2,2,0,0,1-.79.72,2,2,0,0,0-.65.44,3.22,3.22,0,0,0-1.58.93,5.31,5.31,0,0,1-1.3,1.08,14.08,14.08,0,0,1-1.51.51,5.81,5.81,0,0,0-1.52.65l-.57.57-.58.58a1.73,1.73,0,0,1-.72.43,1.85,1.85,0,0,0-.72.43,7.08,7.08,0,0,0-1.22,1.23,2.85,2.85,0,0,1-1.37.93,4.8,4.8,0,0,1-.94,1.44,10.19,10.19,0,0,0-1.08,1.44q-.57.73-1.08,1.44a2.59,2.59,0,0,1-1.37,1,3.2,3.2,0,0,1-.43,1.8,4.29,4.29,0,0,0-.58,1.81,13.15,13.15,0,0,0-1.15,1.72c-.19.39-.38.82-.57,1.3q-.73,1.59-1.08,2.16a12.3,12.3,0,0,0-.65,1.15,9.69,9.69,0,0,1-1,2c-.39.77-.67,1.37-.87,1.8a10.89,10.89,0,0,0-.57,2.09c-.19,1-.41,2-.65,3.1a8,8,0,0,0-.22,2.66,4,4,0,0,0-.21,1.51,2.09,2.09,0,0,1-.07.94,14.65,14.65,0,0,0-.65,5.26c.14,1.39.31,2.76.5,4.1a14.62,14.62,0,0,1,0,3,6.2,6.2,0,0,0,.15,2.37,2.12,2.12,0,0,0,.28,1.08c.2.34.39.65.58.94a6.07,6.07,0,0,1,.14,1.22,3.47,3.47,0,0,0,.29,1.23c.39,1.06.67,2,.87,2.74a5.57,5.57,0,0,0,.57,1.58,4.4,4.4,0,0,0,.94.94,4.58,4.58,0,0,1,.94.93,9.15,9.15,0,0,1,.72,1.16q.29.57.72,1.29c.57.77.93,1.28,1.08,1.51a3.21,3.21,0,0,0,.5.65,4.19,4.19,0,0,0,.94.94,4.15,4.15,0,0,1,.93.94,11.67,11.67,0,0,1,.8,1.22c.23.43.5.89.79,1.37a26.06,26.06,0,0,1,3.89,2.52,38.57,38.57,0,0,1,3.45,3.1,16.6,16.6,0,0,1,3.68,1c1.2.49,2.33.92,3.38,1.3q.58.15,1.23.36a10.52,10.52,0,0,0,1.37.36,5.09,5.09,0,0,0,1.15-.14,5.1,5.1,0,0,1,1.3-.15,9.29,9.29,0,0,1,2.23.51,17.35,17.35,0,0,0,2.09.64,13.64,13.64,0,0,0,2.45.08,4.49,4.49,0,0,1,2.3.5,2.49,2.49,0,0,1,1.23-.43,6.9,6.9,0,0,1,1.22.14,4.92,4.92,0,0,1,3.31-.86,12.2,12.2,0,0,0,3.75-.29,2.24,2.24,0,0,1,1-.58,1.2,1.2,0,0,0,.57-.14,16.39,16.39,0,0,0,1.73-.86,7.69,7.69,0,0,1,1.59-.72,9.61,9.61,0,0,1,1-.29c.39-.1.72-.19,1-.29a3.28,3.28,0,0,1,1.15-1,4.28,4.28,0,0,0,.72-.29,9.66,9.66,0,0,0,.87-.64,1.3,1.3,0,0,1,1.15-.22,2.58,2.58,0,0,1,1.23-1.23,13.3,13.3,0,0,1,1.8-.64,2.29,2.29,0,0,1,.57-.8,5.16,5.16,0,0,0,.58-.5l1.15-1.15.58-.58a21,21,0,0,1,2.3-2.74,1.35,1.35,0,0,1,.51-.93,3.57,3.57,0,0,0,.65-.51,5.68,5.68,0,0,1,.43-1.36c.19-.44.38-.84.57-1.23a5.56,5.56,0,0,1,.65-1.22,2.34,2.34,0,0,0,.36-1.37,1.54,1.54,0,0,0,.94-.94c.14-.43.31-.89.5-1.37q.87-1.58,1.23-2.16l.64-1c.2-.38.34-.69.44-.93a3.92,3.92,0,0,1,.43-.79,11.79,11.79,0,0,1,.86-2c.19-.29.34-.53.44-.72a3.82,3.82,0,0,0,.07-1.23,2.79,2.79,0,0,1,.21-1.36,7.19,7.19,0,0,1,.65-1.08,3.54,3.54,0,0,0,.51-1.52,2.15,2.15,0,0,0-.08-1.22,2.63,2.63,0,0,1-.07-1.37,6,6,0,0,1,.43-1.15c.2-.39.39-.82.58-1.3.19-.67.41-1.34.65-2a2.44,2.44,0,0,0,.21-1.44,5.72,5.72,0,0,0,.29-1.51V193a4.9,4.9,0,0,1,.36-1.15A2.18,2.18,0,0,0,518.44,190.8Z" transform="translate(-9.8 -139.42)"/></svg>