<svg id="Layer_1" data-name="Layer 1" xmlns="http://www.w3.org/2000/svg" viewBox="0 0 409.91 460.94"><defs><style>.cls-1{fill:#524944;}.cls-2{fill:#e6bdbb;}</style></defs><title>new-logo</title><path class="cls-1" d="M227.89,159.52c5.58-8.1,8.69-17.39,12.6-26.29,1.87-4.26,3.41-8.67,5-13,.82-2.18,2.54-4.47-2-5-2.29-.25-2.06-3.14-2-5.11.08-3.78.33-7.56.53-11.83-4.07,1.54-7.55,3.09-11.34,3.64-1.73.25-3.36.66-4.49-1s-.48-3.53.62-5.09c3.4-4.85,8-8.36,13.65-12-5.07-1.48-9.45-2.65-13.75-4.06-3.1-1-6.17-2.35-5.06-6.63s4.57-3.66,7.7-3.09c4.05.74,8.05,1.72,12.79,2.76-2.86-5.24-4.63-10.28-3.36-15.85.57-2.54.35-5.65,3.73-6.37,3-.64,4.43,1.71,6,3.67,2.91,3.64,4.74,7.93,7.06,12.55,2-2.84,3.62-5.28,5.33-7.67a20.38,20.38,0,0,1,6.6-6c2.94-1.65,4.52-.63,4.41,2.63a24.38,24.38,0,0,1-7.37,16.79h9.71a17.74,17.74,0,0,1,5.93.58c2.85,1,5.51,2.39,5.34,5.73-.18,3.5-3.07,4.32-6.08,4.69-4.63.58-9.22,1.42-13.86,1.88-2.69.26-3.22,1-1.62,3.28,2,2.83,4,5.71,5.93,8.64,1.51,2.33,1.76,4.87-.56,6.75-2.47,2-4.71.64-6.57-1.3s-3.78-4.16-6-6.66l-3.8,9.36.05,0q-.09-6.73-.16-13.46c0-.8-.22-1.73.71-2.19,1.21-.59,1.85.38,2.44,1.12,2.27,2.87,4.42,5.84,6.74,8.67,1.32,1.61,2.87,4.16,5.2,2.3s0-4-1.1-5.63c-1.68-2.67-3.69-5.14-5.5-7.73-2-2.9-1.21-4.63,2.25-5.11,5.11-.71,10.23-1.34,15.34-2,1.8-.25,4.06-.25,4.2-2.64.16-2.61-2.1-3.1-4.1-3.46-7-1.24-14-1.9-20.7,1.82a14.61,14.61,0,0,1,2.87-4.15c4.13-4,7.57-8.43,8.34-14.38.13-1,.94-2.43-.41-3.13s-2.19.53-3,1.25c-3.63,3.08-5.9,7.15-8.23,11.21-.69,1.21-.88,3.33-2.7,3.21s-1.59-2.28-2-3.6a37.82,37.82,0,0,0-7.22-13c-2.22-2.73-4-2.15-4.71,1.14-1.32,5.81-.57,11.24,3.32,16,.92,1.13,2.07,2.43.63,3.94-1.2,1.25-2.44.38-3.67-.09C237.14,74,232.77,72.32,228,72.3c-1.55,0-3.64-.7-4.17,1.6-.48,2.08,1.29,2.88,2.81,3.57,4.28,2,8.93,2.56,13.47,3.59,1.62.37,4.23-.27,4.54,2.13.26,2-2.16,2.25-3.5,3A39,39,0,0,0,229.08,96.5c-.58.78-1.49,1.65-.83,2.65s1.8.63,2.76.48c5.85-.92,10.86-3.15,13.7-8.79.48-1,.87-2.74,2.24-2.09,1.94.93.24,2.33-.29,3.29a23.26,23.26,0,0,0-2.69,12c.08,3-2.09,7.44,1,8.75s4.44-3.59,6.92-5.31l.56.5c-10.26,33.5-25,64.71-47.32,92l-.88,1-.87.93c-.29.45-1.44.59-.83,1.29.43.5,1.22.18,1.44-.65l1.15-.85,1.13-.88c24.1-17.36,49-33.85,66-59.16-.6-.52-.9-.93-1-.88-2.6,1-5.36,2.92-7.65-.18-2-2.77-.17-5.36,1.15-7.85,2.2-4.17,6.29-6.24,10.5-9-4-1.12-7.48-2.13-11-3-2.19-.57-4.2-1.22-4.37-4-.18-2.93,1.84-4,4.06-5,5.09-2.23,10.06-.67,15.43.85-2.42-4-4.65-7.47-6.67-11.07-1.1-2-1.71-4.27.66-5.77s3.61.73,4.83,2.18c2,2.35,3.79,4.84,6.18,7.94.85-5.56,1.06-10.47,3.87-14.5,1.66-2.38,3.21-5.54,7-4.22s3.43,4.46,3.05,7.52a91.45,91.45,0,0,0-1,10.78c4.06-5.33,8.44-9.95,14.9-12,2.53-.8,5.21-2.19,7.5,0s1.27,4.92.6,7.53c-1.11,4.34-3.55,7.82-7.83,11.85,4.74,0,8.44-.18,12.1.06,2.51.17,5.13.79,5.43,4.06s-1.93,4.3-4.38,5.26c-4.2,1.65-8.78,1.28-13.7,2.37,3.67,2.06,6.86,3.77,9.95,5.62,2,1.21,3.3,2.93,2.14,5.41s-3.25,2.1-5.21,1.78a40,40,0,0,1-11.7-4.19c-1.88-1-3.74-2.33-6.08-1.33-1.93-1.13-1.3-2,.35-2.6s3.24.3,4.73,1c3.57,1.79,7.14,3.61,11.09,4.44,1.51.31,3.61,1.67,4.44-.38,1-2.36-1.63-2.95-3.12-3.7-3.41-1.71-6.95-3.17-10.43-4.74-1.33-.6-3.2-1-2.84-2.91.41-2.22,2.27-1.31,3.67-1.2a45.23,45.23,0,0,0,15.79-1.6c1.41-.4,3.08-1,3-2.84s-1.77-2.21-3.27-2.37c-7.47-.77-15-1.77-21.72,3-.71.5-1.48.71-2.15-.33.59-1.82,2.52-2,3.84-2.71,6-3.44,11.9-6.86,13.75-14.27.47-1.9,1.79-3.94-.17-5.55s-3.77-.18-5.63.5c-7.05,2.58-11.09,8.21-14.62,14.36-.8,1.39-1.32,3.51-3.49,2.69s-.74-2.52-.53-3.9c.82-5.26,1.64-10.52,2.39-15.79.18-1.31.25-2.8-1.27-3.47-1.71-.75-2.82.29-3.75,1.58a20.08,20.08,0,0,0-4.09,11.6c0,3.2.4,6.4.63,9.72-2.4-.2-2.94-2-3.86-3.22-2.26-3.1-4.42-6.26-6.65-9.37-.56-.77-1.15-2-2.27-1.42-1.53.79-.59,2,0,3,2,3.07,4.13,6,6.08,9.13.73,1.17,2.24,2.35,1.1,4-1.39,2-3,.55-4.42,0-4.14-1.63-8.32-2.42-12.65-.85-1.41.51-3,1.08-2.85,3,.13,1.71,1.68,1.84,3,2.12q6.58,1.44,13.17,2.84c1.23.26,3.05-.18,3.19,1.6s-1.71,1.75-2.9,2.15c-5.23,1.71-9.69,4.41-12.46,9.36-.81,1.44-2,3.06-.58,4.54,1.71,1.74,3.39.4,4.8-.78,3.33-2.76,6.58-5.63,9.91-8.39,1-.8,2-2.18,3.45-1.15s.66,2.4.21,3.62c-1.5,4.06-3.19,8.09-3.73,12.4-.24,1.95-1.45,4.72,1.49,5.57,2.49.71,3.24-1.85,4.2-3.5,2.46-4.25,3.06-9.12,4.35-13.76.34-1.23.53-2.93,2.29-2.78,1.48.13,1.32,1.7,1.51,2.8.47,2.61.72,5.29,1.37,7.85.76,3,1.41,8.09,4.32,7.44,3.46-.76,1-5.35.71-8.23-.22-2.09-1.38-4.13.6-6,2.28,4.21,2.08,8.87,2.4,13.42a3.37,3.37,0,0,1-2.71,3.69c-1.7.48-2.87-.41-3.84-1.66-2.78-3.58-4.21-7.67-5.24-12.38-.83,2.54-1.49,5.15-2.52,7.6-1.4,3.33-2.59,7.91-6.81,7.63-4.71-.31-4.72-4.87-4.29-10.1a317.32,317.32,0,0,1-41.57,39.78c5.66,2.49,9.15,6.73,13.62,10.87.15-5.36.76-9.9,2.86-14.11,1.37-2.75,2.6-5.72,6.46-5,4,.8,4.5,4.11,4.35,7.39-.18,4.27-.7,8.54-1.15,13.64,3.66-3.62,6.56-7,10.59-9,2.67-1.34,5.36-3.22,8.24-.67s1,5.19,0,7.79c-.46,1.22-1,2.41-1.76,4.23,7.59-1.36,13.88-4.33,20.05-8.16-1.35-1.4-2.68-.71-3.82-.52-2.14.36-4,.29-5.19-1.82s-.08-3.84,1.08-5.52c2.3-3.38,6.12-4.8,10.42-7.18A59.78,59.78,0,0,1,284.31,166c-1.59-1.06-3-2.21-2.39-4.42s2.45-2.41,4.37-2.48A59.75,59.75,0,0,1,306,161.56l.54.57.09-.45-.69,0c-.31-3.4-.74-6.8-.9-10.2-.09-1.78-.16-3.89,2.09-4.61s3.35.95,4.39,2.47c1.86,2.69,3.64,5.43,6,8.95,1.38-4.61,1.17-8.77,3.37-12.11,1.33-2,2.47-4.79,5.64-3.84,2.85.85,2.6,3.54,2.64,5.86.07,4.51-1.18,8.76-2.74,13,2.15,1.06,2.89-.92,4-1.9,2.75-2.4,5.29-5.07,9-6.07,2.3-.62,4.8-1.47,6.5.66,1.94,2.41.12,4.74-1.19,6.81a19.17,19.17,0,0,1-5.46,5.07c-1.44,1-2.8,2.13-4.62,3.52,3.91,1.29,7.4.63,10.73,1.77,2.78,1,5.23,2,5,5s-3,4.13-5.72,4.62c-3.67.67-7.18-.78-10.75-1.32-1.16-.18-2.32-.92-3.13.24s.47,2.09,1,3c1.69,3.16,5,5.55,4.46,9.74-.29,2.2-.59,4.48-3.06,5.26s-4-1-5.19-2.9c-2-3.23-4-6.48-6.46-10.54C321,187,320.7,189,320.4,191a16.45,16.45,0,0,1-1.94,6.15c-1.84,3-3.79,6.6-8,5.34-4.42-1.32-3.46-5.45-3.19-8.9.1-1.29.43-2.57.73-4.28a218.36,218.36,0,0,1-35.81,14.62c3.82,3.39,7.48,6.48,10.94,9.78,1.82,1.74,3.45,3.84,1.94,6.61-1.34,2.47-3.77,2.4-6.15,2.31-4.16-.16-7.64-2.13-11.06-4.24-.83-.5-1.63-1.56-2.62-1-1.35.74-.52,2.08-.35,3.15.44,2.79.89,5.59,1.5,8.35.46,2.06-.07,3.69-1.86,4.66s-3.45,0-4.85-1.34c-2.85-2.69-4.28-6.3-6.33-9.82-2.7,2-3.07,5.57-5.37,7.71s-4.6,5-8.16,3.2c-3.77-1.86-2.54-5.36-1.79-8.41.48-1.92,1.34-3.74,2.4-6.6a167.62,167.62,0,0,1-43.8,7.67c7.71,4.37,15.94,7.27,24.28,9.81,8.12,2.46,16.34,4.57,24.51,6.87,2.34.66,4.13,1,3.89-2.55-.21-3.2,1.62-5.36,4.73-6.21s5.57.54,7.45,2.89c2.47,3.07,3.41,6.8,4.06,10.61.21,1.25,0,3,1.86,3,1.48,0,2.21-1.29,2.52-2.7.72-3.25,1.28-6.54,3-9.48a20.82,20.82,0,0,1,6.48-6.82c2-1.33,4.05-2.41,6.46-.85s2.36,3.84,1.92,6.23c-.18.91-.52,1.8-1,3.49,21.47-4.35,42-9.18,62.16-20-5.19-.46-9-.77-12.89-1.14-2.35-.22-5-.4-5.48-3.31-.59-3.43,2.52-3.86,4.66-4.91,4-2,8.4-1.55,13.27-1.32-1.83-2.49-3.44-4.56-4.92-6.73-1.88-2.77-3.51-5.65-3.67-9.14-.27-6,3.06-8.32,8.54-5.81,3.86,1.76,6.78,4.7,9.55,8.54,1.93-4,2.73-8.14,5.51-11.26,1.7-1.91,3.43-3.27,6-2.34,2.75,1,2.74,3.37,2.74,5.79,0,2.74-1,5.21-1.7,7.77l-.3,1.2,1.12-.35a37.89,37.89,0,0,1,11.22-5.31c2.66-.73,5.39-1.17,7.07,1.79,1.53,2.67,0,4.66-1.66,6.68-3.33,4-7.91,6.24-13.58,9.42,7.73.63,14,0,20.13,1.57,2.58.67,5.11,1.28,5.12,4.42,0,3-2.61,3.44-4.87,4.09-7.32,2.11-14.48.27-22.21-1.3,2.28,4.47,5.61,7.72,6.59,12.12.82,3.64,2.94,8.15-1.16,10.48-4.39,2.5-7.17-1.69-9.88-4.59-3.24-3.46-3.73-8.41-6.44-12.4-2.51,2.23-3.21,5.24-4.76,7.72-2.06,3.3-4.4,6.27-7.91,8.11a4.59,4.59,0,0,1-5.56-.54c-1.81-1.56-1.9-3.44-.94-5.42,1.11-2.3,2.34-4.54,4.22-8.15-13.45,6.6-26.27,10.4-39.37,13.34-7,1.58-13.95,3.17-21,4.59-4.76,1-8,3.94-10.74,7.58-.6.79-1.42,1.64-.76,2.65s1.78.75,2.73.5c1.92-.52,3.83-1.1,5.71-1.75a19.68,19.68,0,0,1,13.22-.26c2.59.91,4.37,2.56,4.23,5.48s-1.86,4.87-4.67,5.82c-3,1-5.93,0-8.86-.45-1.75-.28-4-1.77-5.11-.07-1.38,2.12,1.27,3.44,2.42,4.91,2.16,2.77,4.48,5.39,4.78,9.13.19,2.42,0,4.71-2.3,6.17s-4.44.54-6.49-.78c-5.06-3.26-6-8.44-6.74-13.84-.2-1.57.92-4.4-1.65-4.37-2.17,0-1.74,2.87-2.06,4.56-.55,2.94-.78,5.94-1.25,8.89s-1.94,5-5.19,5.05-5.64-.93-7-4.32c-2.45-6.11.7-10.54,3.91-15,.63-.9,1.4-1.71,2.21-2.69-2.88-.89-4.14,3-6.83,1.82.72-2.79,3.23-3.5,5.41-4.56a2.73,2.73,0,0,1,3.54.93c1.08,1.29.53,2.35-.42,3.51-1.78,2.18-3.4,4.5-5.11,6.74a7.93,7.93,0,0,0-1,8,5,5,0,0,0,4.89,3.52c2.36,0,3.37-1.87,3.59-4.05.26-2.62,1.33-5.07,1.05-7.85-.34-3.4.44-7.15,4.51-7.36s3.2,3.77,3.52,6.4c.49,4.14.78,8.33,4.08,11.47,1.6,1.52,3.42,3.26,5.66,2,2.62-1.44,1.57-4.08,1-6.27-.88-3.18-3.54-5.17-5.47-7.64-1.25-1.59-2.45-3.31-1.26-5.43s3.37-1.8,5.34-1.51c3.11.46,6.11,1.69,9.35,1.13,2.21-.39,3.79-1.53,4-3.82s-1.62-3-3.44-3.62c-4.94-1.67-9.48-.25-14,1.6-2.8,1.14-5.89,2.48-8.06-.82-2.34-3.55.74-5.32,2.89-7.37,3.36-3.18,7.3-5.88,9.22-10.35.67-1.56,1.24-3.21-.2-4.63-1.59-1.57-3.11-.44-4.49.43-5,3.11-7.61,7.81-8.51,13.47-.49,3.12-2,4.83-5,6.11A39.16,39.16,0,0,1,254.65,256a12.41,12.41,0,0,0-9.33,5.13c-2.14,2.93-.85,6,2.74,6.5a22.72,22.72,0,0,0,3.94-.16c-1.43,4.27-4.4,2.82-6.77,1.46-4.3-2.46-4.13-6-1.36-9.64-21-5.17-39-15.73-57.05-28.39.35,5.19.79,9.41.9,13.64a568.68,568.68,0,0,1-9.1,119.78c-5.38,28.6-11.68,57-15.77,85.87-.79,5.62-5.24,2.6-7.95,2.79-3.36.23-1.53-2.51-1.25-4,6.93-36.28,16-72.16,21.66-108.66,5.32-34.23,8.5-68.71,6.67-103.45a33.52,33.52,0,0,0-.24-3.48c-.15-1-.24-2.3-.86-2.73-1.27-.87-2,.61-2.83,1.32a60.37,60.37,0,0,1-28.32,15c-3,.64-6,1.15-9.17,1.75,2.81,2.3,8.27,2.23,6.65,7.82-.79,2.71-8.09,4.18-12.25,2.63-1.85-.69-3.61-1.64-5.4-2.47-.46-.24-.85-1.14-1.41-.48-.42.5-.07,1.15.59,1.45,1.21,4.13,4,7.71,4.22,12.19.09,2,.24,4.22-2.2,5-2.28.72-3.21-1.21-4.2-2.73-1.57-2.43-3.08-4.91-5.08-8.11-.55,3.43-.87,5.84-1.33,8.22-.35,1.8-1.4,3.13-3.35,3.11-1.78,0-2.42-1.46-3-2.93a37.5,37.5,0,0,1-1.91-17.26c-4.07,2-7,5-11.07,5.5-1.78.24-3.76,1-4.82-1.25-.86-1.82.27-3.18,1.44-4.43a20.05,20.05,0,0,1,9.69-5.87c2.12-.55,2.35-1.23.91-3.37-7-10.35-17.72-14.38-28.84-18-.55,1.56.38,2.91.55,4.36.22,1.84.48,3.87-1.47,4.92s-3.42-.46-4.68-1.81c-2.93-3.15-5.56-6.6-10-9.6.7,3.66,1.23,6.63,1.85,9.58a13.5,13.5,0,0,1,.1,6.91,4.46,4.46,0,0,1-3.82,3.48c-2.48.29-3.12-1.52-3.7-3.27-1.34-4.08-2.58-8.19-4.06-12.92-3.28,3.91-5.43,8.09-9.35,10.6-1.68,1.07-3.35,2.55-5.41,1s-1.24-3.54-.51-5.45c1.32-3.41,2.62-6.83,4-10.23.82-2.06.44-3.07-2-3a24.21,24.21,0,0,1-12.44-3.13c-1.55-.87-3.49-1.58-3.38-3.89.13-2.53,2.29-3,4.09-3.81,3.79-1.65,7.87-.79,12.49-1.3-2.33-5.19-4.23-10.3-4.45-15.8-.07-1.72-.92-3.85,1.35-4.84s3.65.77,5,2.26c3.39,3.71,5.28,8.41,8.91,13.6.33-7.48,2.7-13.1,7-17.86,1.53-1.69,3-3.36,5.48-2.09,2.21,1.12,2,3.23,1.75,5.25-.58,4.77-1,9.57-3.16,15.1,5.16-2.38,9.17-5,13.92-5.47,2.11-.19,4.49-.9,5.78,1.58s-.4,4.1-1.87,5.7c-2.48,2.69-5,5.37-7.56,8-1.56,1.57-1.54,2.64.49,3.77,7.27,4.05,14.4,8.37,22.37,11,1.06.35,2.51.94,3.29.51,5.78-3.16,8.57.55,11.35,4.6.71,1,1.21,2.37,3,2.84.28-3.65.62-7.16.8-10.69a6.86,6.86,0,0,1,2.11-4.88c2.47-2.37,5-1.82,6,1.44a38.85,38.85,0,0,1,2.06,16.2c3.82-3.25,6.67-5.89,9.75-8.21,2.05-1.54,4.28-3.52,7.06-.88a3.11,3.11,0,0,0,2.33.36c9.68-1.55,19.51-2.51,28.52-6.83,1.27-.61,3.28-.76,3.07-2.74-.19-1.7-2-1.45-3.21-1.77-8.86-2.29-17.76-4.48-25.61-9.5-.28-.17-.67-.5-.88-.42-8.28,3.05-10.33-5-14.94-8.39-.21-.16-.56-.13-1.15-.25,0,3.64.19,7.23-.06,10.8-.16,2.21-.18,5.08-3.37,5.28-2.78.18-3.47-2.19-4-4.32-.92-3.51-1.72-7.05-2.76-11.32-1.9,2.71-3.22,5.15-5.08,7.07-2.18,2.26-4.87,4.7-8.22,2.07-3.07-2.41-1.68-5.37-.12-8.07,1.22-2.12,2.55-4.18,4.12-6.74-3.86.22-7,.51-10.09.52-1.68,0-3.39-.48-3.9-2.47s.57-3.13,1.89-4.28c2.63-2.28,5.86-3.6,9.39-5.49a65.65,65.65,0,0,1-5.87-4.43c-2-1.88-4.63-3.66-3.22-7.1.6-1.47-.35-2.07-1.24-2.87-2.35-2.11-4.69-4.24-6.93-6.47-1-1-2.18-1.8-3.52-1.28-1.77.7-.77,2.13-.51,3.33a9.93,9.93,0,0,1,.26,1.95c0,1.67.23,3.56-1.87,4.14-1.83.5-2.67-1.07-3.4-2.34-1.67-2.88-3.18-5.84-4.8-8.75-.46-.82-.79-2-2.06-1.82s-1.37,1.25-1.58,2.25c-.64,3.09-1.21,6.21-2,9.26-.6,2.27-1.42,4.75-4.41,4.57-2.59-.16-3.49-2.27-4-4.51-.62-2.93-1.17-5.87-1.85-9.27C58,164.4,56,167.7,52.32,169.11c-1.78.68-3.51,1.27-5.11-.28s-1.42-3.24-.85-5.1c1-3.27,3.48-5.63,5.47-8.93-4.81.85-9.25,1.92-13.75.7-2-.53-3.86-1.07-4.32-3.52-.51-2.69,1.18-4,3.1-5.12,4-2.37,8.45-2.81,13.58-3.28-3.71-3.3-7.8-5.33-10.32-9.08-1.2-1.79-3.14-3.39-1.24-5.69s4.25-1.84,6.39-.74c4.69,2.43,9.24,5.1,14.06,7.78-.1-5.34-4.3-9.35-3.51-14.56,4.18,4,4.07,9.83,6.32,14.65.52,1.12.72,2.35-.31,3.22-1.42,1.2-2.41-.17-3.48-.85-4.61-3-9-6.29-14.21-8.27-1.06-.4-2.32-1-3.13.25-.62,1,.28,1.83.81,2.67,3.1,4.93,8,7.33,13.08,9.54,2.12.93,4.71,1.23,6.89,4.47-3.45-.37-5.83-.69-8.22-.87-5.2-.38-10.32-.13-15,2.44-1.15.63-2.69,1.15-2.47,2.76.24,1.83,1.93,2,3.43,2.28,4.4.71,8.58-.12,12.74-1.53,1.79-.6,3.47-2.12,5.67-1.19,0,2.42-2.06,3.32-3.33,4.72-2.11,2.35-4.41,4.55-5.59,7.57-.47,1.19-1.48,2.44-.33,3.7,1.44,1.56,2.79.19,4-.42,4.22-2.06,5.73-6.29,7.86-10,.53-.93.71-2.53,2.36-1.81,1.2.53.66,1.66.5,2.63-.62,3.86.25,7.63.95,11.38.28,1.51.23,3.79,2.34,3.94,2.33.17,2.06-2.18,2.46-3.67.78-2.89,1.4-5.82,2.17-8.71.47-1.81,1.14-3.66,3.38-3.78,2-.12,2.63,1.69,3.53,3.08,1.89,2.92,2.47,6.71,6.25,9.48-.61-8.68-2.52-15.83-9.43-21.4,2,.09,3.61.17,5.21.23A21.35,21.35,0,0,0,95,142.66c.9-.74,2-1.49,1.58-2.84s-1.79-1.27-2.93-1.42c-6.05-.76-11.49,1-16.76,3.81-1.11.59-2.17,2.3-4.14.64,5.22-6,7.28-13.33,9.21-20.73.42-1.58,1.05-3.47-.95-4.39-1.71-.79-2.73.71-3.72,1.8-3.21,3.53-5,7.79-6.41,12.28-.61,1.93,0,5.31-2.58,5.36-3.15.07-2.21-3.59-2.87-5.57-1.78-5.38-3.18-10.88-6.15-15.76-.72-1.18-1.07-3.58-2.74-3-2.22.71-.23,2.83-.48,4.3a19.68,19.68,0,0,0-.12,2.43c-3.48-1.93-3.18-5.57-2.33-8.16,1-3.23,3.73-2,5.41.08,2.77,3.39,4.4,7.42,5.86,11.5,1.05,3,2,5.94,3.45,10.26a35.74,35.74,0,0,1,7.07-15c1.81-2.23,3.83-3.91,6.83-2.5,3.16,1.48,2.8,4.17,1.92,6.87-1.63,5-3.3,10.07-5,15.14,1.59,1.35,2.82-.25,4.09-.59a25.27,25.27,0,0,1,11.84-.68c1.65.34,3.34.67,3.84,2.65.45,1.83-.34,3.19-1.65,4.41a25,25,0,0,1-9.88,5.66c-2.3.71-3.23,1.33-1.43,3.58,4.14,5.2,8,10.58,12.63,15.44,4.4,4.66,10.56,5.31,16.49,8.31-1-3-1.8-5.4-2.58-7.85-.41-1.26-1.32-2.69-1-3.8,1.08-4.3.86-7.73-2.92-11-2-1.73.43-4.57,3.64-4.39,2,.12,3.64,1.66,6.66,1C107.4,127.78,108.24,103,106.71,78.61l-1.63,0c-1.47,1.94-2.86,3.95-4.43,5.81-2,2.36-4.43,3.72-7.44,2-2.75-1.63-2.06-4.18-1.39-6.68A31.41,31.41,0,0,1,97.67,68.8c1.78-2.33,1.17-3-1.53-3.18C88.35,65,83.24,60,78.49,54.51c-1.15-1.33-1.89-2.8-.8-4.54s2.84-2,4.8-1.72c4.87.8,8.83,3.75,13.31,5.48l.86.46-.19-1.09c-2.18-4.86-4.29-9.71-3.82-15.25.19-2.13.63-4,2.86-4.77,2.43-.84,3.59,1,4.83,2.55,3.17,3.95,3.87,9.06,6.31,13.68,1.32-5.08,1.91-10.13,4.82-14.32,1.46-2.11,2.81-5.07,6-4.2,3.07.83,3.4,3.86,3.45,6.53.06,3-.26,5.93-.42,8.9-.09.59-.46,1.52-.23,1.7.7.57.88-.36,1.24-.74,3.08-2.51,5.88-5.38,9.75-6.83,1.57-.59,2.89-1,4,.51s.54,2.92-.52,4.08c-2.65,2.91-5.4,5.72-8.66,9.16a63.35,63.35,0,0,1,6.91.55c3,.59,7.55.66,7.26,4.51-.3,4.14-4.88,3.66-8.13,3.71a41.42,41.42,0,0,1-5.92-.79c-1.61-.23-3.21-.44-5.45-.74,3.54,4.76,6.78,8.92,9.77,13.25,1.26,1.82,3.19,4.11,1,6.26-2.38,2.31-4.73.38-6.63-1.16-2.58-2.08-4.92-4.45-8.16-7.44,0,3.09.07,5.6,0,8.1-.11,3.22-.48,6.38-3.6,8.3-1.58,1-1.33,2.54-1.39,4a136.22,136.22,0,0,0,10.89,59.24c.32.76.83,1.43,1.13,2.2s.73,1.72,1.67,1.22a1.62,1.62,0,0,0,.44-2.23,56,56,0,0,1-4.31-9.21c-.58-1.68-1.3-3.06.2-4.44s3-.87,4.64-.22c5.91,2.27,8.65,7.45,11.79,12.58a46.1,46.1,0,0,1,3.89-16.22c.65-1.35,1.12-2.88,3-3,2.13-.12,2.72,1.52,3.43,3.06,2.55,5.57,2.66,11.52,2.46,18.19,3.54-2.29,6-5.05,9.4-6.38,1.26-.5,2.47-1.08,3.7.06s.44,2.38,0,3.64c-1.8,5.74-5.92,9.43-11.71,12.72,6,1.76,11.42,2.88,17,6.31-2.45-18.37-3.23-35.86-.41-53.41-8,.68-8,.68-8.41-13.18-3.27,2.57-6.25,5.22-10.22,6.23-1.71.44-3.29.82-4.61-.65s-1-3.11-.33-4.69a35.69,35.69,0,0,1,8.17-11.63c-3.77-1.89-7.76-2.66-10.82-5.24-1.4-1.18-3.29-2.16-2.53-4.38.7-2,2.75-2.55,4.55-2.41,4.55.38,9.07,1.09,14.73,1.81-5.61-4.8-10.43-8.92-13-14.84-1-2.18-3-4.65,0-6.65,2.71-1.83,4.63.22,6.39,2.09L162,73c.35-6.54.59-12.36,3.07-17.7.89-1.9,1.76-4.26,4.57-3.82,2.59.41,2.59,2.84,3,4.69,1,4.85,1.73,9.75,2.65,15.11,4.3-3,5.3-8.78,10.61-9.78-3.06,5.87-9.11,9.57-11.74,15.92-1.42-7.87-2.85-15.75-4.48-24.76-7.24,9.16-4.33,18.45-4.19,27.45-4.84-4.82-9-9.75-13.29-14.57-1.08-1.21-2.14-3.76-4.21-2.16-1.7,1.31.22,3,.88,4.41,2.46,5.09,6.66,8.63,10.89,12.18,1.27,1.07,3.68,2,2.56,4.22-1,2-3,.77-4.52.54-3.79-.56-7.57-1.16-11.36-1.74-1.32-.2-2.92-.59-3.45,1-.45,1.38,1.11,1.88,2,2.48a21,21,0,0,0,17.15,3.2c1.16-.28,3.17-2.09,3.68.33.36,1.73-1.91,1.39-3.05,1.61-7.2,1.4-11.72,6-14.75,12.29-.52,1.09-1.76,2.36-.33,3.57,1,.86,2.22.22,3.32-.14,4.15-1.37,6.83-4.61,9.73-7.6.95-1,1.86-3,3.54-2,1.4.87,0,2.42-.31,3.62a35.61,35.61,0,0,0-1.31,10.37c0,1.35,0,2.92,1.49,3.4,1.85.59,2.64-1,3.34-2.3,2-3.77,2.15-8,2.91-12.07.23-1.24.31-2.93,1.92-3.19s2,1.4,2.67,2.51c1.79,3.19,3.09,6.71,5.77,9.29,1.19,1.15,2.38,3.51,4.46,1.94,1.81-1.37.13-3.06-.58-4.44-1.14-2.21-2.52-4.31-3.74-6.48-.65-1.16-1.35-2.38-.18-3.66.94-1,2.05-.79,3.22-.49,2.75.69,5.49,1.45,8.28,1.91,1.71.27,4,.88,4.84-1.31.75-2-1-3.35-2.26-4.63a7.5,7.5,0,0,0-5-1.88c-2.82-.2-5.64-.42-8.46-.7-.91-.09-2.24.43-2.55-.87-.37-1.58,1.11-1.8,2.14-2.24,4.75-2,9.52-4,14.25-6,1-.44,2.38-.92,1.81-2.46-.43-1.21-1.66-.83-2.6-.84-4.46,0-8.4,1.8-12.41,3.45-1.5.61-2.9,2.24-5.33.84,4.65-4.62,9.25-8.89,11.62-14.91,1.14-2.88.66-4.42-2.37-5.06.44-2.45,2-2,3.48-1.22,2,1,2.23,2.88,1.72,4.74-1.11,4.06-3.79,7.36-5.9,11.41,3.09-.54,5.89-1.25,8.72-1.48,2.19-.18,5-.86,5.91,2.2s-1.67,4.22-3.62,5.28c-3.17,1.73-6.56,3-10.17,4.67,3.75,1.47,7.69,1,10.55,3.73,2.14,2.06,4,4.18,2.6,7.38-1.35,3-4.12,2.41-6.53,2.08-3.09-.41-6.13-1.18-10-2,1.81,3.45,3.46,6.22,4.74,9.15,1,2.16,1.52,4.66-1,6.25-2.29,1.43-4.08-.18-5.81-1.49-2.58-1.94-3.75-5-6.32-8.11-1.48,7.49-3.34,14.32-4,21.26s-.18,14-.27,20.93c0,2.34,0,4,3.18,2.63s6.8-.51,11.11-.44c-2.92-4-5.73-7-7.79-10.54a10.45,10.45,0,0,1-1.57-5c-.15-4.5,1.86-5.88,5.85-3.88a34.07,34.07,0,0,1,8.37,6.25c1.26,1.24,2.56,2.44,4.27,4.07,1-4,1.73-7.29,2.69-10.56.75-2.59,1.7-5.21,5-5.41s3.54,2.87,4.56,5c5.29-6.46,12-55.2,11.94-69.59-2.29,1.09-4.05,4-7.08,2.21s-2.76-4.83-2.74-7.59c0-3.14.53-6.28.83-9.41,0-.43-.09-.86-.14-1.29l-.81.46c-3.81,1.65-7.55,3.49-11.44,4.89-2.27.82-5.25,1.85-7-.37s-.1-4.86,1.29-6.9a48.22,48.22,0,0,1,5.67-6.92c2.11-2.09,4.6-3.8,7.21-5.91-2.87-2.42-6.41-4.13-8.22-7.57-1.26-2.4-2.57-5-.22-7.36,2.55-2.52,4.85-.64,7,1,2.45,1.89,4.94,3.74,8.22,6.21-.38-5-.43-9.13,1.64-12.85,1-1.77,1.92-3.65,4.34-3.57s3.78,1.82,4.69,3.9c2,4.64,2.18,9.7,3.42,15.09,3.57-3.52,6.15-7.68,10.27-10.18,1.82-1.1,3.63-2.76,5.89-1.14s1.15,3.92.41,5.89c-1.21,3.23-2.61,6.38-4.05,9.85,3.49.46,6.59.83,9.67,1.3,2.43.38,4.69,1.3,5,4.09s-1.89,3.47-4.09,4.12c-4.31,1.27-8.48,3.09-13,3.47-3,.26-2.72,1.5-1.63,3.51q2.37,4.38,4.56,8.87c.91,1.86.69,3.72-1.19,4.79-1.69,1-3.22.11-4.36-1.3-2-2.46-3.9-5-5.9-7.43-.7-.87-1.2-2.39-2.54-2.09-1.77.41-1.1,2.19-1.22,3.38-1.62,16.39-3.09,32.8-4.79,49.19A121.56,121.56,0,0,1,206.43,138l-1.13,1.26c.79.51,1.41.43,1.82-.49,2.83-1.67,5.56-3.58,9-4,1.63-.19,3.33-.55,4.45,1.21s.14,3.22-.73,4.59c-2.37,3.75-5.64,6.74-9.33,10.17,6.88,1.69,14.72.57,17.52,8.84-1,0-1.14.93-1.66,1.46-4.2,2-8.63,1.41-13.28.82,1.44,3.57,3.44,6.55,3.39,10.18,0,1.8.22,3.91-1.84,4.75s-3.25-.85-4.42-2.29c-2-2.45-3.51-5.36-6.71-7.84-1.54,13.83-5.66,26-10.54,38-.37.92-1.14,1.78.2,2.44s1.63-.69,2.21-1.34c2.23-2.44,4.37-5,6.58-7.41,10.05-11.1,19.36-22.69,25.1-36.73C228,161.22,228,160.4,227.89,159.52Zm-73.43,28.37-1.24-.13c.12.39.25.78.38,1.16,5.57,9.38,13.31,17,20.65,24.87.66.71,1.44,1.76,2.46,1.05a4.85,4.85,0,0,0,1.43-2.48,3.36,3.36,0,0,0-.31-1.93c-3.84-9.83-5.32-20.2-7.11-30.51-.33-1.91-.09-5.56-2.75-5-4.29.92-8.88-.81-12.88,1.67-2.45.77-4-.91-3.89-2.65.18-2,2.39-.86,3.77-.81,3.89.17,7.84,1,12.05-1-4.05-3.8-8.93-4.25-13.49-5.44-1.56-.41-3.68,0-4-2.23s1.76-2.54,3.16-3.37c4.32-2.55,8.19-5.46,9-11.33-5.79,1.36-8.35,6.88-13.22,8.83-1-1.54-.48-2.85-.2-4.1a27.86,27.86,0,0,0-.87-15.25c-.43-1.28-.17-3.53-2.11-3.41-1.61.09-1.81,2.13-2.35,3.5A30.17,30.17,0,0,0,140.85,151c0,1.84,1.08,4.47-1.67,5-2.29.49-2.68-2.06-3.53-3.56-2-3.62-3.63-7.55-7.37-9.88-1.14-.7-2.49-1.72-3.67-.92-1.52,1-.17,2.44.33,3.55,1.85,4.09,3.83,8.12,5.75,12.19.51,1.08.87,2.22-.18,3.21s-2.2.34-3.15-.3c-1.79-1.21-3.55-2.47-5.25-3.81-2.63-2.09-5.33-4-8.73-4.62-.92-.16-2.07-.62-2.54.69-.32.9.35,1.52,1,2.06,2.84,2.32,6,4.37,8.36,7.08,1.26,1.43,7.9,2.37,1.68,6.19-.32.2-.07,1.58.15,2.34.61,2,1.36,4,2.29,6.76,2.38-4.58,4.44-8.65,8.34-11.15,1.89-1.22,3.86-3.07,6.35-1.48,2.9,1.87,1.47,4.48.71,6.74-1.48,4.42-3.21,8.75-5,13.42,2.81-.5,4.45-1.56,5-3.73,1.11-4.37,3.36-3.6,6.18-1.62,3.27,2.28,6.66,4.4,10,6.55,1.09.71,2.43,1.77,3.59.7,1.47-1.34,0-2.66-.59-4-1-2.26-4.48-2.78-4-6,2.12.4,3.34,2.06,4.61,3.52,1.85,2.1,4.11,4.45,2.32,7.44C159.89,190.9,157,188.54,154.46,187.89Zm199.77,24.66c-2.16,1.09-3.29-.33-4.59-.79-4.89-1.76-9.52-.81-14.07,1.12-1.05.45-2.38,1-2.18,2.38s1.61,1.49,2.78,1.55q7,.36,14,.67c1.63.08,3.57-.39,4.41,1.51s-.75,3.12-1.72,4.4c-2.21,2.91-4.6,5.7-6.78,8.64-1.24,1.68-3.07,3.64-.71,5.63s4.06-.36,5.56-1.64c3.76-3.22,5.64-7.76,7.8-12.07.73-1.44,1-3.45,3.15-3.29s2.37,2.14,2.9,3.65c1.74,5.08,3.62,10.05,7.89,13.66,1.3,1.1,2.7,2.26,4.44,1.17,1.51-.94,1.15-2.62,1-4.11-.62-5.72-3.92-10.14-7.07-14.66-.85-1.21-2.93-2.43-1.37-4.24,1.17-1.37,2.79-.23,4.2.15,6.62,1.78,13.26,3.3,20.16,1.5,1.44-.37,3.3-.3,3.22-2.35s-2-2-3.39-2.24a62.13,62.13,0,0,0-19.57-.93c-1.59.19-3.66.75-4.15-1.52s1.77-2.5,3.16-3.17c5-2.36,10-4.68,13.44-9.23.81-1.06,1.84-2.1,1.08-3.56-.91-1.73-2.56-1.33-4-1a31.5,31.5,0,0,0-15.32,8.93c-.8.8-1.71,2.14-2.9,1.35-1.49-1-.39-2.4.21-3.53,2.11-4,4.45-7.84,4.34-12.58,0-1.36-.07-2.77-1.69-3.22-1.33-.37-2.22.55-3,1.45a19.64,19.64,0,0,0-4.29,17.29c.24,1.13,1.69,2.84-.26,3.36-1.76.47-1.66-1.63-2.06-2.78-2.09-6-5-11.28-11-14.22-1.48-.72-3-1.7-4.62-.31s-1.42,2.93-1.14,4.6c.68,4.1,3,7.33,5.57,10.46C349.79,207.22,352,209.81,354.23,212.55ZM254.75,200c-2.09.53-2.49-.62-3.15-1.27-4.26-4.19-7.6-9.32-12.73-12.62-1.25-.81-2.53-1.92-4-.63s-.71,2.63-.14,4.07c1.91,4.83,5.69,7.95,9.68,10.92,1.42,1.06,3.52,1.89,3.13,4.09-.43,2.51-2.82,1.79-4.5,2.11-5.3,1-10.77,1.56-16.09,6,9.24,2,16.79.66,23.83-4.63.34,2.91-1.44,3.35-2.45,4.27a28.78,28.78,0,0,0-8.46,14.44c-.42,1.66-.89,3.38.92,4.48s3.12-.21,4.37-1.31c3.11-2.75,4.53-6.51,6.15-10.17.51-1.16.75-3,2.33-2.92,1.87,0,1.41,2,1.68,3.15a20.83,20.83,0,0,0,5.46,10c.77.79,1.64,2,2.93,1.29,1-.56.63-1.8.46-2.75-.49-2.79-1-5.57-1.63-8.33-.42-1.92-.37-3.78,1.33-5s3.1.13,4.49,1c3.52,2.3,7.18,4.32,11.53,4.34,3.15,0,4.8-1.68,2.51-4.31-4.47-5.15-8.51-11.48-18.35-9.54,3.14-2.07,5.22-3.36,7.2-4.79,3.83-2.75,7.32-5.82,8.76-10.56.42-1.38,1.37-2.87-.13-4.15s-2.78-.42-4.17.2c-4.39,2-7.57,5.33-10.69,8.83-1.21,1.37-2,4.26-4.45,3.05s-.54-3.63-.42-5.48c.28-4.45,2.35-8.73,1.16-13.31-.39-1.53,0-3.57-2.26-4-2.44-.42-3,1.63-3.85,3.2C251.53,186.22,252,193,254.75,200Zm57.83-30.41c-6.86-7.7-15.73-8.47-24.92-8.22-1.1,0-2.65-.45-3.13.81-.67,1.71,1.21,2.16,2.18,2.81,6.3,4.28,13.07,7.28,20.86,7.41,1.05,0,2.37-.48,3.27,1.68-1.84.62-3.63,1.23-5.41,1.85-3.78,1.3-7.64,2.5-10.57,5.41-1.16,1.15-2.74,2.37-2,4.23.89,2.2,2.95,1.14,4.4.89,5.51-1,10.55-3,14.31-7.45.69-.83,1.43-2.22,2.77-1.18,1,.8,0,1.82-.31,2.68-1.7,5-4.25,9.8-4.88,15.16-.21,1.84-.28,3.86,1.88,4.67s3.36-.76,4.4-2.35c2.35-3.62,2.89-7.71,3.34-11.88.24-2.17-1.12-5.64,1.47-6.25,3.05-.71,3.11,3.26,4.42,5.16,1.79,2.59,3.09,5.51,4.69,8.24.66,1.1,1.4,2.57,3,2s1.87-2.21,1.7-3.76c-.3-2.62-2.17-4.43-3.4-6.58s-4.15-4.24-2-7.05c2.05-2.65,5-1.15,7.38-.2,3.13,1.28,6.17.62,9.24.34,1.19-.11,2.57-.5,2.6-2.39s-1.44-2.13-2.54-2.55a11.46,11.46,0,0,0-3.91-.65c-4.39-.07-8.79,0-13.19,0,4.1-4.4,8.48-7.56,12.75-10.87,1.8-1.39,4.42-3.17,2.75-5.63-2-2.9-4.4-.4-6.46.75-4.64,2.57-7.79,6.66-10.95,10.77-1,1.31-1.64,4.13-3.82,3-1.76-.92-.06-3,.39-4.49,1.62-5.26,3.32-10.5,3.92-16,.19-1.76,1.36-4.52-1.35-5.07-2.54-.51-2.89,2.34-3.56,4.09A36.51,36.51,0,0,0,320,161.15c0,1.64.67,3.6-1.36,5.25-1.8-4.19-3.43-8.19-6-11.63-1.33-1.77-2.29-5.6-4.32-4.66-2.62,1.2-1,4.73-.55,7.27C308.51,161.64,311.56,164.94,312.58,169.54ZM229.77,33.08c-.24-2,.71-2.51,1.36-3.2a30.84,30.84,0,0,0,7.43-12.29c.38-1.24,1.11-2.85-.05-3.75s-2.45.42-3.45,1.19c-4.56,3.51-8.36,7.63-10.22,13.24-.35,1.06-.59,2.53-2.2,2.05-1.26-.38-.77-1.66-.76-2.58a59.92,59.92,0,0,0-2.66-18.23c-.45-1.49-1-3-2.8-3.1-2.13-.16-2.73,1.5-3.32,3.11-1.73,4.64-1.22,9.13.7,13.61.47,1.11,2,2.56.61,3.57-1.72,1.26-2.5-1-3.5-1.83-2.51-2.18-4.72-4.73-7.35-6.75-2-1.55-4.22-5.77-6.81-3-2.76,3,1.09,5.73,3.29,7.65s5.1,3.09,7.69,4.59c.74.43,1.51,1,1.36,1.9s-1.12,1.07-2,1.11c-8.08.41-11.45,6.56-15.08,12.38-.6,1-1.68,2.05-.94,3.16.88,1.35,2.45.65,3.67.37,5.13-1.15,9.41-4.14,13.94-6.59.95-.51,2-1.61,3.16-.6s.37,2.16-.08,3.24A24.58,24.58,0,0,0,210,55.58c.22,1.53.5,3.16,2.13,3.63,1.48.42,2.39-.93,3.25-1.91a25.64,25.64,0,0,0,4.46-8.3c1-2.73-1.37-7.5,1.37-7.89s4.29,4.46,6.55,6.83,3.42,5.83,7.5,7.11c-.81-4.8-3.65-8-5.22-11.79-1.23-3-.93-4.73,2.84-5,4.52-.27,8.75-2,13-3.27,1.16-.35,3-.31,2.91-2.13-.06-1.64-1.66-1.87-2.92-2.25A17.86,17.86,0,0,0,229.77,33.08ZM51.57,214c-3.1,1.26-4.68-.12-6.38-.55a29.69,29.69,0,0,0-15.79.32c-1.54.45-3.37,1.73-1,2.85,4.46,2.12,8.69,5.76,14.34,3.79a3.46,3.46,0,0,1,3.74.6c1,1.09-.15,2.18-.57,3.2-1.58,3.85-3.26,7.65-4.8,11.52-.34.84-1.09,1.93-.19,2.76,1.12,1,2.15.11,3.07-.57,4-2.95,6.5-7,8.29-11.62.33-.85.5-2.15,1.82-2s1.38,1.3,1.65,2.22c1.23,4.15,2.32,8.34,3.65,12.46.46,1.42.21,4,2.47,3.67,2.62-.43,2.27-3,1.91-4.93-.68-3.59-1.71-7.12-2.42-10.71-.34-1.7-1.74-4,.09-5.07,2.23-1.3,3.39,1.42,4.74,2.67,2.58,2.36,4.86,5,7.41,7.43,1,.92,1.82,3.19,3.33,2.27,2-1.21.78-3.34,0-4.93-2.63-5.32-6.3-9.4-13-9.9,6.86-2.55,11-7.8,15.33-12.85.8-.94,2.4-1.82,1.44-3.33-.84-1.34-2.45-.82-3.7-.59A25.57,25.57,0,0,0,62,211.06c-.72.83-1.53,2.36-2.75,1.63-1.6-1-.27-2.37.27-3.44A45.6,45.6,0,0,0,64.21,191c.06-1.1.59-2.48-.76-3.11s-2.13.76-2.84,1.51c-4.61,4.86-6.34,10.81-6.22,17.38,0,1.35.21,3-1.32,3.44-1.83.58-2-1.3-2.57-2.38-2-3.62-3.88-7.37-6.15-10.85-1.15-1.76-2.13-5.28-4.65-4.06-1.86.9-.81,4.27-.21,6.47C41.21,205.73,44.93,210.6,51.57,214Zm143.76-67.3a42.27,42.27,0,0,0-13.69-14.51c-1.23-.78-2.48-2.39-3.94-1.31-1.68,1.25-.54,3,.07,4.53,2,4.93,5.48,8.67,9.27,12.23,1.14,1.07,3.57,2,2.69,3.7-1.07,2-3.29.26-4.86-.11a27.06,27.06,0,0,0-8.91-.63c-1.27.13-3,.07-3.2,1.71-.25,1.93,1.56,2.38,3,2.77,3.59,1,7.26.65,10.92.41.93-.06,2.13-.58,2.72.52.82,1.52-.76,2-1.56,2.65a38.41,38.41,0,0,0-7.53,8c-1.11,1.55-2.93,3.31-.71,5.18,2,1.69,3.85.23,5.29-1.11s2.76-3.3,4.18-4.91c1-1.14,1.15-3.25,3.76-3.14.52,4.87-1.83,9.66-.55,15,4.84-3,6.07-7.54,7.18-12.2.32-1.36.13-3.26,2-3.7s2.44,1.36,3.41,2.41c3,3.21,4.84,7.4,9.27,10.51.58-8.71-3.75-13.68-10.46-17.34,2-1.09,2.9-.1,4,.19,4.31,1.15,8.44,3.29,13.07,2.81,1.52-.16,3.84,0,4.12-2,.22-1.59-1.83-2.12-3.13-2.77C218,153.72,214,153.5,210,153.34c-1.35-.06-2.82-.23-3.18-1.84-.31-1.41,1-2,1.95-2.59a33.08,33.08,0,0,0,8.09-8c.66-.92,1.68-2,.83-3.11s-2.18-.46-3.28-.23c-4,.88-6.38,3.94-8.81,6.93-1.16,1.42-1.54,3.83-4.19,3.77-.77-2.13.41-4,.79-5.83a46.82,46.82,0,0,0,.92-13.4c-.1-1.31-.12-2.88-1.78-3.17s-2.39,1-2.81,2.3q-1.15,3.57-2.11,7.18C195.45,139,196.37,142.77,195.33,146.69ZM130.52,79.76c-2.36-6.27-6.07-10.27-9.71-14.31-1.75-2-4.26-3.6-1.57-6.69.81-.93.58-2.6-.95-2.49-3.18.22-2.17-1.44-1.74-3.07,1.4-5.32,2.61-10.68,2.33-16.24-.08-1.51-.14-3.17-2-3.61s-2.62,1-3.4,2.34c-3,5-4.1,10.49-4.5,16.21-.1,1.54.58,3.94-1.6,4.1-2,.14-2-2.3-2.47-3.82a80.24,80.24,0,0,0-5.14-13.52c-.75-1.42-1.3-3.48-3.42-3-2.33.47-1.54,2.62-1.55,4.16,0,5.57,2.57,10.23,5.26,14.86.7,1.21,2.22,2.65.72,4-1.21,1-2.47-.41-3.54-1.07-4.55-2.79-9-5.68-14.31-6.92-1.08-.26-2.42-.64-3,.8-.48,1.08.31,1.86,1,2.61C85.3,59,90.2,63,97.21,63.65c5,.48,5.55,1.84,2.56,5.92C97.29,73,95,76.36,93.84,80.47c-.39,1.46-.93,3,.83,3.94,1.52.78,2.92.2,4.07-1,2.29-2.28,3.6-5.16,5-8,1.23-2.56.79-5.75,3.67-9.37-.09,6.65.1,11.86,1.4,16.92.42,1.64.61,3.59,2.81,3.48,2.44-.12,2.69-2.18,2.68-4.06,0-3.5-.25-7-.29-10.49,0-1.41-.62-3.31,1.23-3.94s2.47,1.31,3.41,2.36C121.77,73.91,124.5,78,130.52,79.76ZM115.67,185.34c-5.76.9-10.78,2.65-15.18,6-.79.61-1.75,1.21-1.38,2.38s1.54,1.16,2.5,1.2c3.54.13,6.92-.84,10.31-1.7,1-.24,2-.71,2.72.32s-.18,1.9-.71,2.67c-2,2.89-4.06,5.7-6,8.61-1,1.55-2,3.35.2,4.74,2,1.25,3.62.12,4.73-1.41,1.65-2.29,2.9-4.87,4.56-7.15,1-1.36,1.39-4,3.65-3.39,1.81.52,1.13,2.86,1.36,4.43.67,4.63.72,9.45,4.15,14.22,2.33-5.9,1.36-10.93.59-16-.22-1.5-1.24-3.59.88-4.43,1.84-.73,2.36,1.38,3.33,2.39,3.34,3.48,5.88,7.78,10.48,11,.82-5.79-2-9-5-12.22-1.3-1.41-3.88-2.38-3.32-4.59.65-2.51,3.62-1.83,5.53-2.61,2.27-.92,5.25-.18,7-2.89-5.92-3.89-11.11.38-17.66,1.54,5.35-5.83,7.55-11.9,9.37-18.13.35-1.2,1.29-2.68-.08-3.69s-2.81.11-4,.94c-3.44,2.35-5.27,5.89-7.11,9.47-.87,1.68-.79,4.82-3.06,4.62-2.58-.22-1.34-3.26-1.8-5-1.42-5.39-2.52-10.88-7.26-14.9-1.36,2.32-.67,4.25,0,6.06,1.19,3.28,2.58,6.49,3.92,9.72.38.93,1,1.94.06,2.74s-1.83-.07-2.64-.59c-3.8-2.43-7.71-4.63-12.24-5.41-.91-.16-2-.92-2.6.41-.55,1.13.22,1.86.89,2.62a21.33,21.33,0,0,0,6.76,5C110.92,183.48,113.32,184.35,115.67,185.34Zm116.14,31.11c-3.07-1.37-6.24-.75-6.52-3.87s2.76-3.8,4.88-4.87c4.28-2.16,9.13-2.48,13.69-3.6-.06-2.23-1.69-2.8-2.83-3.53a18.9,18.9,0,0,1-8.17-10.28c-1.16-3.61-2.55-2.81-4.78-1-9.82,7.94-19.79,15.69-30.78,22a7.39,7.39,0,0,0-3.89,7c0,1.76.79,2.92,2.63,2.94C207.81,221.37,219.5,220.91,231.81,216.45Zm-42.13-47c-1.79,1.46-3,2.55-4.34,3.5-2.48,1.78-5.2,2.69-7.71.3-2.77-2.63-1.06-5.16.71-7.49s3.76-4.77,6.13-7.76c-5.16-.22-9.48-.27-13.6-2.57-.92,5.19.36,9.87,1.07,14.58,1.78,11.82,2.7,23.84,7.46,35,.67,1.56.53,4.24,3.62,3.82,2.78-.38,5.57-.2,6.81-3.72,3-8.61,6.59-17.05,8.75-26,.33-1.36.91-2.77-.18-4.39l-3,3.4c-1.12,1.29-2.35,2.54-4.24,1.74-1.73-.72-1.49-2.42-1.51-3.9C189.66,174.09,189.68,172.12,189.68,169.48Zm-73,77.6a66.55,66.55,0,0,0-9.79-13.31c-1.12-1.2-2.34-2.79-4.19-1.44-2.18,1.59-.68,3.27.37,4.72,2,2.83,4,5.73,7,7.7,1.35.88,3.12,1.7,2.54,3.81-.46,1.71-2.1,1.9-3.55,2.32-4.31,1.26-8.49,2.74-10.83,7.22,2.56,1.22,4.48,0,6.29-1,2.17-1.23,4.12-2.81,6.21-4.17,1.06-.68,2.08-2.1,3.51-1.1s.34,2.42.2,3.67a51.79,51.79,0,0,0-.53,5.94,21.61,21.61,0,0,0,3.32,12.22c2.18-5.6,1.27-10.31,1.74-14.89.14-1.37-.7-3.61,1.25-3.78s1.58,2.18,2,3.51c1.73,5.12,3.45,10.24,8.46,14.55.47-6.51-2.55-10.92-5-15.5-.71-1.33-1.82-2.68-.48-4.06s2.8-.28,4,.47c3.92,2.35,7.93,4.28,12.69,3.53,1.3-.2,2.8-.31,3.11-2,.34-1.88-.95-2.7-2.49-3.15-4-1.15-8-2.24-12-3.39-1.25-.35-3-.39-3.21-1.91s1.42-2.1,2.55-2.72c3.87-2.11,7.29-4.66,9.11-8.87.38-.86,1.27-1.79.15-2.63s-1.9,0-2.63.67c-2.84,2.56-5.64,5.17-8.47,7.74-.95.86-1.73,2.38-3.26,1.86-1.73-.59-1.51-2.37-1.67-3.82-.47-4.13-.89-8.27-1.39-12.4-.14-1.18-.52-2.4-2-2.49a2.5,2.5,0,0,0-2.71,2.38,34.21,34.21,0,0,0-.41,5C116.61,236.37,116.64,241,116.64,247.08Zm84-14.33a149.23,149.23,0,0,0,26.18,18.19c11.29,6.28,22.42,6.33,35.62.3C240.73,245.9,220.1,241.28,200.67,232.75ZM172,216.5a96.17,96.17,0,0,1-21.69-25.85c-.72-1.21-1.5-1.69-2.81-1-2.68,1.49-5.7,1.71-8.61,2.39-1,.22-3.13.83-1.66,2,4,3.1,4.66,8.7,8.39,11.51C153.3,211.37,162.4,214.46,172,216.5Zm2.27,12.55c-2.61-.94-4.16.41-5.79,1-6,2.12-12.12,4.66-18.32,4.2-8.89-.66-11.35,6.08-16.49,11.42C149.93,245.39,162.5,238.88,174.22,229.05Zm81.52,6.72A4.14,4.14,0,0,0,252.1,238a5,5,0,0,0,.39,5.22c1.19,1.87,3.2,2.89,5.11,3.85s3.91,3.42,5.53,2c1.44-1.26-.16-4-.79-6C261.27,239.66,259.92,236.39,255.74,235.77ZM120.8,58.08c4.66,1.74,9.34,3.14,14.34,2.45a3,3,0,0,0,2-1.24c.48-.87-.3-1.57-1.13-1.77C130.89,56.28,125.8,55.25,120.8,58.08Zm-2.62-1.88c5.83-2.79,12.89-9.42,15-14.19C126,44.83,121.85,49.55,118.18,56.2Zm81.53,176.5v-.86a5.06,5.06,0,0,0-1.17,0c-.47.13-.45.39,0,.55S199.31,232.6,199.71,232.7Z"/><path class="cls-1" d="M16.88,245.08c0-65.49.08-131-.14-196.48,0-5.39,1.59-6.45,6.57-6.38,19,.3,38,.14,57,.18a12.5,12.5,0,0,1,3.87.48c.86.3.71,1.46.53,2.24-.52,2.24-2.38,1.33-3.7,1.34-18.33,0-36.66.18-55-.08-4.3-.06-5.1,1.25-5.1,5.28q.18,192.74,0,385.47c0,4.72,1.4,5.64,5.78,5.62,38.83-.15,77.66-.08,116.49-.08,1.34,0,2.67,0,4,0,1.6,0,1.93.92,1.91,2.25s-.56,1.83-1.79,1.84l-2.5,0c-41,0-82-.08-123,.12-4.41,0-5-1.46-5-5.35q.18-98.24.09-196.48Z"/><path class="cls-1" d="M270.78,446.79H175.32c-1.16,0-2.33,0-3.5,0s-1.91-.4-1.9-1.73.15-2.37,1.78-2.37l4,0c62,0,123.94-.07,185.91.13,5.12,0,6.15-1.4,6.14-6.3q-.27-92.46-.12-184.91c0-1.34,0-2.67,0-4,0-1.5.65-2,2.12-2s2.07.75,2.06,2.14c0,.83,0,1.66,0,2.5q0,95.7.09,191.4c0,4.11-.95,5.3-5.14,5.28C334.75,446.71,302.76,446.79,270.78,446.79Z"/><path class="cls-2" d="M301,134.38c-2,1.82-.82,3.86-.6,6,.3,2.88,2.75,7.47-.71,8.23-2.91.65-3.56-4.46-4.32-7.44-.65-2.56-.9-5.24-1.37-7.85-.19-1.1,0-2.67-1.51-2.8-1.76-.15-1.95,1.55-2.29,2.78-1.29,4.64-1.89,9.51-4.35,13.76-1,1.65-1.71,4.21-4.2,3.5-2.94-.85-1.73-3.62-1.49-5.57.54-4.31,2.23-8.34,3.73-12.4.45-1.22,1.21-2.63-.21-3.62s-2.48.35-3.45,1.15c-3.33,2.76-6.58,5.63-9.91,8.39-1.41,1.18-3.09,2.52-4.8.78-1.45-1.48-.23-3.1.58-4.54,2.77-4.95,7.23-7.65,12.46-9.36,1.19-.4,3-.41,2.9-2.15s-2-1.34-3.19-1.6q-6.58-1.4-13.17-2.84c-1.29-.28-2.84-.41-3-2.12-.14-1.9,1.44-2.47,2.85-3,4.33-1.57,8.51-.78,12.65.85,1.45.57,3,2,4.42,0,1.14-1.65-.37-2.83-1.1-4-1.95-3.09-4.1-6.06-6.08-9.13-.59-.91-1.53-2.17,0-3,1.12-.58,1.71.65,2.27,1.42,2.23,3.11,4.39,6.27,6.65,9.37.92,1.26,1.46,3,3.86,3.22-.23-3.32-.67-6.52-.63-9.72a20.08,20.08,0,0,1,4.09-11.6c.93-1.29,2-2.33,3.75-1.58,1.52.67,1.45,2.16,1.27,3.47-.75,5.27-1.57,10.53-2.39,15.79-.21,1.38-1.52,3.12.53,3.9s2.69-1.3,3.49-2.69c3.53-6.15,7.57-11.78,14.62-14.36,1.86-.68,3.78-2,5.63-.5s.64,3.65.17,5.55c-1.85,7.41-7.75,10.83-13.75,14.27-1.32.76-3.25.89-3.84,2.71.67,1,1.44.83,2.15.33,6.74-4.73,14.25-3.73,21.72-3,1.5.16,3.19.41,3.27,2.37s-1.61,2.44-3,2.84a45.23,45.23,0,0,1-15.79,1.6c-1.4-.11-3.26-1-3.67,1.2-.36,1.94,1.51,2.31,2.84,2.91,3.48,1.57,7,3,10.43,4.74,1.49.75,4.08,1.34,3.12,3.7-.83,2.05-2.93.69-4.44.38-3.95-.83-7.52-2.65-11.09-4.44-1.49-.75-3-1.63-4.73-1s-2.28,1.47-.35,2.6Z"/><path class="cls-1" d="M305.38,42.37c20.66,0,41.32.08,62-.08,3.41,0,4.51.76,4.5,4.35-.14,41.65-.1,83.3-.11,125,0,.83,0,1.66,0,2.49,0,1.38-.45,2.19-2,2.26s-2.12-.64-2.11-2.07c0-1.17,0-2.33,0-3.5,0-39.65-.11-79.31.07-119,0-4.47-1.23-5.45-5.53-5.44-39.32.17-78.64.11-118,.11-1.33,0-2.66,0-4,0s-1.71-.74-1.73-1.89c0-1.31.25-2.29,1.88-2.22,1.17,0,2.33,0,3.5,0Z"/><path class="cls-2" d="M55.94,119.52a19.68,19.68,0,0,1,.12-2.43c.25-1.47-1.74-3.59.48-4.3,1.67-.53,2,1.87,2.74,3,3,4.88,4.37,10.38,6.15,15.76.66,2-.28,5.64,2.87,5.57,2.58,0,2-3.43,2.58-5.36,1.42-4.49,3.2-8.75,6.41-12.28,1-1.09,2-2.59,3.72-1.8,2,.92,1.37,2.81.95,4.39-1.93,7.4-4,14.76-9.21,20.73,2,1.66,3,0,4.14-.64,5.27-2.76,10.71-4.57,16.76-3.81,1.14.15,2.51,0,2.93,1.42s-.68,2.1-1.58,2.84a21.35,21.35,0,0,1-14.74,5.12c-1.6-.06-3.19-.14-5.21-.23,6.91,5.57,8.82,12.72,9.43,21.4-3.78-2.77-4.36-6.56-6.25-9.48-.9-1.39-1.48-3.2-3.53-3.08-2.24.12-2.91,2-3.38,3.78-.77,2.89-1.39,5.82-2.17,8.71-.4,1.49-.13,3.84-2.46,3.67-2.11-.15-2.06-2.43-2.34-3.94-.7-3.75-1.57-7.52-.95-11.38.16-1,.7-2.1-.5-2.63-1.65-.72-1.83.88-2.36,1.81-2.13,3.73-3.64,8-7.86,10-1.24.61-2.59,2-4,.42-1.15-1.26-.14-2.51.33-3.7,1.18-3,3.48-5.22,5.59-7.57,1.27-1.4,3.34-2.3,3.33-4.72-2.2-.93-3.88.59-5.67,1.19-4.16,1.41-8.34,2.24-12.74,1.53-1.5-.25-3.19-.45-3.43-2.28-.22-1.61,1.32-2.13,2.47-2.76,4.72-2.57,9.84-2.82,15-2.44,2.39.18,4.77.5,8.22.87-2.18-3.24-4.77-3.54-6.89-4.47-5.09-2.21-10-4.61-13.08-9.54-.53-.84-1.43-1.68-.81-2.67.81-1.28,2.07-.65,3.13-.25,5.19,2,9.6,5.3,14.21,8.27,1.07.68,2.06,2.05,3.48.85,1-.87.83-2.1.31-3.22-2.25-4.82-2.14-10.66-6.32-14.65Z"/><path class="cls-2" d="M252,267.5a22.72,22.72,0,0,1-3.94.16c-3.59-.45-4.88-3.57-2.74-6.5a12.41,12.41,0,0,1,9.33-5.13,39.16,39.16,0,0,0,12.41-3.27c3-1.28,4.47-3,5-6.11.9-5.66,3.53-10.36,8.51-13.47,1.38-.87,2.9-2,4.49-.43,1.44,1.42.87,3.07.2,4.63-1.92,4.47-5.86,7.17-9.22,10.35-2.15,2.05-5.23,3.82-2.89,7.37,2.17,3.3,5.26,2,8.06.82,4.54-1.85,9.08-3.27,14-1.6,1.82.62,3.61,1.35,3.44,3.62s-1.76,3.43-4,3.82c-3.24.56-6.24-.67-9.35-1.13-2-.29-4.1-.7-5.34,1.51s0,3.84,1.26,5.43c1.93,2.47,4.59,4.46,5.47,7.64.61,2.19,1.66,4.83-1,6.27-2.24,1.24-4.06-.5-5.66-2-3.3-3.14-3.59-7.33-4.08-11.47-.32-2.63.67-6.62-3.52-6.4s-4.85,4-4.51,7.36c.28,2.78-.79,5.23-1.05,7.85-.22,2.18-1.23,4.1-3.59,4.05a5,5,0,0,1-4.89-3.52,7.93,7.93,0,0,1,1-8c1.71-2.24,3.33-4.56,5.11-6.74.95-1.16,1.5-2.22.42-3.51a2.73,2.73,0,0,0-3.54-.93c-2.18,1.06-4.69,1.77-5.41,4.56v-.11c-1.21.23-2.08.64-1,2h0c-1.46-1-1.77,0-2.07,1.13Z"/><path class="cls-1" d="M161,42.36c6.14,0,12.27,0,18.41,0,1.55,0,3.6-.53,3.4,2.23-.16,2.32-1.93,1.85-3.33,1.85q-18.92,0-37.82,0c-1.48,0-3.09.28-3.13-2s1.59-2.07,3.06-2.07Z"/><path class="cls-1" d="M252.94,105.57c-.17.81-.33,1.63-.49,2.45-.19-.15-.38-.32-.56-.49.15-.76-.4-1.93,1.1-1.92Z"/><path class="cls-1" d="M255,264.63c-1-1.39-.18-1.8,1-2C257,263.92,255.89,264.23,255,264.63Z"/><path class="cls-1" d="M252.93,265.76c.3-1.1.61-2.17,2.07-1.13C254.79,265.9,253.76,265.65,252.93,265.76Z"/><path class="cls-2" d="M185.87,61.52c3,.64,3.51,2.18,2.37,5.06-2.37,6-7,10.29-11.62,14.91,2.43,1.4,3.83-.23,5.33-.84,4-1.65,8-3.47,12.41-3.45.94,0,2.17-.37,2.6.84.57,1.54-.82,2-1.81,2.46-4.73,2.06-9.5,4-14.25,6-1,.44-2.51.66-2.14,2.24.31,1.3,1.64.78,2.55.87,2.82.28,5.64.5,8.46.7a7.5,7.5,0,0,1,5,1.88c1.29,1.28,3,2.68,2.26,4.63-.84,2.19-3.13,1.58-4.84,1.31-2.79-.46-5.53-1.22-8.28-1.91-1.17-.3-2.28-.54-3.22.49-1.17,1.28-.47,2.5.18,3.66,1.22,2.17,2.6,4.27,3.74,6.48.71,1.38,2.39,3.07.58,4.44-2.08,1.57-3.27-.79-4.46-1.94-2.68-2.58-4-6.1-5.77-9.29-.62-1.11-1-2.79-2.67-2.51s-1.69,2-1.92,3.19c-.76,4.08-.91,8.3-2.91,12.07-.7,1.34-1.49,2.89-3.34,2.3-1.51-.48-1.45-2-1.49-3.4A35.61,35.61,0,0,1,164,101.39c.31-1.2,1.71-2.75.31-3.62-1.68-1-2.59,1-3.54,2-2.9,3-5.58,6.23-9.73,7.6-1.1.36-2.31,1-3.32.14-1.43-1.21-.19-2.48.33-3.57,3-6.33,7.55-10.89,14.75-12.29,1.14-.22,3.41.12,3.05-1.61-.51-2.42-2.52-.61-3.68-.33A21,21,0,0,1,145,86.49c-.92-.6-2.48-1.1-2-2.48.53-1.6,2.13-1.21,3.45-1,3.79.58,7.57,1.18,11.36,1.74,1.56.23,3.55,1.42,4.52-.54C163.42,82,161,81.05,159.74,80c-4.23-3.55-8.43-7.09-10.89-12.18-.66-1.38-2.58-3.1-.88-4.41,2.07-1.6,3.13,1,4.21,2.16,4.29,4.82,8.45,9.75,13.29,14.57-.14-9-3.05-18.29,4.19-27.45,1.63,9,3.06,16.89,4.48,24.76,2.63-6.35,8.68-10.05,11.74-15.92Z"/><path class="cls-2" d="M354.23,212.55c-2.25-2.74-4.44-5.33-6.56-8-2.52-3.13-4.89-6.36-5.57-10.46-.28-1.67-.34-3.35,1.14-4.6s3.14-.41,4.62.31c6,2.94,8.91,8.25,11,14.22.4,1.15.3,3.25,2.06,2.78,1.95-.52.5-2.23.26-3.36a19.64,19.64,0,0,1,4.29-17.29c.74-.9,1.63-1.82,3-1.45,1.62.45,1.66,1.86,1.69,3.22.11,4.74-2.23,8.62-4.34,12.58-.6,1.13-1.7,2.53-.21,3.53,1.19.79,2.1-.55,2.9-1.35a31.5,31.5,0,0,1,15.32-8.93c1.42-.33,3.07-.73,4,1,.76,1.46-.27,2.5-1.08,3.56-3.47,4.55-8.46,6.87-13.44,9.23-1.39.67-3.64.9-3.16,3.17s2.56,1.71,4.15,1.52a62.13,62.13,0,0,1,19.57.93c1.42.28,3.31.25,3.39,2.24s-1.78,2-3.22,2.35c-6.9,1.8-13.54.28-20.16-1.5-1.41-.38-3-1.52-4.2-.15-1.56,1.81.52,3,1.37,4.24,3.15,4.52,6.45,8.94,7.07,14.66.16,1.49.52,3.17-1,4.11-1.74,1.09-3.14-.07-4.44-1.17-4.27-3.61-6.15-8.58-7.89-13.66-.53-1.51-.83-3.5-2.9-3.65s-2.42,1.85-3.15,3.29c-2.16,4.31-4,8.85-7.8,12.07-1.5,1.28-3.19,3.63-5.56,1.64s-.53-3.95.71-5.63c2.18-2.94,4.57-5.73,6.78-8.64,1-1.28,2.53-2.55,1.72-4.4s-2.78-1.43-4.41-1.51q-7-.31-14-.67c-1.17-.06-2.56-.12-2.78-1.55s1.13-1.93,2.18-2.38c4.55-1.93,9.18-2.88,14.07-1.12C350.94,212.22,352.07,213.64,354.23,212.55Z"/><path class="cls-2" d="M254.75,200c-2.73-7-3.22-13.73.41-20.32.86-1.57,1.41-3.62,3.85-3.2,2.26.39,1.87,2.43,2.26,4,1.19,4.58-.88,8.86-1.16,13.31-.12,1.85-1.87,4.32.42,5.48s3.24-1.68,4.45-3.05c3.12-3.5,6.3-6.87,10.69-8.83,1.39-.62,2.77-1.4,4.17-.2s.55,2.77.13,4.15c-1.44,4.74-4.93,7.81-8.76,10.56-2,1.43-4.06,2.72-7.2,4.79,9.84-1.94,13.88,4.39,18.35,9.54,2.29,2.63.64,4.32-2.51,4.31-4.35,0-8-2-11.53-4.34-1.39-.91-2.77-2.25-4.49-1s-1.75,3.06-1.33,5c.59,2.76,1.14,5.54,1.63,8.33.17,1,.53,2.19-.46,2.75-1.29.74-2.16-.5-2.93-1.29a20.83,20.83,0,0,1-5.46-10c-.27-1.16.19-3.11-1.68-3.15-1.58,0-1.82,1.76-2.33,2.92-1.62,3.66-3,7.42-6.15,10.17-1.25,1.1-2.53,2.43-4.37,1.31s-1.34-2.82-.92-4.48a28.78,28.78,0,0,1,8.46-14.44c1-.92,2.79-1.36,2.45-4.27-7,5.29-14.59,6.62-23.83,4.63,5.32-4.4,10.79-5,16.09-6,1.68-.32,4.07.4,4.5-2.11.39-2.2-1.71-3-3.13-4.09-4-3-7.77-6.09-9.68-10.92-.57-1.44-1.33-2.82.14-4.07s2.79-.18,4,.63c5.13,3.3,8.47,8.43,12.73,12.62C252.26,199.33,252.66,200.48,254.75,200Z"/><path class="cls-2" d="M253,105.61c-1.5,0-1,1.16-1.1,1.92-2.48,1.72-3.93,6.58-6.92,5.31s-.92-5.73-1-8.75a23.26,23.26,0,0,1,2.69-12c.53-1,2.23-2.36.29-3.29-1.37-.65-1.76,1.14-2.24,2.09-2.84,5.64-7.85,7.87-13.7,8.79-1,.15-2.15.45-2.76-.48s.25-1.87.83-2.65a39,39,0,0,1,12.09-10.29c1.34-.77,3.76-1,3.5-3-.31-2.4-2.92-1.76-4.54-2.13-4.54-1-9.19-1.64-13.47-3.59-1.52-.69-3.29-1.49-2.81-3.57.53-2.3,2.62-1.6,4.17-1.6,4.75,0,9.12,1.71,13.49,3.37,1.23.47,2.47,1.34,3.67.09,1.44-1.51.29-2.81-.63-3.94-3.89-4.78-4.64-10.21-3.32-16,.74-3.29,2.49-3.87,4.71-1.14a37.82,37.82,0,0,1,7.22,13c.39,1.32,0,3.47,2,3.6s2-2,2.7-3.21c2.33-4.06,4.6-8.13,8.23-11.21.85-.72,1.79-1.89,3-1.25s.54,2.09.41,3.13c-.77,6-4.21,10.35-8.34,14.38a14.61,14.61,0,0,0-2.87,4.15c6.74-3.72,13.7-3.06,20.7-1.82,2,.36,4.26.85,4.1,3.46-.14,2.39-2.4,2.39-4.2,2.64-5.11.7-10.23,1.33-15.34,2-3.46.48-4.29,2.21-2.25,5.11,1.81,2.59,3.82,5.06,5.5,7.73,1.06,1.68,3.46,3.75,1.1,5.63s-3.88-.69-5.2-2.3c-2.32-2.83-4.47-5.8-6.74-8.67-.59-.74-1.23-1.71-2.44-1.12-.93.46-.72,1.39-.71,2.19Q252.89,98.89,253,105.61Z"/><path class="cls-2" d="M312.58,169.54c-1-4.6-4.07-7.9-4.82-12.16-.44-2.54-2.07-6.07.55-7.27,2-.94,3,2.89,4.32,4.66,2.58,3.44,4.21,7.44,6,11.63,2-1.65,1.32-3.61,1.36-5.25A36.51,36.51,0,0,1,322,148.9c.67-1.75,1-4.6,3.56-4.09,2.71.55,1.54,3.31,1.35,5.07-.6,5.48-2.3,10.72-3.92,16-.45,1.47-2.15,3.57-.39,4.49,2.18,1.14,2.81-1.68,3.82-3,3.16-4.11,6.31-8.2,10.95-10.77,2.06-1.15,4.48-3.65,6.46-.75,1.67,2.46-.95,4.24-2.75,5.63-4.27,3.31-8.65,6.47-12.75,10.87,4.4,0,8.8,0,13.19,0a11.46,11.46,0,0,1,3.91.65c1.1.42,2.58.65,2.54,2.55s-1.41,2.28-2.6,2.39c-3.07.28-6.11.94-9.24-.34-2.35-1-5.33-2.45-7.38.2-2.16,2.81.74,4.88,2,7.05s3.1,4,3.4,6.58c.17,1.55,0,3.17-1.7,3.76s-2.37-.9-3-2c-1.6-2.73-2.9-5.65-4.69-8.24-1.31-1.9-1.37-5.87-4.42-5.16-2.59.61-1.23,4.08-1.47,6.25-.45,4.17-1,8.26-3.34,11.88-1,1.59-2.2,3.18-4.4,2.35s-2.09-2.83-1.88-4.67c.63-5.36,3.18-10.13,4.88-15.16.3-.86,1.36-1.88.31-2.68-1.34-1-2.08.35-2.77,1.18-3.76,4.46-8.8,6.46-14.31,7.45-1.45.25-3.51,1.31-4.4-.89-.75-1.86.83-3.08,2-4.23,2.93-2.91,6.79-4.11,10.57-5.41,1.78-.62,3.57-1.23,5.41-1.85-.9-2.16-2.22-1.67-3.27-1.68-7.79-.13-14.56-3.13-20.86-7.41-1-.65-2.85-1.1-2.18-2.81.48-1.26,2-.78,3.13-.81C296.85,161.07,305.72,161.84,312.58,169.54Z"/><path class="cls-2" d="M229.77,33.08a17.86,17.86,0,0,1,16.14-2.43c1.26.38,2.86.61,2.92,2.25.07,1.82-1.75,1.78-2.91,2.13-4.3,1.31-8.53,3-13,3.27-3.77.23-4.07,2-2.84,5,1.57,3.77,4.41,7,5.22,11.79-4.08-1.28-5.26-4.77-7.5-7.11s-3.76-7.23-6.55-6.83-.36,5.16-1.37,7.89a25.64,25.64,0,0,1-4.46,8.3c-.86,1-1.77,2.33-3.25,1.91-1.63-.47-1.91-2.1-2.13-3.63a24.58,24.58,0,0,1,1.81-13.2c.45-1.08,1.13-2.29.08-3.24s-2.21.09-3.16.6c-4.53,2.45-8.81,5.44-13.94,6.59-1.22.28-2.79,1-3.67-.37-.74-1.11.34-2.2.94-3.16,3.63-5.82,7-12,15.08-12.38.84,0,1.81-.12,2-1.11s-.62-1.47-1.36-1.9c-2.59-1.5-5.48-2.66-7.69-4.59s-6-4.65-3.29-7.65c2.59-2.82,4.78,1.4,6.81,3,2.63,2,4.84,4.57,7.35,6.75,1,.87,1.78,3.09,3.5,1.83,1.38-1-.14-2.46-.61-3.57-1.92-4.48-2.43-9-.7-13.61.59-1.61,1.19-3.27,3.32-3.11,1.82.14,2.35,1.61,2.8,3.1a59.92,59.92,0,0,1,2.66,18.23c0,.92-.5,2.2.76,2.58,1.61.48,1.85-1,2.2-2.05,1.86-5.61,5.66-9.73,10.22-13.24,1-.77,2.16-2.2,3.45-1.19s.43,2.51.05,3.75a30.84,30.84,0,0,1-7.43,12.29C230.48,30.57,229.53,31.12,229.77,33.08Zm-.29,1.13c-.35-1.53-.74-1.69-1.21-1.48-.74.31-1.53.68-1.37,1.68.06.42.29.93.93.63S229.27,34.32,229.48,34.21Z"/><path class="cls-2" d="M51.57,214c-6.64-3.39-10.36-8.26-12.08-14.58-.6-2.2-1.65-5.57.21-6.47,2.52-1.22,3.5,2.3,4.65,4.06,2.27,3.48,4.12,7.23,6.15,10.85.61,1.08.74,3,2.57,2.38,1.53-.49,1.35-2.09,1.32-3.44-.12-6.57,1.61-12.52,6.22-17.38.71-.75,1.44-2.16,2.84-1.51s.82,2,.76,3.11a45.6,45.6,0,0,1-4.7,18.24c-.54,1.07-1.87,2.47-.27,3.44,1.22.73,2-.8,2.75-1.63a25.57,25.57,0,0,1,14.94-8.4c1.25-.23,2.86-.75,3.7.59,1,1.51-.64,2.39-1.44,3.33-4.31,5-8.47,10.3-15.33,12.85,6.73.5,10.4,4.58,13,9.9.79,1.59,2,3.72,0,4.93-1.51.92-2.34-1.35-3.33-2.27-2.55-2.39-4.83-5.07-7.41-7.43-1.35-1.25-2.51-4-4.74-2.67-1.83,1.07-.43,3.37-.09,5.07.71,3.59,1.74,7.12,2.42,10.71.36,1.93.71,4.5-1.91,4.93-2.26.36-2-2.25-2.47-3.67-1.33-4.12-2.42-8.31-3.65-12.46-.27-.92-.4-2.13-1.65-2.22s-1.49,1.19-1.82,2C50.46,230.87,48,235,44,237.91c-.92.68-2,1.6-3.07.57-.9-.83-.15-1.92.19-2.76,1.54-3.87,3.22-7.67,4.8-11.52.42-1,1.56-2.11.57-3.2a3.46,3.46,0,0,0-3.74-.6c-5.65,2-9.88-1.67-14.34-3.79-2.34-1.12-.51-2.4,1-2.85a29.69,29.69,0,0,1,15.79-.32C46.89,213.87,48.47,215.25,51.57,214Z"/><path class="cls-2" d="M195.33,146.69c1-3.92.12-7.74,1.1-11.39q1-3.62,2.11-7.18c.42-1.31,1.2-2.58,2.81-2.3s1.68,1.86,1.78,3.17a46.82,46.82,0,0,1-.92,13.4c-.38,1.87-1.56,3.7-.79,5.83,2.65.06,3-2.35,4.19-3.77,2.43-3,4.76-6,8.81-6.93,1.1-.23,2.45-.87,3.28.23s-.17,2.19-.83,3.11a33.08,33.08,0,0,1-8.09,8c-.93.63-2.26,1.18-1.95,2.59.36,1.61,1.83,1.78,3.18,1.84,4,.16,8,.38,11.67,2.22,1.3.65,3.35,1.18,3.13,2.77-.28,2-2.6,1.81-4.12,2-4.63.48-8.76-1.66-13.07-2.81-1.08-.29-2-1.28-4-.19,6.71,3.66,11,8.63,10.46,17.34-4.43-3.11-6.31-7.3-9.27-10.51-1-1-1.53-2.86-3.41-2.41s-1.68,2.34-2,3.7c-1.11,4.66-2.34,9.2-7.18,12.2-1.28-5.33,1.07-10.12.55-15-2.61-.11-2.75,2-3.76,3.14-1.42,1.61-2.62,3.46-4.18,4.91s-3.3,2.8-5.29,1.11c-2.22-1.87-.4-3.63.71-5.18a38.41,38.41,0,0,1,7.53-8c.8-.62,2.38-1.13,1.56-2.65-.59-1.1-1.79-.58-2.72-.52-3.66.24-7.33.61-10.92-.41-1.4-.39-3.21-.84-3-2.77.21-1.64,1.93-1.58,3.2-1.71a27.06,27.06,0,0,1,8.91.63c1.57.37,3.79,2.13,4.86.11.88-1.66-1.55-2.63-2.69-3.7-3.79-3.56-7.3-7.3-9.27-12.23-.61-1.53-1.75-3.28-.07-4.53,1.46-1.08,2.71.53,3.94,1.31A42.27,42.27,0,0,1,195.33,146.69Z"/><path class="cls-2" d="M155,176.52c-.51,3.19,3,3.71,4,6,.55,1.33,2.06,2.65.59,4-1.16,1.07-2.5,0-3.59-.7-3.37-2.15-6.76-4.27-10-6.55-2.82-2-5.07-2.75-6.18,1.62-.56,2.17-2.2,3.23-5,3.73,1.75-4.67,3.48-9,5-13.42.76-2.26,2.19-4.87-.71-6.74-2.49-1.59-4.46.26-6.35,1.48-3.9,2.5-6,6.57-8.34,11.15-.93-2.72-1.68-4.72-2.29-6.76-.22-.76-.47-2.14-.15-2.34,6.22-3.82-.42-4.76-1.68-6.19-2.38-2.71-5.52-4.76-8.36-7.08-.66-.54-1.33-1.16-1-2.06.47-1.31,1.62-.85,2.54-.69,3.4.61,6.1,2.53,8.73,4.62,1.7,1.34,3.46,2.6,5.25,3.81,1,.64,2,1.37,3.15.3s.69-2.13.18-3.21c-1.92-4.07-3.9-8.1-5.75-12.19-.5-1.11-1.85-2.52-.33-3.55,1.18-.8,2.53.22,3.67.92,3.74,2.33,5.34,6.26,7.37,9.88.85,1.5,1.24,4.05,3.53,3.56,2.75-.58,1.7-3.21,1.67-5a30.17,30.17,0,0,1,2.09-11.71c.54-1.37.74-3.41,2.35-3.5,1.94-.12,1.68,2.13,2.11,3.41a27.86,27.86,0,0,1,.87,15.25c-.28,1.25-.77,2.56.2,4.1,4.87-1.95,7.43-7.47,13.22-8.83-.77,5.87-4.64,8.78-9,11.33-1.4.83-3.41,1.32-3.16,3.37s2.4,1.82,4,2.23c4.56,1.19,9.44,1.64,13.49,5.44-4.21,2-8.16,1.19-12.05,1-1.38,0-3.59-1.17-3.77.81-.15,1.74,1.44,3.42,3.89,2.65Z"/><path class="cls-2" d="M130.52,79.76c-6-1.78-8.75-5.85-11.9-9.41-.94-1-1.59-3-3.41-2.36S114,70.52,114,71.93c0,3.5.26,7,.29,10.49,0,1.88-.24,3.94-2.68,4.06-2.2.11-2.39-1.84-2.81-3.48-1.3-5.06-1.49-10.27-1.4-16.92-2.88,3.62-2.44,6.81-3.67,9.37-1.37,2.85-2.68,5.73-5,8-1.15,1.15-2.55,1.73-4.07,1-1.76-.9-1.22-2.48-.83-3.94C95,76.36,97.29,73,99.77,69.57c3-4.08,2.43-5.44-2.56-5.92C90.2,63,85.3,59,80.88,54c-.67-.75-1.46-1.53-1-2.61.62-1.44,2-1.06,3-.8,5.28,1.24,9.76,4.13,14.31,6.92,1.07.66,2.33,2.12,3.54,1.07,1.5-1.31,0-2.75-.72-4-2.69-4.63-5.29-9.29-5.26-14.86,0-1.54-.78-3.69,1.55-4.16,2.12-.43,2.67,1.63,3.42,3a80.24,80.24,0,0,1,5.14,13.52c.47,1.52.48,4,2.47,3.82,2.18-.16,1.5-2.56,1.6-4.1.4-5.72,1.52-11.22,4.5-16.21.78-1.29,1.56-2.77,3.4-2.34s1.91,2.1,2,3.61c.28,5.56-.93,10.92-2.33,16.24-.43,1.63-1.44,3.29,1.74,3.07,1.53-.11,1.76,1.56.95,2.49-2.69,3.09-.18,4.74,1.57,6.69C124.45,69.49,128.16,73.49,130.52,79.76Z"/><path class="cls-2" d="M115.67,185.34c-2.35-1-4.75-1.86-7-3a21.33,21.33,0,0,1-6.76-5c-.67-.76-1.44-1.49-.89-2.62.65-1.33,1.69-.57,2.6-.41,4.53.78,8.44,3,12.24,5.41.81.52,1.67,1.42,2.64.59s.32-1.81-.06-2.74c-1.34-3.23-2.73-6.44-3.92-9.72-.66-1.81-1.35-3.74,0-6.06,4.74,4,5.84,9.51,7.26,14.9.46,1.76-.78,4.8,1.8,5,2.27.2,2.19-2.94,3.06-4.62,1.84-3.58,3.67-7.12,7.11-9.47,1.22-.83,2.52-2.05,4-.94s.43,2.49.08,3.69c-1.82,6.23-4,12.3-9.37,18.13,6.55-1.16,11.74-5.43,17.66-1.54-1.78,2.71-4.76,2-7,2.89-1.91.78-4.88.1-5.53,2.61-.56,2.21,2,3.18,3.32,4.59,3,3.22,5.81,6.43,5,12.22-4.6-3.19-7.14-7.49-10.48-11-1-1-1.49-3.12-3.33-2.39-2.12.84-1.1,2.93-.88,4.43.77,5.06,1.74,10.09-.59,16-3.43-4.77-3.48-9.59-4.15-14.22-.23-1.57.45-3.91-1.36-4.43-2.26-.65-2.66,2-3.65,3.39-1.66,2.28-2.91,4.86-4.56,7.15-1.11,1.53-2.74,2.66-4.73,1.41-2.23-1.39-1.22-3.19-.2-4.74,1.92-2.91,4-5.72,6-8.61.53-.77,1.43-1.62.71-2.67s-1.76-.56-2.72-.32c-3.39.86-6.77,1.83-10.31,1.7-1,0-2.14,0-2.5-1.2s.59-1.77,1.38-2.38C104.89,188,109.91,186.24,115.67,185.34Z"/><path class="cls-2" d="M116.64,247.08c0-6.08,0-10.71,0-15.35a34.21,34.21,0,0,1,.41-5,2.5,2.5,0,0,1,2.71-2.38c1.45.09,1.83,1.31,2,2.49.5,4.13.92,8.27,1.39,12.4.16,1.45-.06,3.23,1.67,3.82,1.53.52,2.31-1,3.26-1.86,2.83-2.57,5.63-5.18,8.47-7.74.73-.66,1.62-1.42,2.63-.67s.23,1.77-.15,2.63c-1.82,4.21-5.24,6.76-9.11,8.87-1.13.62-2.79,1.16-2.55,2.72s2,1.56,3.21,1.91c4,1.15,8,2.24,12,3.39,1.54.45,2.83,1.27,2.49,3.15-.31,1.65-1.81,1.76-3.11,2-4.76.75-8.77-1.18-12.69-3.53-1.24-.75-2.67-1.88-4-.47s-.23,2.73.48,4.06c2.43,4.58,5.45,9,5,15.5-5-4.31-6.73-9.43-8.46-14.55-.45-1.33-.18-3.68-2-3.51s-1.11,2.41-1.25,3.78c-.47,4.58.44,9.29-1.74,14.89a21.61,21.61,0,0,1-3.32-12.22,51.79,51.79,0,0,1,.53-5.94c.14-1.25,1.2-2.69-.2-3.67s-2.45.42-3.51,1.1c-2.09,1.36-4,2.94-6.21,4.17-1.81,1-3.73,2.25-6.29,1,2.34-4.48,6.52-6,10.83-7.22,1.45-.42,3.09-.61,3.55-2.32.58-2.11-1.19-2.93-2.54-3.81-3-2-5-4.87-7-7.7-1-1.45-2.55-3.13-.37-4.72,1.85-1.35,3.07.24,4.19,1.44A66.55,66.55,0,0,1,116.64,247.08Z"/><path class="cls-2" d="M255.74,235.77c4.18.62,5.53,3.89,6.6,7.26.63,2,2.23,4.78.79,6-1.62,1.42-3.71-1.09-5.53-2s-3.92-2-5.11-3.85a5,5,0,0,1-.39-5.22A4.14,4.14,0,0,1,255.74,235.77Z"/><path class="cls-2" d="M120.8,58.08c5-2.83,10.09-1.8,15.17-.56.83.2,1.61.9,1.13,1.77a3,3,0,0,1-2,1.24C130.14,61.22,125.46,59.82,120.8,58.08Z"/><path class="cls-2" d="M118.18,56.2c3.67-6.65,7.84-11.37,15-14.19C131.07,46.78,124,53.41,118.18,56.2Z"/><path class="cls-1" d="M229.48,34.21c-.21.11-.92.48-1.65.83s-.87-.21-.93-.63c-.16-1,.63-1.37,1.37-1.68C228.74,32.52,229.13,32.68,229.48,34.21Z"/></svg>