<svg id="Layer_1" data-name="Layer 1" xmlns="http://www.w3.org/2000/svg" viewBox="0 0 1168 768"><defs><style>.cls-1{fill:#f3f3f4;}.cls-2{fill:#d6d6d6;}.cls-3{fill:#e7e8e9;}.cls-4{fill:#e2e2e2;}.cls-5{fill:#d8d8d8;}.cls-6{fill:#ddd;}</style></defs><title>no-found</title><path class="cls-1" d="M144.13,761.37s57-85.48,47.49-161.46S56.28,436.08,39.66,376.72-7.83,106,220.11,68s237.44,104.48,365.66,95,368.62-82.78,460.63-23.74c140.94,90.41,68.86,239.81,9.5,379.9-82.52,189.18,9.5,242.19,9.5,242.19Z"/><polygon class="cls-2" points="451 468 548 610 753 494 654 377 451 468"/><path class="cls-1" d="M72.9,528.68s71.23-4.75,76,85.48-19,95-38,104.47-57-23.74-71.23-90.23S39.66,533.43,72.9,528.68Z"/><path class="cls-1" d="M506.8,75.09s2.44-63.58,107.43-54.59S722.07,51.16,730.94,69.31,697.1,116.15,618.55,119,508.59,105.13,506.8,75.09Z"/><polygon class="cls-3" points="547 609 861 432 954 554 636 744 547 609"/><polygon class="cls-3" points="382 367 320 259 615 131 698 227 382 367"/><polygon class="cls-3" points="397 669 253 425 382 367 548 610 397 669"/><polygon class="cls-3" points="810.42 192.01 955 379 861 432 698 227 810.42 192.01"/><polygon class="cls-4" points="654 377 698 227 382 367 451.12 468.19 654 377"/><polygon class="cls-5" points="519 724 548 601 599.29 678.81 519 724"/><polygon class="cls-6" points="654 377 698 227 861 432 751 494 654 377"/><polygon class="cls-4" points="479.62 636.72 519 724 548 610 479.62 636.72"/></svg>