<svg id="Layer_1" data-name="Layer 1" xmlns="http://www.w3.org/2000/svg" viewBox="0 0 600 600"><defs><style>.cls-1{fill:#524944;}.cls-2{fill:#e6bdbb;}</style></defs><title>no-image</title><path class="cls-1" d="M336.44,209.24c6.45-9.36,10-20.1,14.56-30.39,2.17-4.93,3.95-10,5.78-15,1-2.52,2.94-5.17-2.31-5.78-2.65-.29-2.38-3.63-2.31-5.91.09-4.37.38-8.74.61-13.68-4.7,1.79-8.73,3.58-13.11,4.21-2,.29-3.88.77-5.19-1.15s-.55-4.08.72-5.89c3.93-5.6,9.25-9.66,15.78-13.87-5.86-1.71-10.93-3.06-15.9-4.69-3.58-1.16-7.13-2.72-5.85-7.67s5.29-4.23,8.91-3.57c4.68.85,9.3,2,14.78,3.19-3.3-6.06-5.35-11.89-3.88-18.33.66-2.93.4-6.53,4.31-7.36,3.47-.74,5.12,2,6.94,4.24,3.36,4.21,5.48,9.17,8.16,14.51,2.31-3.28,4.18-6.1,6.16-8.87a23.66,23.66,0,0,1,7.63-6.93c3.4-1.91,5.23-.73,5.1,3a28.2,28.2,0,0,1-8.52,19.41H390a20.6,20.6,0,0,1,6.86.67c3.29,1.16,6.37,2.76,6.17,6.62-.2,4-3.55,5-7,5.43-5.35.67-10.65,1.64-16,2.17-3.11.3-3.72,1.16-1.87,3.79,2.31,3.27,4.62,6.6,6.85,10,1.75,2.7,2,5.63-.64,7.81-2.86,2.31-5.45.73-7.6-1.51s-4.37-4.81-6.94-7.7l-4.39,10.82h.06q-.11-7.77-.19-15.56c0-.92-.25-2,.82-2.53,1.4-.68,2.14.44,2.83,1.3,2.62,3.31,5.11,6.75,7.79,10,1.52,1.86,3.32,4.81,6,2.66s0-4.63-1.27-6.51c-1.94-3.09-4.27-5.94-6.36-8.94-2.31-3.35-1.4-5.35,2.6-5.91,5.91-.82,11.83-1.54,17.73-2.31,2.09-.29,4.7-.29,4.86-3,.19-3-2.43-3.58-4.74-4-8.09-1.43-16.18-2.2-23.93,2.1a16.72,16.72,0,0,1,3.32-4.79c4.77-4.63,8.75-9.75,9.64-16.63.15-1.15,1.09-2.81-.47-3.62s-2.54.62-3.47,1.45c-4.2,3.56-6.82,8.26-9.52,13-.8,1.4-1,3.85-3.12,3.71s-1.84-2.64-2.31-4.16a43.67,43.67,0,0,0-8.35-15c-2.57-3.16-4.62-2.49-5.44,1.32-1.53,6.71-.66,13,3.83,18.49,1.07,1.31,2.4,2.81.73,4.56-1.38,1.44-2.82.44-4.24-.11-5.1-1.86-10.15-3.8-15.67-3.82-1.79,0-4.2-.81-4.82,1.85-.55,2.4,1.49,3.33,3.25,4.12,4.95,2.32,10.33,3,15.57,4.16,1.88.42,4.9-.32,5.25,2.46.3,2.31-2.49,2.6-4,3.47a45.07,45.07,0,0,0-14,11.92c-.67.9-1.72,1.9-1,3.06s2.08.73,3.19.55c6.77-1.06,12.56-3.64,15.84-10.16.56-1.15,1-3.17,2.59-2.41,2.25,1.07.28,2.69-.33,3.8A26.77,26.77,0,0,0,355,145.1c.09,3.47-2.42,8.6,1.15,10.12s5.14-4.15,8-6.14l.65.58C353,188.39,335.93,224.47,310.12,256l-1,1.16-1,1.07c-.33.52-1.66.68-1,1.49.5.58,1.41.21,1.67-.75l1.33-1,1.3-1c27.86-20.07,56.65-39.13,76.31-68.39-.7-.61-1.05-1.08-1.16-1-3,1.15-6.2,3.37-8.85-.21-2.31-3.2-.19-6.2,1.33-9.08,2.55-4.82,7.28-7.21,12.14-10.4-4.62-1.3-8.64-2.46-12.71-3.47-2.54-.66-4.86-1.41-5.06-4.62-.2-3.39,2.13-4.63,4.7-5.78,5.88-2.58,11.63-.78,17.84,1-2.8-4.63-5.38-8.64-7.71-12.8-1.28-2.31-2-4.94.76-6.67s4.17.84,5.58,2.52c2.31,2.72,4.38,5.6,7.15,9.18,1-6.43,1.22-12.1,4.47-16.76,1.92-2.76,3.71-6.41,8.09-4.88s4,5.15,3.53,8.69a106.27,106.27,0,0,0-1.16,12.46c4.7-6.16,9.76-11.5,17.23-13.87,2.93-.92,6-2.53,8.67,0s1.47,5.69.69,8.71c-1.28,5-4.1,9-9,13.7,5.48,0,9.76-.21,14,.07,2.9.19,5.93.91,6.28,4.69s-2.23,5-5.06,6.08c-4.86,1.91-10.16,1.48-15.84,2.74,4.24,2.38,7.93,4.36,11.5,6.5,2.31,1.4,3.81,3.39,2.47,6.25s-3.75,2.43-6,2.06A46.29,46.29,0,0,1,428,178.83c-2.17-1.16-4.32-2.7-7-1.54-2.23-1.31-1.5-2.31.41-3s3.75.35,5.47,1.16c4.13,2.07,8.25,4.17,12.82,5.13,1.74.36,4.17,1.93,5.13-.44,1.16-2.73-1.88-3.41-3.6-4.28-4-2-8-3.66-12.06-5.47-1.54-.7-3.7-1.16-3.29-3.37.48-2.57,2.63-1.51,4.25-1.39a52.09,52.09,0,0,0,18.25-1.85c1.63-.46,3.56-1.15,3.47-3.28s-2-2.55-3.78-2.74c-8.64-.89-17.34-2.05-25.11,3.47-.82.58-1.71.82-2.49-.38.69-2.11,2.92-2.32,4.44-3.14,6.94-4,13.76-7.93,15.9-16.49.54-2.2,2.07-4.56-.2-6.42s-4.36-.21-6.51.58c-8.15,3-12.82,9.49-16.9,16.6-.92,1.61-1.52,4.06-4,3.11s-.86-2.91-.62-4.51c.95-6.08,1.9-12.16,2.77-18.25.21-1.52.29-3.24-1.47-4-2-.86-3.26.34-4.34,1.83a23.28,23.28,0,0,0-4.73,13.41c0,3.7.47,7.4.73,11.24-2.77-.23-3.4-2.31-4.46-3.72-2.61-3.59-5.11-7.24-7.69-10.84-.64-.89-1.33-2.31-2.62-1.64-1.77.92-.68,2.31,0,3.47,2.31,3.55,4.77,6.94,7,10.56.84,1.35,2.59,2.71,1.27,4.62-1.61,2.31-3.47.64-5.11,0-4.79-1.88-9.62-2.8-14.63-1-1.63.59-3.46,1.25-3.29,3.47.15,2,1.94,2.12,3.47,2.45q7.61,1.67,15.22,3.28c1.43.3,3.53-.21,3.69,1.85s-2,2-3.35,2.49c-6,2-11.2,5.09-14.41,10.82-.93,1.66-2.31,3.53-.67,5.25,2,2,3.92.46,5.55-.91,3.85-3.19,7.61-6.51,11.46-9.7,1.16-.92,2.31-2.52,4-1.33s.76,2.78.24,4.19c-1.73,4.69-3.69,9.35-4.31,14.34-.28,2.25-1.68,5.45,1.72,6.43,2.88.83,3.75-2.13,4.86-4,2.84-4.92,3.53-10.55,5-15.91.39-1.42.61-3.39,2.64-3.21,1.71.15,1.53,2,1.75,3.23.54,3,.83,6.12,1.58,9.08.88,3.47,1.63,9.35,5,8.6,4-.88,1.15-6.18.82-9.51-.26-2.42-1.6-4.78.69-6.94,2.64,4.87,2.41,10.25,2.78,15.51a3.9,3.9,0,0,1-3.14,4.27c-2,.55-3.31-.47-4.44-1.92-3.21-4.14-4.86-8.87-6.05-14.31-1,2.93-1.73,6-2.92,8.78-1.62,3.85-3,9.15-7.87,8.83-5.45-.36-5.46-5.63-5-11.68a366.62,366.62,0,0,1-48.06,46c6.54,2.88,10.58,7.78,15.75,12.57.17-6.2.88-11.45,3.3-16.32,1.59-3.18,3-6.61,7.47-5.78,4.63.93,5.2,4.75,5,8.55-.21,4.93-.81,9.87-1.33,15.77,4.23-4.19,7.59-8.1,12.24-10.41,3.09-1.55,6.2-3.72,9.53-.77s1.16,6,0,9c-.53,1.41-1.16,2.79-2,4.89,8.77-1.57,16-5,23.18-9.43-1.56-1.62-3.1-.82-4.42-.6-2.47.41-4.62.33-6-2.11s-.09-4.44,1.25-6.38c2.66-3.91,7.07-5.55,12-8.3a69,69,0,0,1-20.66-9.6c-1.83-1.22-3.46-2.55-2.76-5.11s2.83-2.78,5.05-2.86a69.16,69.16,0,0,1,22.79,2.84l.63.66.1-.52h-.8c-.36-3.93-.85-7.86-1-11.79-.1-2.06-.18-4.5,2.42-5.33s3.87,1.1,5.07,2.85c2.15,3.11,4.21,6.28,6.94,10.35,1.59-5.33,1.35-10.14,3.9-14,1.53-2.31,2.85-5.54,6.52-4.44,3.29,1,3,4.09,3,6.78.08,5.21-1.37,10.12-3.17,15,2.49,1.22,3.34-1.07,4.62-2.2,3.18-2.78,6.12-5.86,10.41-7,2.66-.72,5.55-1.7,7.51.76,2.25,2.79.14,5.48-1.37,7.88a22.18,22.18,0,0,1-6.31,5.86c-1.67,1.16-3.24,2.46-5.35,4.07,4.53,1.49,8.56.73,12.41,2,3.21,1.16,6.05,2.32,5.78,5.79s-3.47,4.77-6.61,5.34c-4.25.77-8.3-.91-12.43-1.53-1.34-.21-2.68-1.06-3.62.28s.54,2.41,1.16,3.47c1.95,3.65,5.78,6.41,5.15,11.26-.33,2.54-.68,5.18-3.53,6.08s-4.63-1.16-6-3.35c-2.32-3.74-4.63-7.5-7.47-12.19-.63,3.28-1,5.6-1.32,7.91a19,19,0,0,1-2.24,7.11c-2.13,3.47-4.39,7.63-9.25,6.17-5.11-1.52-4-6.3-3.69-10.29.11-1.49.5-3,.84-4.95a252.06,252.06,0,0,1-41.4,16.91c4.42,3.92,8.65,7.49,12.65,11.3,2.1,2,4,4.44,2.24,7.64-1.55,2.86-4.36,2.78-7.11,2.68-4.81-.19-8.83-2.47-12.78-4.91-1-.57-1.89-1.8-3-1.15-1.56.85-.6,2.4-.41,3.64.51,3.22,1,6.46,1.74,9.65.53,2.38-.08,4.27-2.15,5.39s-4,0-5.61-1.55c-3.3-3.11-4.95-7.28-7.32-11.35-3.12,2.31-3.55,6.44-6.21,8.91s-5.31,5.78-9.43,3.7c-4.36-2.15-2.94-6.2-2.07-9.72.56-2.22,1.55-4.33,2.77-7.63a194,194,0,0,1-50.63,8.87c8.91,5.05,18.43,8.4,28.07,11.34,9.39,2.84,18.89,5.28,28.33,7.94,2.71.76,4.78,1.16,4.5-2.95-.24-3.7,1.87-6.2,5.47-7.18s6.44.63,8.61,3.34c2.86,3.55,3.94,7.86,4.7,12.27.24,1.44,0,3.47,2.15,3.47,1.71,0,2.55-1.49,2.91-3.12.83-3.76,1.48-7.57,3.47-11a24,24,0,0,1,7.49-7.89c2.31-1.54,4.68-2.78,7.47-1s2.73,4.44,2.22,7.2c-.21,1-.6,2.08-1.16,4,24.82-5,48.56-10.62,71.87-23.13-6-.53-10.41-.89-14.91-1.31-2.71-.26-5.78-.47-6.33-3.83-.68-4,2.91-4.46,5.39-5.68,4.62-2.31,9.71-1.79,15.34-1.52-2.12-2.88-4-5.28-5.69-7.78-2.17-3.21-4.06-6.54-4.24-10.57-.32-6.94,3.53-9.62,9.87-6.72,4.46,2,7.84,5.44,11,9.88,2.23-4.63,3.16-9.42,6.37-13,2-2.21,4-3.78,6.94-2.71,3.18,1.16,3.16,3.9,3.16,6.7,0,3.16-1.15,6-2,9l-.35,1.39,1.3-.41a43.89,43.89,0,0,1,13-6.14c3.07-.84,6.23-1.35,8.17,2.07,1.77,3.09,0,5.39-1.92,7.73-3.85,4.62-9.14,7.21-15.7,10.89,8.94.72,16.19,0,23.28,1.81,3,.78,5.9,1.48,5.91,5.11,0,3.47-3,4-5.63,4.73-8.46,2.44-16.74.31-25.67-1.5,2.63,5.16,6.48,8.92,7.62,14,.94,4.21,3.4,9.42-1.34,12.11-5.08,2.89-8.29-1.95-11.43-5.3-3.74-4-4.31-9.73-7.44-14.34-2.9,2.58-3.71,6.06-5.51,8.93-2.38,3.81-5.08,7.25-9.14,9.37a5.31,5.31,0,0,1-6.43-.62c-2.09-1.8-2.19-4-1.09-6.27,1.29-2.66,2.71-5.25,4.88-9.42-15.55,7.63-30.37,12-45.51,15.42-8.1,1.83-16.13,3.67-24.28,5.31-5.5,1.16-9.25,4.55-12.42,8.76-.69.92-1.64,1.9-.88,3.07s2.06.86,3.16.57c2.22-.6,4.43-1.27,6.6-2a22.8,22.8,0,0,1,15.29-.3c3,1.05,5.05,3,4.89,6.34s-2.15,5.63-5.4,6.72c-3.47,1.16-6.86,0-10.25-.52-2-.32-4.62-2-5.9-.08-1.6,2.45,1.46,4,2.79,5.68,2.5,3.2,5.18,6.23,5.53,10.56.22,2.79,0,5.44-2.66,7.13s-5.13.62-7.5-.9c-5.85-3.77-6.94-9.76-7.79-16-.24-1.82,1.06-5.09-1.91-5.06-2.51,0-2,3.32-2.38,5.28-.64,3.39-.91,6.86-1.45,10.27s-2.24,5.78-6,5.84-6.52-1.07-8.09-5c-2.83-7.07.81-12.19,4.52-17.34.73-1,1.62-2,2.55-3.11-3.33-1-4.78,3.46-7.89,2.1.83-3.23,3.73-4.05,6.25-5.27a3.15,3.15,0,0,1,4.09,1.07c1.25,1.5.62,2.72-.48,4.06-2.06,2.52-3.93,5.2-5.91,7.79a9.17,9.17,0,0,0-1.15,9.25,5.77,5.77,0,0,0,5.65,4.07c2.73,0,3.89-2.16,4.15-4.68.3-3,1.54-5.86,1.21-9.08-.39-3.93.51-8.26,5.22-8.5s3.7,4.35,4.07,7.39c.56,4.79.9,9.63,4.71,13.27,1.85,1.75,4,3.76,6.55,2.31,3-1.67,1.81-4.72,1.15-7.25-1-3.68-4.09-6-6.32-8.83-1.45-1.84-2.83-3.83-1.46-6.28s3.9-2.08,6.18-1.75c3.59.53,7.06,2,10.81,1.31,2.55-.45,4.38-1.77,4.62-4.42s-1.87-3.47-4-4.18c-5.71-1.93-11-.29-16.18,1.85-3.24,1.32-6.81,2.86-9.32-.95-2.71-4.11.86-6.15,3.34-8.52,3.89-3.68,8.44-6.8,10.66-12,.77-1.8,1.43-3.71-.23-5.35-1.84-1.81-3.6-.51-5.19.5-5.78,3.59-8.8,9-9.84,15.57-.57,3.61-2.31,5.58-5.78,7.06a45,45,0,0,1-14.33,3.56,14.35,14.35,0,0,0-10.78,5.94c-2.48,3.38-1,6.93,3.17,7.51a26.61,26.61,0,0,0,4.55-.18c-1.65,4.93-5.09,3.26-7.83,1.68-5-2.84-4.77-6.93-1.57-11.14-24.28-6-45.09-18.19-66-32.82.4,6,.91,10.88,1,15.77A657.86,657.86,0,0,1,279.48,446c-6.22,33.07-13.51,65.9-18.24,99.28-.91,6.5-6.05,3-9.19,3.23-3.88.26-1.77-2.91-1.44-4.63,8-41.94,18.5-83.42,25-125.62,6.15-39.58,9.83-79.44,7.71-119.6a38.4,38.4,0,0,0-.28-4c-.17-1.16-.27-2.66-1-3.16-1.47-1-2.31.7-3.27,1.53a69.94,69.94,0,0,1-32.74,17.34c-3.47.74-6.94,1.33-10.61,2,3.25,2.66,9.57,2.58,7.69,9-.91,3.13-9.35,4.83-14.16,3-2.14-.8-4.17-1.89-6.24-2.85-.53-.28-1-1.32-1.63-.56-.49.58-.08,1.33.68,1.68,1.4,4.77,4.62,8.91,4.88,14.09.1,2.31.28,4.88-2.55,5.78-2.63.83-3.71-1.4-4.85-3.16-1.82-2.8-3.56-5.67-5.87-9.37-.64,4-1,6.75-1.54,9.5-.41,2.08-1.62,3.62-3.87,3.6-2.06,0-2.8-1.69-3.47-3.39a43.25,43.25,0,0,1-2.21-19.95c-4.71,2.31-8.09,5.78-12.8,6.35-2.06.28-4.35,1.16-5.57-1.44-1-2.11.31-3.68,1.66-5.12a23.26,23.26,0,0,1,11.21-6.79c2.45-.64,2.71-1.42,1-3.9-8.1-12-20.49-16.62-33.34-20.81-.64,1.81.43,3.37.63,5.05.26,2.12.56,4.47-1.7,5.68s-3.95-.53-5.41-2.09c-3.39-3.64-6.43-7.63-11.56-11.1.81,4.23,1.42,7.67,2.14,11.08a15.57,15.57,0,0,1,.11,8,5.15,5.15,0,0,1-4.41,4c-2.87.33-3.61-1.76-4.28-3.78-1.55-4.72-3-9.47-4.69-14.94-3.8,4.52-6.28,9.36-10.81,12.26-2,1.23-3.88,2.95-6.26,1.15s-1.43-4.09-.59-6.3c1.53-3.94,3-7.89,4.63-11.82,1-2.39.51-3.55-2.31-3.47a28,28,0,0,1-14.39-3.62c-1.79-1-4-1.83-3.9-4.5.15-2.92,2.64-3.47,4.72-4.4,4.39-1.91,9.1-.92,14.44-1.51-2.69-6-4.89-11.9-5.14-18.26-.08-2-1.06-4.45,1.56-5.6s4.22.89,5.78,2.61c3.92,4.29,6.1,9.73,10.3,15.73.38-8.65,3.12-15.15,8.09-20.65,1.77-2,3.47-3.89,6.34-2.42,2.55,1.3,2.31,3.74,2,6.07-.67,5.52-1.15,11.07-3.65,17.46,6-2.75,10.6-5.78,16.09-6.32,2.44-.22,5.19-1,6.68,1.82s-.46,4.74-2.16,6.59c-2.86,3.11-5.78,6.21-8.74,9.25-1.8,1.82-1.78,3,.57,4.36,8.4,4.68,16.65,9.68,25.86,12.72,1.23.4,2.9,1.08,3.8.59,6.69-3.66,9.91.63,13.13,5.31.82,1.16,1.4,2.74,3.47,3.29.32-4.22.71-8.28.92-12.36a7.91,7.91,0,0,1,2.44-5.64c2.85-2.74,5.78-2.11,6.94,1.66a45,45,0,0,1,2.38,18.73c4.41-3.76,7.71-6.81,11.27-9.49,2.37-1.78,5-4.07,8.16-1a3.6,3.6,0,0,0,2.7.42c11.19-1.79,22.55-2.9,33-7.9,1.47-.7,3.79-.88,3.55-3.17-.22-2-2.32-1.67-3.71-2-10.25-2.65-20.54-5.18-29.61-11-.33-.19-.78-.57-1-.48-9.57,3.53-11.94-5.78-17.27-9.7-.24-.19-.65-.15-1.33-.29,0,4.21.22,8.36-.07,12.49-.19,2.55-.21,5.87-3.9,6.1-3.21.21-4-2.53-4.62-5-1.06-4.06-2-8.15-3.19-13.09-2.2,3.13-3.72,5.95-5.87,8.17-2.53,2.62-5.64,5.44-9.51,2.4-3.55-2.79-1.94-6.21-.14-9.33,1.41-2.45,2.95-4.84,4.77-7.8-4.47.26-8.1.59-11.67.61-1.94,0-3.92-.56-4.51-2.86s.66-3.62,2.19-5c3-2.63,6.77-4.16,10.85-6.35a73,73,0,0,1-6.78-5.12c-2.32-2.17-5.36-4.23-3.73-8.21.7-1.69-.4-2.39-1.43-3.31-2.72-2.44-5.42-4.91-8-7.48-1.16-1.16-2.52-2.08-4.07-1.48-2,.81-.89,2.46-.59,3.85a12.17,12.17,0,0,1,.3,2.25c0,1.93.27,4.12-2.16,4.79-2.12.58-3.09-1.24-3.93-2.71-1.93-3.33-3.68-6.75-5.55-10.11-.53-.95-.92-2.32-2.38-2.11s-1.59,1.45-1.83,2.6c-.74,3.58-1.4,7.18-2.31,10.71-.7,2.62-1.64,5.49-5.1,5.28-3-.18-4-2.62-4.63-5.21-.71-3.39-1.35-6.79-2.13-10.72-3.26,3.37-5.58,7.18-9.83,8.81-2.06.79-4.06,1.47-5.91-.32s-1.64-3.75-1-5.9c1.15-3.78,4-6.51,6.32-10.32-5.56,1-10.69,2.22-15.89.81-2.32-.62-4.47-1.24-5-4.07-.59-3.11,1.37-4.63,3.59-5.92,4.62-2.74,9.76-3.25,15.7-3.79-4.29-3.82-9-6.17-11.94-10.5-1.38-2.07-3.63-3.92-1.43-6.58s4.91-2.13,7.39-.86c5.42,2.81,10.68,5.9,16.25,9-.11-6.18-5-10.81-4.05-16.83,4.83,4.62,4.7,11.36,7.3,16.93.6,1.3.83,2.72-.36,3.73-1.64,1.38-2.78-.2-4-1-5.33-3.47-10.4-7.27-16.43-9.56-1.22-.46-2.68-1.15-3.62.29-.71,1.16.33,2.12.94,3.09,3.58,5.7,9.25,8.47,15.12,11,2.45,1.07,5.45,1.42,8,5.16-4-.42-6.74-.79-9.51-1-6-.44-11.93-.15-17.34,2.82-1.33.73-3.11,1.33-2.85,3.19.27,2.12,2.23,2.31,4,2.64,5.09.82,9.92-.14,14.73-1.77,2.07-.7,4-2.45,6.56-1.38,0,2.8-2.39,3.84-3.85,5.46-2.44,2.72-5.1,5.26-6.47,8.75-.54,1.38-1.71,2.82-.38,4.28,1.67,1.8,3.23.22,4.63-.49,4.88-2.38,6.62-7.27,9.08-11.56.62-1.07.82-2.92,2.73-2.09,1.39.61.77,1.92.58,3-.72,4.46.29,8.82,1.1,13.16.32,1.74.26,4.38,2.7,4.55,2.7.2,2.39-2.52,2.85-4.24.9-3.34,1.62-6.73,2.51-10.07.54-2.09,1.31-4.23,3.9-4.37,2.32-.14,3,1.95,4.09,3.56,2.18,3.37,2.85,7.76,7.22,11-.7-10-2.91-18.3-10.9-24.74l6,.26a24.65,24.65,0,0,0,17-5.94c1-.85,2.31-1.72,1.83-3.28s-2.07-1.47-3.39-1.64c-7-.88-13.28,1.15-19.38,4.4-1.28.68-2.5,2.66-4.78.74,6-6.94,8.41-15.41,10.65-24,.48-1.82,1.21-4-1.1-5.07-2-.91-3.16.82-4.3,2.08-3.71,4.08-5.78,9-7.41,14.2-.71,2.23,0,6.14-3,6.19-3.64.09-2.55-4.15-3.31-6.44-2.06-6.21-3.68-12.57-7.11-18.22-.84-1.36-1.24-4.13-3.17-3.46-2.57.82-.27,3.27-.56,5a23.93,23.93,0,0,0-.14,2.81c-4-2.23-3.67-6.44-2.69-9.44,1.16-3.73,4.31-2.31,6.26.1,3.2,3.91,5.08,8.57,6.77,13.29,1.21,3.47,2.31,6.87,4,11.86a41.43,41.43,0,0,1,8.17-17.34c2.09-2.58,4.43-4.52,7.9-2.89,3.65,1.71,3.24,4.82,2.22,7.94-1.89,5.78-3.82,11.65-5.78,17.51,1.84,1.56,3.26-.29,4.73-.69a29.2,29.2,0,0,1,13.68-.78c1.91.39,3.87.77,4.44,3.06.52,2.12-.39,3.69-1.9,5.1A28.94,28.94,0,0,1,174,197.32c-2.66.82-3.73,1.54-1.65,4.14,4.79,6,9.25,12.23,14.6,17.85,5.09,5.39,12.21,6.14,19.07,9.61-1.16-3.47-2.08-6.24-3-9.08-.47-1.45-1.52-3.1-1.15-4.39,1.25-5,1-8.93-3.38-12.72-2.31-2,.5-5.28,4.21-5.07,2.31.14,4.21,1.92,7.7,1.16-13.27-26.27-12.3-54.92-14.07-83.12h-1.88c-1.7,2.25-3.31,4.57-5.13,6.72-2.31,2.73-5.12,4.3-8.6,2.31-3.18-1.88-2.38-4.83-1.6-7.72a36.43,36.43,0,0,1,6.76-12.65c2.06-2.69,1.35-3.47-1.77-3.68-9-.71-14.91-6.49-20.41-12.84-1.33-1.54-2.18-3.24-.92-5.25s3.28-2.31,5.55-2c5.63.93,10.21,4.34,15.39,6.34l1,.53-.22-1.26c-2.52-5.62-5-11.23-4.41-17.63.21-2.46.72-4.62,3.3-5.51,2.81-1,4.15,1.15,5.59,2.94,3.66,4.57,4.47,10.48,7.29,15.82,1.53-5.87,2.21-11.71,5.57-16.56,1.69-2.44,3.25-5.86,6.94-4.85s3.93,4.46,4,7.55c.07,3.47-.3,6.85-.49,10.29-.1.68-.53,1.75-.26,2,.81.66,1-.41,1.43-.85,3.56-2.91,6.8-6.22,11.27-7.9,1.82-.68,3.34-1.16,4.63.59s.62,3.38-.6,4.72c-3.07,3.36-6.25,6.61-10,10.59a71.09,71.09,0,0,1,8,.63c3.47.68,8.73.77,8.4,5.22-.35,4.78-5.65,4.23-9.4,4.29a48,48,0,0,1-6.85-.92l-6.3-.85c4.09,5.5,7.84,10.31,11.3,15.32,1.45,2.1,3.68,4.75,1.15,7.23-2.75,2.67-5.47.44-7.66-1.34-3-2.4-5.69-5.14-9.44-8.6,0,3.57.09,6.47,0,9.36-.12,3.73-.55,7.38-4.16,9.6-1.82,1.16-1.54,2.94-1.6,4.62a157.33,157.33,0,0,0,12.59,68.49c.37.88.95,1.66,1.3,2.55s.85,2,1.93,1.41a1.88,1.88,0,0,0,.51-2.58,64.49,64.49,0,0,1-5-10.65c-.67-1.94-1.5-3.54.23-5.13s3.47-1,5.36-.26c6.84,2.63,10,8.62,13.63,14.55a53.34,53.34,0,0,1,4.5-18.76c.75-1.56,1.3-3.33,3.47-3.46,2.46-.14,3.14,1.75,4,3.53,2.94,6.44,3.07,13.32,2.84,21,4.09-2.64,6.94-5.83,10.87-7.37,1.45-.58,2.85-1.25,4.27.07s.51,2.75,0,4.21c-2.08,6.63-6.84,10.9-13.53,14.7,6.93,2,13.2,3.33,19.65,7.3-2.83-21.24-3.73-41.46-.47-61.75-9.25.78-9.25.78-9.73-15.24-3.78,3-7.22,6-11.81,7.2-2,.51-3.81.95-5.33-.75s-1.16-3.59-.38-5.42a41.23,41.23,0,0,1,9.44-13.45c-4.36-2.18-9-3.07-12.51-6.05-1.62-1.37-3.8-2.5-2.92-5.07.81-2.31,3.18-3,5.26-2.78,5.26.44,10.48,1.26,17,2.09-6.49-5.55-12.06-10.31-15-17.16-1.16-2.52-3.47-5.37,0-7.69,3.13-2.11,5.35.26,7.39,2.42l10.55,11.31c.41-7.56.68-14.29,3.55-20.47,1-2.19,2-4.92,5.28-4.41,3,.47,3,3.28,3.47,5.42,1.16,5.61,2,11.27,3.07,17.47,5-3.47,6.12-10.15,12.26-11.31-3.54,6.79-10.53,11.07-13.57,18.41-1.64-9.1-3.3-18.21-5.18-28.63-8.37,10.59-5,21.33-4.84,31.74-5.6-5.58-10.41-11.28-15.37-16.85-1.25-1.4-2.47-4.34-4.87-2.49-2,1.51.26,3.46,1,5.09,2.85,5.89,7.7,10,12.59,14.08,1.47,1.24,4.26,2.32,3,4.88-1.15,2.32-3.47.89-5.22.63-4.39-.65-8.76-1.34-13.14-2-1.52-.23-3.37-.69-4,1.15-.52,1.6,1.29,2.18,2.32,2.87a24.27,24.27,0,0,0,19.82,3.7c1.34-.32,3.67-2.42,4.26.38.41,2-2.21,1.61-3.53,1.86-8.32,1.62-13.55,6.94-17,14.21-.6,1.26-2,2.73-.38,4.13,1.15,1,2.56.25,3.84-.16,4.79-1.59,7.89-5.33,11.24-8.79,1.1-1.16,2.15-3.47,4.1-2.31,1.62,1,0,2.8-.36,4.18A41.5,41.5,0,0,0,261,154c0,1.56,0,3.38,1.73,3.93,2.14.68,3.05-1.15,3.86-2.66,2.31-4.36,2.48-9.25,3.36-13.95.27-1.43.36-3.39,2.22-3.69s2.31,1.62,3.09,2.9c2.07,3.69,3.57,7.76,6.67,10.74,1.38,1.33,2.75,4.06,5.16,2.25,2.09-1.59.15-3.54-.67-5.14-1.32-2.55-2.92-5-4.33-7.49-.75-1.34-1.56-2.75-.21-4.23,1.09-1.16,2.37-.91,3.73-.57,3.18.8,6.34,1.68,9.57,2.21,2,.31,4.62,1,5.59-1.51.87-2.32-1.15-3.88-2.61-5.36a8.65,8.65,0,0,0-5.78-2.17c-3.26-.23-6.52-.48-9.78-.81-1.05-.1-2.59.5-2.95-1-.43-1.83,1.29-2.09,2.48-2.59l16.47-6.94c1.16-.51,2.75-1.06,2.09-2.84-.49-1.4-1.92-1-3-1-5.16,0-9.71,2.09-14.35,4-1.73.71-3.35,2.59-6.16,1,5.37-5.34,10.69-10.27,13.43-17.23,1.32-3.33.77-5.11-2.74-5.85.51-2.84,2.31-2.32,4-1.41,2.31,1.15,2.57,3.33,2,5.48-1.28,4.69-4.38,8.5-6.82,13.19,3.58-.63,6.81-1.45,10.08-1.71,2.54-.21,5.78-1,6.84,2.54s-1.93,4.88-4.19,6.1c-3.66,2-7.58,3.47-11.76,5.4,4.34,1.7,8.89,1.16,12.2,4.32,2.48,2.38,4.63,4.83,3,8.53-1.56,3.47-4.77,2.78-7.55,2.4-3.57-.47-7.09-1.36-11.56-2.31,2.09,4,4,7.19,5.48,10.58,1.15,2.5,1.75,5.39-1.16,7.22-2.65,1.66-4.72-.2-6.72-1.72-3-2.24-4.33-5.78-7.3-9.37-1.71,8.65-3.86,16.55-4.63,24.57s-.21,16.19-.31,24.2c0,2.71,0,4.63,3.68,3s7.86-.59,12.84-.51c-3.38-4.62-6.62-8.09-9-12.18a12.09,12.09,0,0,1-1.81-5.78c-.17-5.21,2.15-6.8,6.76-4.49a39.6,39.6,0,0,1,9.68,7.23c1.46,1.43,3,2.82,4.94,4.7,1.15-4.62,2-8.43,3.11-12.21.86-3,2-6,5.78-6.25s4.09,3.32,5.27,5.78c6.11-7.47,13.87-63.82,13.8-80.45-2.65,1.26-4.68,4.62-8.18,2.55s-3.19-5.58-3.17-8.77c0-3.63.61-7.26,1-10.88a14.75,14.75,0,0,0-.16-1.49l-.94.53c-4.4,1.91-8.73,4-13.23,5.65-2.62,1-6.06,2.14-8.09-.43s-.11-5.62,1.49-8a55.42,55.42,0,0,1,6.56-8c2.44-2.42,5.32-4.4,8.33-6.84-3.31-2.79-7.41-4.77-9.5-8.75-1.46-2.77-3-5.78-.25-8.51,2.94-2.91,5.6-.74,8.09,1.16,2.83,2.18,5.71,4.32,9.5,7.18-.44-5.78-.49-10.56,1.9-14.86,1.15-2,2.22-4.22,5-4.12s4.37,2.1,5.42,4.5c2.31,5.37,2.52,11.22,3.95,17.45,4.13-4.07,7.11-8.88,11.88-11.77,2.1-1.27,4.19-3.19,6.8-1.32s1.33,4.53.48,6.81c-1.4,3.74-3,7.38-4.68,11.39,4,.53,7.62,1,11.18,1.5,2.81.44,5.42,1.51,5.78,4.73s-2.19,4-4.73,4.76c-5,1.47-9.81,3.58-15,4-3.47.3-3.15,1.73-1.89,4q2.74,5.07,5.28,10.26c1.05,2.15.79,4.3-1.38,5.54-1.95,1.15-3.72.12-5-1.51-2.31-2.84-4.51-5.78-6.82-8.59-.81-1-1.39-2.76-2.94-2.41-2,.47-1.27,2.53-1.41,3.9-1.87,19-3.57,37.93-5.54,56.87a140.59,140.59,0,0,1-12.56,44.88l-1.31,1.46c.91.59,1.63.5,2.1-.57,3.28-1.93,6.43-4.13,10.41-4.62,1.88-.22,3.85-.64,5.14,1.4s.17,3.72-.84,5.31c-2.74,4.33-6.52,7.79-10.79,11.75,8,2,17,.66,20.26,10.22-1.16,0-1.32,1.08-1.92,1.69-4.86,2.31-10,1.63-15.35.95,1.66,4.13,4,7.57,3.92,11.77,0,2.08.25,4.52-2.13,5.49s-3.76-1-5.11-2.65c-2.31-2.83-4.06-6.19-7.76-9.06-1.78,16-6.54,30.06-12.18,43.93-.43,1.06-1.32,2.06.23,2.82s1.88-.8,2.55-1.55c2.58-2.82,5-5.78,7.61-8.56,11.62-12.84,22.38-26.24,29-42.47C336.56,211.21,336.56,210.26,336.44,209.24ZM251.54,242l-1.43-.15c.14.45.29.9.44,1.34,6.44,10.85,15.39,19.66,23.87,28.76.77.82,1.67,2,2.85,1.21a5.67,5.67,0,0,0,1.65-2.87,3.82,3.82,0,0,0-.36-2.23c-4.44-11.36-6.15-23.35-8.22-35.27-.38-2.21-.1-6.43-3.18-5.78-5,1.06-10.26-.94-14.89,1.93-2.83.89-4.62-1-4.49-3.07.2-2.31,2.76-1,4.35-.93,4.5.19,9.07,1.15,13.93-1.16-4.68-4.39-10.32-4.91-15.59-6.29-1.8-.47-4.26,0-4.63-2.58s2-2.93,3.66-3.89c5-2.95,9.47-6.31,10.4-13.1-6.69,1.57-9.65,7.95-15.28,10.21-1.16-1.78-.56-3.3-.23-4.74a32.25,32.25,0,0,0-1-17.63c-.5-1.48-.19-4.08-2.44-3.94-1.86.1-2.09,2.46-2.71,4a34.77,34.77,0,0,0-2.42,13.49c0,2.13,1.25,5.17-1.93,5.78-2.65.57-3.1-2.38-4.08-4.11-2.31-4.19-4.2-8.73-8.52-11.42-1.32-.81-2.88-2-4.25-1.07-1.75,1.16-.19,2.82.39,4.11,2.13,4.72,4.42,9.38,6.64,14.09.59,1.25,1,2.57-.2,3.71s-2.55.39-3.65-.35c-2.07-1.4-4.1-2.85-6.07-4.4-3-2.42-6.16-4.63-10.09-5.34-1.06-.19-2.39-.72-2.94.8-.37,1,.41,1.75,1.16,2.38,3.28,2.68,6.94,5.05,9.67,8.18,1.45,1.66,9.13,2.74,1.94,7.16-.37.23-.08,1.83.17,2.7.71,2.32,1.57,4.63,2.65,7.82,2.75-5.3,5.13-10,9.64-12.89,2.19-1.41,4.46-3.55,7.34-1.71,3.35,2.16,1.7,5.18.82,7.79-1.71,5.11-3.71,10.12-5.78,15.51,3.25-.57,5.15-1.8,5.78-4.31,1.29-5,3.89-4.16,7.15-1.87,3.78,2.64,7.7,5.09,11.56,7.57,1.26.82,2.81,2,4.15.81,1.7-1.55,0-3.07-.68-4.62-1.16-2.62-5.18-3.22-4.63-6.94,2.45.46,3.86,2.38,5.33,4.07,2.14,2.43,4.75,5.14,2.68,8.6-2.24,4.08-5.58,1.35-8.52.6Zm231,28.51c-2.5,1.26-3.8-.38-5.31-.91-5.65-2-11-.94-16.26,1.29-1.22.52-2.75,1.16-2.52,2.75s1.86,1.73,3.21,1.8q8.1.4,16.19.77c1.88.09,4.12-.45,5.09,1.75s-.86,3.6-2,5.08c-2.56,3.37-5.32,6.59-7.84,10-1.44,1.95-3.55,4.21-.82,6.51s4.69-.41,6.42-1.89c4.35-3.73,6.53-9,9-14,.85-1.66,1.16-4,3.64-3.8s2.74,2.47,3.36,4.22c2,5.87,4.18,11.62,9.12,15.79,1.5,1.27,3.12,2.61,5.13,1.35,1.75-1.08,1.33-3,1.16-4.75-.72-6.61-4.53-11.72-8.18-17-1-1.4-3.38-2.81-1.58-4.9,1.35-1.58,3.23-.27,4.86.17,7.65,2.06,15.33,3.82,23.3,1.74,1.67-.43,3.82-.35,3.73-2.72s-2.32-2.31-3.92-2.59a72,72,0,0,0-22.63-1.07c-1.84.22-4.23.86-4.8-1.76s2.05-2.89,3.66-3.67c5.78-2.72,11.56-5.41,15.53-10.67.94-1.22,2.13-2.42,1.25-4.11-1.05-2-3-1.54-4.62-1.16A36.43,36.43,0,0,0,499,259.18c-.93.92-2,2.47-3.36,1.56-1.72-1.16-.45-2.78.25-4.08,2.44-4.63,5.14-9.07,5-14.55,0-1.57-.09-3.2-2-3.72-1.54-.43-2.57.63-3.47,1.68a22.72,22.72,0,0,0-5,20c.28,1.31,2,3.29-.3,3.89-2,.54-1.92-1.89-2.38-3.22-2.42-6.93-5.78-13-12.72-16.43-1.71-.84-3.46-2-5.34-.36s-1.64,3.38-1.32,5.31c.79,4.74,3.47,8.48,6.44,12.1,2.47,3.05,5,6,7.6,9.21ZM367.49,256c-2.42.62-2.88-.71-3.64-1.47-4.93-4.84-8.79-10.77-14.72-14.59-1.44-.93-2.92-2.22-4.62-.72s-.82,3-.17,4.7c2.21,5.59,6.58,9.19,11.2,12.63,1.64,1.22,4.07,2.18,3.61,4.72-.49,2.91-3.26,2.07-5.2,2.44-6.13,1.16-12.45,1.81-18.6,6.94,10.68,2.31,19.41.76,27.55-5.35.39,3.36-1.66,3.87-2.83,4.93a33.3,33.3,0,0,0-9.78,16.7c-.49,1.92-1,3.91,1.06,5.18s3.61-.24,5-1.52c3.6-3.18,5.24-7.52,7.11-11.75.59-1.35.87-3.47,2.7-3.38,2.16,0,1.63,2.31,1.94,3.64a24,24,0,0,0,6.31,11.56c.89.92,1.9,2.32,3.39,1.49,1.16-.64.73-2.08.53-3.18-.57-3.22-1.16-6.43-1.88-9.63-.49-2.22-.43-4.37,1.53-5.78s3.59.15,5.19,1.16c4.07,2.66,8.31,5,13.33,5,3.65,0,5.55-1.94,2.91-5-5.17-6-9.84-13.27-21.22-11,3.63-2.4,6-3.89,8.33-5.54C391,255.05,395,251.5,396.69,246c.49-1.6,1.59-3.32-.15-4.8s-3.21-.48-4.82.23c-5.07,2.31-8.75,6.16-12.36,10.21-1.4,1.58-2.31,4.93-5.14,3.53s-.63-4.2-.49-6.34c.33-5.14,2.72-10.09,1.34-15.39-.45-1.76,0-4.12-2.61-4.62-2.82-.49-3.47,1.88-4.45,3.7C363.77,240.11,364.31,248,367.49,256Zm66.86-35.15c-7.93-8.91-18.19-9.8-28.81-9.51-1.27,0-3.07-.52-3.62.94-.78,2,1.4,2.5,2.52,3.25,7.28,5,15.11,8.41,24.12,8.56,1.21,0,2.74-.55,3.78,2-2.13.71-4.2,1.42-6.26,2.14-4.37,1.5-8.83,2.89-12.22,6.25-1.34,1.33-3.17,2.74-2.31,4.89,1,2.54,3.41,1.32,5.09,1,6.37-1.16,12.19-3.47,16.54-8.61.8-1,1.65-2.57,3.2-1.37,1.16.93,0,2.11-.36,3.1-2,5.78-4.91,11.33-5.64,17.53-.24,2.12-.32,4.46,2.18,5.4s3.88-.88,5.08-2.72c2.72-4.19,3.34-8.91,3.86-13.74.28-2.5-1.29-6.52,1.7-7.22,3.53-.82,3.6,3.77,5.11,6,2.07,3,3.58,6.37,5.43,9.53.76,1.27,1.61,3,3.46,2.31s2.17-2.55,2-4.34c-.35-3-2.51-5.13-3.93-7.61s-4.8-4.9-2.31-8.15c2.37-3.07,5.78-1.33,8.53-.23,3.62,1.48,7.13.71,10.68.39,1.38-.13,3-.58,3-2.76s-1.67-2.47-2.94-3a13.12,13.12,0,0,0-4.52-.75c-5.08-.08-10.16,0-15.25,0,4.74-5.09,9.8-8.74,14.74-12.57,2.08-1.61,5.11-3.66,3.18-6.51-2.31-3.35-5.09-.46-7.47.87-5.36,3-9,7.7-12.66,12.45-1.15,1.51-1.89,4.77-4.41,3.47-2-1.07-.07-3.47.45-5.19,1.87-6.08,3.84-12.14,4.53-18.5.22-2,1.57-5.23-1.56-5.86-2.94-.59-3.34,2.7-4.12,4.73a42.31,42.31,0,0,0-2.19,14.08c0,1.89.77,4.16-1.58,6.07-2.08-4.85-4-9.47-6.93-13.45-1.54-2-2.65-6.47-5-5.39-3,1.39-1.15,5.47-.63,8.41.85,4.92,4.38,8.74,5.56,14.06ZM338.61,63.07c-.28-2.32.82-2.91,1.57-3.7a35.7,35.7,0,0,0,8.59-14.21c.44-1.44,1.29-3.3,0-4.34s-2.84.49-4,1.38c-5.28,4.06-9.67,8.82-11.82,15.3-.4,1.23-.68,2.93-2.54,2.37-1.46-.44-.89-1.91-.88-3a69,69,0,0,0-3.08-21.07c-.52-1.73-1.15-3.47-3.23-3.59-2.47-.18-3.16,1.74-3.84,3.6-2,5.36-1.41,10.55.81,15.73.54,1.29,2.31,3,.7,4.13-2,1.46-2.89-1.16-4-2.12-2.91-2.52-5.46-5.47-8.5-7.8C306,44,303.43,39.1,300.44,42.3c-3.19,3.47,1.26,6.63,3.8,8.85s5.9,3.57,8.89,5.3c.86.5,1.75,1.16,1.57,2.2s-1.29,1.24-2.31,1.28c-9.34.48-13.24,7.59-17.43,14.31-.7,1.16-1.95,2.37-1.09,3.66,1,1.56,2.83.75,4.24.43C304,77,309,73.54,314.23,70.71c1.1-.59,2.31-1.86,3.65-.7s.43,2.5-.09,3.75a28.42,28.42,0,0,0-2,15.32c.26,1.77.58,3.65,2.47,4.19,1.71.49,2.76-1.07,3.75-2.2a29.66,29.66,0,0,0,5.16-9.6c1.16-3.16-1.58-8.67,1.58-9.12s5,5.15,7.58,7.89S340.24,87,345,88.46c-.94-5.54-4.22-9.24-6-13.63-1.42-3.46-1.07-5.46,3.29-5.78,5.22-.31,10.11-2.31,15-3.78,1.34-.4,3.46-.36,3.36-2.46-.07-1.9-1.92-2.16-3.38-2.6A20.61,20.61,0,0,0,338.61,63.07Zm-206,209.16c-3.58,1.45-5.41-.14-7.37-.64A34.41,34.41,0,0,0,107,272c-1.78.52-3.89,2-1.15,3.3,5.15,2.45,10,6.66,16.57,4.38a4,4,0,0,1,4.33.69c1.15,1.26-.18,2.52-.66,3.7-1.83,4.45-3.77,8.85-5.55,13.32-.39,1-1.26,2.23-.22,3.19,1.29,1.16,2.49.13,3.55-.66,4.62-3.41,7.51-8.09,9.58-13.43.38-1,.58-2.49,2.11-2.31s1.59,1.5,1.9,2.56c1.43,4.8,2.69,9.64,4.22,14.41.54,1.64.25,4.62,2.86,4.24,3-.5,2.62-3.47,2.21-5.7-.79-4.15-2-8.23-2.8-12.38-.39-2-2-4.63.1-5.86,2.58-1.51,3.92,1.64,5.48,3.08,3,2.73,5.62,5.79,8.57,8.59,1.16,1.07,2.11,3.69,3.85,2.63,2.31-1.4.9-3.86,0-5.7-3-6.15-7.28-10.87-15-11.45,7.93-2.94,12.72-9,17.72-14.85.93-1.09,2.78-2.11,1.67-3.85-1-1.55-2.83-.95-4.28-.68a29.55,29.55,0,0,0-17.34,9.65c-.83,1-1.77,2.73-3.18,1.88-1.85-1.15-.31-2.74.31-4a52.72,52.72,0,0,0,5.43-21.1c.06-1.27.68-2.87-.88-3.6s-2.47.88-3.29,1.75c-5.33,5.62-7.33,12.5-7.19,20.09,0,1.56.25,3.47-1.52,4-2.12.67-2.32-1.5-3-2.75-2.32-4.19-4.49-8.52-7.12-12.55-1.32-2-2.46-6.1-5.37-4.69-2.15,1-.94,4.94-.24,7.48C120.61,262.67,124.92,268.3,132.59,272.23Zm166.2-77.81A48.85,48.85,0,0,0,283,177.65c-1.42-.9-2.87-2.77-4.56-1.52-1.94,1.45-.62,3.47.08,5.24,2.32,5.7,6.34,10,10.72,14.14,1.32,1.24,4.13,2.31,3.11,4.28-1.24,2.31-3.8.3-5.62-.13a31.31,31.31,0,0,0-10.3-.73c-1.47.15-3.47.08-3.7,2-.29,2.23,1.8,2.75,3.47,3.2,4.15,1.16,8.39.75,12.62.47,1.08-.07,2.47-.67,3.15.61.95,1.75-.88,2.31-1.81,3.06a44.15,44.15,0,0,0-8.7,9.25c-1.28,1.79-3.39,3.82-.82,6,2.31,1.95,4.45.26,6.11-1.29s3.2-3.81,4.84-5.67c1.15-1.32,1.33-3.76,4.34-3.63.61,5.63-2.11,11.16-.63,17.34,5.59-3.47,7-8.72,8.3-14.11.37-1.57.15-3.77,2.31-4.27s2.82,1.57,3.94,2.78c3.47,3.71,5.6,8.56,10.72,12.15.67-10.07-4.33-15.81-12.09-20,2.31-1.26,3.35-.12,4.62.22,5,1.33,9.76,3.8,15.11,3.24,1.76-.18,4.44,0,4.77-2.31.25-1.84-2.12-2.45-3.62-3.2-4.33-2.16-8.95-2.42-13.58-2.6-1.56-.07-3.26-.27-3.67-2.13-.36-1.63,1.15-2.31,2.25-3a38.25,38.25,0,0,0,9.36-9.25c.76-1.07,1.94-2.31.95-3.6s-2.52-.53-3.79-.26c-4.62,1-7.37,4.55-10.18,8-1.34,1.64-1.78,4.43-4.85,4.36-.89-2.47.48-4.63.92-6.74A54.47,54.47,0,0,0,307.8,174c-.12-1.52-.14-3.33-2.06-3.67S303,171.5,302.49,173c-.88,2.75-1.7,5.52-2.44,8.3-1.12,4.22-.05,8.58-1.26,13.11ZM223.87,117c-2.73-7.25-7-11.87-11.23-16.54-2-2.31-4.92-4.16-1.81-7.74.93-1.07.67-3-1.1-2.87-3.68.25-2.51-1.67-2-3.55,1.61-6.15,3-12.35,2.69-18.78-.09-1.74-.16-3.66-2.31-4.17s-3,1.15-3.93,2.7c-3.47,5.78-4.74,12.13-5.21,18.74-.11,1.78.67,4.56-1.85,4.74-2.31.16-2.31-2.66-2.85-4.41a93.64,93.64,0,0,0-5.94-15.63c-.87-1.65-1.51-4-4-3.47-2.69.54-1.78,3-1.79,4.81,0,6.44,3,11.82,6.08,17.18.81,1.4,2.57,3.06.83,4.62-1.39,1.16-2.85-.47-4.09-1.24-5.26-3.22-10.4-6.56-16.54-8-1.25-.3-2.8-.74-3.47.93-.56,1.25.36,2.15,1.16,3,5.05,5.66,10.71,10.29,18.82,11,5.78.55,6.41,2.12,3,6.84-2.87,4-5.52,7.85-6.86,12.6-.45,1.69-1.07,3.47,1,4.56,1.76.9,3.38.23,4.71-1.16,2.64-2.63,4.16-6,5.78-9.25,1.42-3,.91-6.64,4.24-10.83-.1,7.69.11,13.71,1.62,19.56.48,1.9.7,4.15,3.25,4,2.82-.13,3.11-2.52,3.09-4.69,0-4-.28-8.09-.33-12.13,0-1.63-.72-3.82,1.42-4.55s2.86,1.51,3.94,2.73C213.75,110.27,216.91,115,223.87,117ZM206.7,239.09c-6.66,1-12.46,3.07-17.55,6.94-.91.71-2,1.4-1.6,2.75s1.78,1.34,2.89,1.39c4.1.15,8-1,11.92-2,1.16-.27,2.32-.82,3.15.37s-.21,2.2-.82,3.09c-2.32,3.34-4.7,6.59-6.94,10-1.16,1.79-2.31,3.87.23,5.48,2.31,1.44,4.19.13,5.47-1.64,1.91-2.64,3.35-5.63,5.27-8.26,1.16-1.57,1.61-4.63,4.22-3.92,2.09.6,1.31,3.31,1.57,5.12.78,5.35.84,10.93,4.8,16.44,2.7-6.82,1.57-12.64.68-18.5-.25-1.73-1.43-4.15,1-5.12,2.13-.84,2.73,1.6,3.85,2.76,3.86,4,6.8,9,12.12,12.72,1-6.69-2.32-10.4-5.78-14.13-1.51-1.63-4.49-2.75-3.84-5.3.75-2.9,4.18-2.12,6.39-3,2.63-1.06,6.07-.21,8.09-3.34-6.84-4.5-12.84.44-20.41,1.78,6.18-6.74,8.73-13.76,10.83-21,.4-1.39,1.49-3.1-.09-4.27s-3.25.13-4.63,1.09c-4,2.72-6.09,6.81-8.22,10.95-1,1.94-.91,5.57-3.53,5.34-3-.25-1.55-3.77-2.09-5.78-1.64-6.23-2.91-12.58-8.39-17.23-1.57,2.69-.77,4.92,0,7,1.38,3.79,3,7.5,4.53,11.24.44,1.07,1.16,2.24.07,3.16s-2.11-.08-3-.68c-4.39-2.81-8.91-5.35-14.15-6.25-1.05-.19-2.31-1.07-3,.47-.63,1.31.26,2.15,1,3a24.71,24.71,0,0,0,7.82,5.78C201.21,236.94,204,238,206.7,239.09Zm134.27,36c-3.55-1.58-7.22-.87-7.54-4.47s3.19-4.4,5.64-5.63c4.95-2.5,10.56-2.87,15.83-4.17-.07-2.57-1.95-3.23-3.27-4.08a21.84,21.84,0,0,1-9.45-11.88c-1.34-4.18-2.95-3.25-5.52-1.16-11.36,9.18-22.88,18.14-35.59,25.44a8.55,8.55,0,0,0-4.5,8.09c0,2,.92,3.38,3.05,3.4C313.22,280.75,326.74,280.22,341,275.06Zm-48.71-54.34c-2.07,1.69-3.47,2.95-5,4.05-2.86,2.06-6,3.11-8.91.35-3.2-3-1.22-6,.82-8.66s4.35-5.52,7.09-9c-6-.26-11-.32-15.72-3-1.07,6,.41,11.42,1.23,16.86,2.06,13.67,3.12,27.56,8.63,40.46.77,1.81.61,4.91,4.18,4.42,3.22-.44,6.44-.23,7.88-4.3,3.46-9.95,7.61-19.71,10.11-30.06.38-1.57,1.05-3.2-.21-5.07l-3.46,3.93c-1.3,1.49-2.72,2.93-4.91,2-2-.83-1.72-2.8-1.74-4.51,0-2.16,0-4.44,0-7.49Zm-84.39,89.72a76.91,76.91,0,0,0-11.32-15.39c-1.3-1.39-2.71-3.23-4.85-1.67-2.52,1.84-.78,3.79.43,5.46,2.31,3.27,4.63,6.63,8.09,8.9,1.57,1,3.61,2,2.94,4.41-.53,2-2.43,2.2-4.1,2.68-5,1.46-9.82,3.17-12.52,8.35,3,1.41,5.18,0,7.27-1.16,2.51-1.42,4.76-3.25,7.18-4.82,1.22-.79,2.4-2.43,4.06-1.27s.39,2.8.23,4.24a60.88,60.88,0,0,0-.62,6.87,25,25,0,0,0,3.84,14.13c2.52-6.48,1.47-11.92,2-17.22.17-1.58-.81-4.17,1.45-4.37s1.83,2.52,2.31,4.06c2,5.92,4,11.84,9.78,16.82.55-7.52-3-12.62-5.78-17.92-.82-1.54-2.1-3.1-.55-4.69s3.23-.33,4.62.54c4.53,2.72,9.17,4.95,14.67,4.08,1.5-.23,3.24-.36,3.6-2.31.39-2.17-1.1-3.12-2.88-3.64-4.63-1.33-9.25-2.59-13.87-3.92-1.45-.41-3.47-.45-3.72-2.21s1.65-2.43,3-3.14c4.48-2.44,8.43-5.39,10.53-10.26.44-1,1.47-2.07.18-3s-2.2,0-3,.78c-3.29,3-6.52,6-9.8,8.94-1.09,1-2,2.76-3.76,2.15-2-.68-1.75-2.74-1.93-4.41-.55-4.78-1-9.56-1.61-14.34-.16-1.36-.6-2.77-2.31-2.88a2.91,2.91,0,0,0-3.13,2.64s0,.08,0,.12a39.87,39.87,0,0,0-.47,5.78c0,5.36.08,10.71.08,17.74ZM305,293.87a172.69,172.69,0,0,0,30.27,21c13.05,7.26,25.92,7.32,41.18.35-25.15-6.14-49-11.48-71.46-21.34Zm-33.16-18.75a111.32,111.32,0,0,1-25.07-29.89c-.84-1.4-1.74-1.95-3.25-1.15-3.1,1.72-6.59,2-10,2.76-1.15.25-3.62,1-1.92,2.31,4.63,3.59,5.39,10.06,9.7,13.31C250.2,269.19,260.72,272.76,271.82,275.12Zm2.63,14.51c-3-1.09-4.81.47-6.7,1.15-6.93,2.45-14,5.39-21.18,4.86-10.27-.76-13.12,7-19.06,13.2,18.8-.32,33.33-7.85,46.88-19.21Zm94.24,7.77a4.76,4.76,0,0,0-4.26,2.57,5.78,5.78,0,0,0,.45,6c1.37,2.16,3.7,3.34,5.91,4.45s4.52,4,6.39,2.31c1.66-1.45-.19-4.62-.91-6.93-1.24-3.95-2.8-7.73-7.64-8.44ZM212.63,92c5.39,2,10.8,3.63,16.58,2.83a3.46,3.46,0,0,0,2.31-1.43c.56-1-.35-1.82-1.31-2.05C224.29,89.89,218.41,88.7,212.63,92Zm-3-2.18c6.74-3.22,14.9-10.89,17.34-16.4C218.64,76.65,213.84,82.11,209.6,89.79Zm94.26,204.06v-1a6.09,6.09,0,0,0-1.35,0c-.55.15-.52.45,0,.64s.89.24,1.35.36Z"/><path class="cls-1" d="M92.49,308.16c0-75.71.09-151.45-.17-227.15,0-6.23,1.84-7.46,7.6-7.38,22,.35,43.93.16,65.9.21a14.66,14.66,0,0,1,4.47.55c1,.35.82,1.69.62,2.59-.61,2.59-2.76,1.54-4.28,1.55-21.19,0-42.39.21-63.59-.09-5-.07-5.89,1.45-5.89,6.11q.19,222.83,0,445.64c0,5.46,1.61,6.52,6.68,6.5,44.89-.18,89.78-.09,134.67-.09h4.63c1.85,0,2.23,1.06,2.21,2.6s-.65,2.11-2.07,2.12h-2.89c-47.4,0-94.8-.09-142.21.14-5.09,0-5.78-1.69-5.78-6.18q.21-113.58.11-227.15Z"/><path class="cls-1" d="M386,541.36H271.61c-1.35,0-2.2-.46-2.19-2s.17-2.74,2.06-2.74h4.62c71.68,0,143.29-.08,214.93.15,5.92,0,7.11-1.62,7.1-7.28q-.31-106.9-.14-213.78v-4.62c0-1.74.75-2.32,2.45-2.32s2.4.87,2.38,2.48v2.89q0,110.64.11,221.28c0,4.75-1.1,6.12-5.94,6.1C460,541.27,423,541.36,386,541.36Z"/><path class="cls-2" d="M421,180.18c-2.31,2.1-.95,4.46-.69,6.94.34,3.33,3.18,8.63-.82,9.51-3.37.75-4.12-5.16-5-8.6-.75-3-1-6.06-1.58-9.08-.22-1.27,0-3.08-1.75-3.23-2-.18-2.25,1.79-2.65,3.21-1.49,5.36-2.18,11-5,15.91-1.16,1.91-2,4.87-4.86,4-3.4-1-2-4.18-1.72-6.43.62-5,2.58-9.65,4.31-14.34.52-1.41,1.4-3-.24-4.19s-2.87.41-4,1.33c-3.85,3.19-7.61,6.51-11.46,9.7-1.63,1.37-3.57,2.92-5.55.91-1.67-1.72-.26-3.59.67-5.25,3.2-5.73,8.36-8.85,14.41-10.82,1.37-.47,3.47-.48,3.35-2.49s-2.31-1.55-3.69-1.85q-7.6-1.62-15.22-3.28c-1.5-.33-3.29-.48-3.47-2.45-.16-2.2,1.66-2.86,3.29-3.47,5-1.82,9.84-.9,14.63,1,1.67.66,3.47,2.31,5.11,0,1.32-1.91-.43-3.27-1.27-4.62-2.26-3.58-4.74-7-7-10.56-.69-1.05-1.77-2.51,0-3.47,1.29-.67,2,.75,2.62,1.64,2.58,3.6,5.08,7.25,7.69,10.84,1.06,1.45,1.69,3.46,4.46,3.72-.26-3.84-.77-7.54-.73-11.24a23.28,23.28,0,0,1,4.73-13.41c1.08-1.49,2.31-2.69,4.34-1.83,1.75.78,1.67,2.5,1.47,4-.87,6.09-1.82,12.17-2.77,18.25-.24,1.6-1.76,3.61.61,4.51s3.11-1.5,4-3.11c4.08-7.11,8.75-13.62,16.9-16.6,2.15-.79,4.37-2.31,6.51-.58s.74,4.22.2,6.42c-2.14,8.56-9,12.52-15.9,16.49-1.53.88-3.76,1-4.44,3.14a1.55,1.55,0,0,0,2.49.38c7.79-5.47,16.47-4.31,25.11-3.47,1.73.19,3.69.47,3.78,2.74s-1.86,2.82-3.47,3.28a52.12,52.12,0,0,1-18.26,1.85c-1.61-.12-3.76-1.15-4.24,1.39-.41,2.24,1.75,2.67,3.29,3.37,4,1.81,8.09,3.46,12.05,5.47,1.73.87,4.72,1.55,3.61,4.28-1,2.37-3.39.8-5.13.44-4.57-1-8.7-3.06-12.82-5.13-1.73-.87-3.47-1.89-5.47-1.16s-2.64,1.7-.41,3Z"/><path class="cls-1" d="M426,73.81c23.89,0,47.77.09,71.68-.1,3.95,0,5.22.88,5.21,5-.17,48.15-.12,96.31-.13,144.52v2.87c0,1.6-.52,2.54-2.31,2.62S498,228,498,226.35v-4c0-45.84-.13-91.69.08-137.58,0-5.17-1.42-6.3-6.4-6.29-45.45.2-90.91.13-136.42.13h-4.62c-1.55,0-2-.86-2-2.19,0-1.51.29-2.64,2.17-2.56H426Z"/><path class="cls-2" d="M137.64,163a23.93,23.93,0,0,1,.14-2.81c.29-1.7-2-4.15.56-5,1.93-.61,2.31,2.16,3.17,3.47,3.46,5.64,5.05,12,7.11,18.22.76,2.31-.33,6.52,3.31,6.44,3,0,2.32-4,3-6.2,1.64-5.19,3.7-10.12,7.41-14.2,1.15-1.26,2.31-3,4.3-2.08,2.31,1.07,1.58,3.25,1.1,5.08-2.24,8.55-4.63,17.06-10.65,24,2.31,1.92,3.47,0,4.78-.74,6.1-3.19,12.39-5.28,19.38-4.4,1.32.17,2.9,0,3.39,1.64s-.79,2.43-1.83,3.28a24.64,24.64,0,0,1-17,5.92l-6-.26c8,6.44,10.19,14.7,10.9,24.74-4.37-3.2-5-7.59-7.23-11-1-1.61-1.71-3.7-4.08-3.56-2.59.14-3.36,2.31-3.9,4.37-.89,3.34-1.61,6.73-2.51,10.07-.47,1.72-.15,4.44-2.85,4.24-2.44-.17-2.38-2.81-2.7-4.56-.81-4.33-1.82-8.69-1.1-13.15.18-1.16.81-2.43-.58-3-1.91-.83-2.11,1-2.73,2.09-2.46,4.31-4.21,9.25-9.08,11.56-1.44.71-3,2.31-4.63.49-1.33-1.46-.16-2.91.38-4.28,1.37-3.47,4-6,6.47-8.75,1.46-1.62,3.86-2.66,3.84-5.46-2.54-1.07-4.48.68-6.55,1.38-4.81,1.63-9.64,2.59-14.73,1.77-1.73-.29-3.69-.53-4-2.64-.26-1.86,1.52-2.46,2.85-3.19,5.46-3,11.38-3.26,17.34-2.82,2.77.21,5.52.58,9.51,1-2.52-3.74-5.52-4.09-8-5.16-5.88-2.56-11.56-5.33-15.12-11-.61-1-1.65-2-.94-3.09.94-1.48,2.4-.75,3.62-.29,6,2.31,11.1,6.13,16.43,9.56,1.24.79,2.38,2.37,4,1,1.16-1,1-2.42.36-3.72-2.6-5.57-2.47-12.32-7.31-16.94Z"/><path class="cls-2" d="M364.31,334.08a25.63,25.63,0,0,1-4.55.18c-4.15-.52-5.65-4.12-3.17-7.51a14.34,14.34,0,0,1,10.78-5.93A45.21,45.21,0,0,0,381.72,317c3.47-1.48,5.17-3.47,5.78-7.06,1-6.55,4.08-12,9.84-15.58,1.6-1,3.35-2.31,5.19-.49,1.67,1.64,1,3.54.23,5.35-2.22,5.17-6.77,8.29-10.66,12-2.48,2.37-6,4.42-3.34,8.52,2.51,3.82,6.08,2.32,9.32.95,5.25-2.14,10.5-3.78,16.19-1.85,2.1.72,4.17,1.56,4,4.19s-2,4-4.62,4.41c-3.75.65-7.22-.77-10.81-1.3-2.31-.34-4.74-.81-6.17,1.74s0,4.44,1.45,6.28c2.23,2.86,5.31,5.16,6.33,8.83.7,2.54,1.92,5.59-1.16,7.25-2.59,1.44-4.69-.58-6.54-2.31-3.82-3.63-4.15-8.47-4.72-13.26-.37-3,.77-7.65-4.07-7.4s-5.61,4.62-5.21,8.51c.32,3.21-.92,6.05-1.22,9.07-.25,2.53-1.42,4.75-4.15,4.69a5.78,5.78,0,0,1-5.65-4.07,9.16,9.16,0,0,1,1.15-9.25c2-2.59,3.85-5.27,5.91-7.79,1.1-1.34,1.74-2.57.49-4.06a3.16,3.16,0,0,0-4.09-1.08c-2.53,1.23-5.43,2-6.26,5.28v-.13c-1.4.26-2.4.74-1.16,2.31h0c-1.68-1.16-2,0-2.39,1.31Z"/><path class="cls-1" d="M259.11,73.79h21.28c1.79,0,4.16-.61,3.93,2.58-.19,2.68-2.23,2.14-3.85,2.14H236.75c-1.72,0-3.58.32-3.62-2.31s1.84-2.39,3.53-2.39Z"/><path class="cls-1" d="M365.4,146.87c-.2.94-.38,1.89-.57,2.83-.22-.17-.44-.37-.65-.56.18-.88-.46-2.23,1.28-2.22Z"/><path class="cls-1" d="M367.78,330.76c-1.16-1.61-.21-2.08,1.16-2.31C370.09,329.94,368.81,330.3,367.78,330.76Z"/><path class="cls-1" d="M365.39,332.07c.34-1.27.7-2.51,2.39-1.31C367.54,332.23,366.35,331.94,365.39,332.07Z"/><path class="cls-2" d="M287.86,95.94c3.47.74,4.06,2.53,2.74,5.85-2.74,6.94-8.1,11.9-13.44,17.24,2.81,1.62,4.43-.26,6.17-1,4.62-1.91,9.24-4,14.34-4,1.09,0,2.51-.43,3,1,.66,1.78-.95,2.32-2.09,2.85-5.47,2.38-11,4.62-16.48,6.93-1.15.51-2.9.77-2.47,2.59.36,1.51,1.89.91,2.95,1,3.26.32,6.52.58,9.78.81a8.69,8.69,0,0,1,5.78,2.17c1.49,1.48,3.47,3.1,2.61,5.36-1,2.53-3.62,1.82-5.6,1.51-3.22-.53-6.39-1.41-9.57-2.21-1.35-.35-2.63-.62-3.72.57-1.35,1.48-.54,2.89.21,4.23,1.41,2.51,3,4.94,4.32,7.49.82,1.6,2.76,3.55.67,5.13-2.4,1.82-3.78-.91-5.15-2.24-3.1-3-4.63-7.05-6.68-10.74-.71-1.28-1.15-3.22-3.08-2.9s-2,2.31-2.22,3.69c-.88,4.71-1.05,9.59-3.37,14-.81,1.55-1.72,3.34-3.86,2.66C261,157.35,261,155.59,261,154A41.15,41.15,0,0,1,262.57,142c.36-1.39,2-3.18.36-4.19-1.94-1.15-3,1.16-4.09,2.32-3.35,3.46-6.45,7.2-11.25,8.78-1.27.42-2.67,1.16-3.84.16-1.65-1.39-.22-2.86.38-4.12,3.47-7.32,8.73-12.59,17.06-14.21,1.31-.26,3.94.14,3.52-1.86-.59-2.8-2.91-.71-4.25-.38a24.26,24.26,0,0,1-19.85-3.73c-1.07-.69-2.87-1.27-2.31-2.86.61-1.85,2.46-1.4,4-1.16,4.39.67,8.76,1.36,13.14,2,1.8.27,4.1,1.64,5.22-.62,1.26-2.56-1.53-3.66-3-4.87-4.89-4.1-9.75-8.2-12.59-14.08-.76-1.6-3-3.59-1-5.1,2.39-1.85,3.62,1.16,4.87,2.5,5,5.57,9.77,11.27,15.36,16.84-.16-10.4-3.52-21.14,4.85-31.73,1.88,10.4,3.53,19.52,5.18,28.62,3-7.34,10-11.62,13.57-18.4Z"/><path class="cls-2" d="M482.5,270.55c-2.6-3.17-5.13-6.16-7.58-9.25-2.92-3.62-5.66-7.35-6.44-12.09-.33-1.93-.4-3.87,1.31-5.32s3.63-.47,5.35.36c6.93,3.4,10.3,9.54,12.71,16.44.47,1.33.35,3.76,2.38,3.21,2.26-.6.58-2.57.3-3.88a22.75,22.75,0,0,1,5-20c.86-1,1.89-2.1,3.47-1.68,1.88.52,1.92,2.15,2,3.73.12,5.48-2.58,10-5,14.54-.69,1.31-2,2.93-.24,4.08,1.37.92,2.42-.63,3.35-1.56a36.33,36.33,0,0,1,17.71-10.32c1.64-.38,3.55-.85,4.63,1.15.87,1.69-.32,2.89-1.25,4.12-4,5.26-9.78,7.94-15.54,10.67-1.61.77-4.21,1-3.65,3.66s2.95,2,4.79,1.76a71.67,71.67,0,0,1,22.63,1.08c1.64.32,3.82.29,3.92,2.59s-2.06,2.31-3.73,2.71c-8,2.08-15.65.33-23.3-1.73-1.63-.44-3.47-1.76-4.86-.17-1.8,2.09.6,3.46,1.59,4.9,3.64,5.22,7.45,10.33,8.17,16.95.18,1.72.6,3.66-1.16,4.75-2,1.26-3.63-.08-5.13-1.35-4.94-4.18-7.11-9.92-9.12-15.8-.61-1.74-1-4-3.35-4.22s-2.8,2.14-3.65,3.81c-2.49,5-4.62,10.23-9,13.95-1.74,1.48-3.69,4.2-6.43,1.9s-.61-4.57.82-6.51c2.52-3.4,5.28-6.63,7.84-10,1.15-1.48,2.92-2.95,2-5.09s-3.22-1.65-5.1-1.74q-8.1-.36-16.19-.78c-1.35-.07-3-.14-3.21-1.79s1.3-2.23,2.52-2.75c5.26-2.23,10.61-3.33,16.26-1.3C478.7,270.17,480,271.81,482.5,270.55Z"/><path class="cls-2" d="M367.49,256c-3.16-8.09-3.72-15.87.47-23.49,1-1.81,1.63-4.18,4.46-3.7,2.61.45,2.16,2.81,2.61,4.63,1.37,5.29-1,10.24-1.34,15.38-.14,2.14-2.16,5,.48,6.34s3.75-1.94,5.15-3.53c3.6-4,7.28-7.94,12.36-10.21,1.6-.71,3.2-1.61,4.82-.23s.63,3.21.15,4.8c-1.67,5.48-5.7,9-10.13,12.21-2.31,1.65-4.69,3.14-8.32,5.54,11.37-2.25,16,5.07,21.21,11,2.65,3,.74,5-2.9,5-5,0-9.25-2.31-13.33-5-1.61-1-3.2-2.6-5.19-1.15s-2,3.53-1.54,5.78c.68,3.19,1.32,6.4,1.88,9.63.2,1.15.62,2.53-.53,3.18-1.49.85-2.49-.58-3.38-1.5a24.05,24.05,0,0,1-6.32-11.56c-.31-1.34.22-3.59-1.94-3.64-1.83,0-2.1,2-2.69,3.38-1.88,4.23-3.47,8.58-7.11,11.75-1.45,1.28-2.93,2.81-5.06,1.52s-1.54-3.26-1.06-5.18A33.3,33.3,0,0,1,360,270.29c1.16-1.07,3.23-1.58,2.83-4.94-8.09,6.12-16.86,7.65-27.55,5.35,6.15-5.08,12.48-5.78,18.61-6.93,1.94-.37,4.7.46,5.2-2.44.45-2.55-2-3.47-3.62-4.73-4.62-3.47-9-7-11.19-12.63-.66-1.66-1.54-3.26.16-4.7s3.23-.21,4.63.73c5.93,3.81,9.79,9.74,14.71,14.59C364.61,255.27,365.07,256.6,367.49,256Z"/><path class="cls-2" d="M365.47,146.92c-1.74,0-1.16,1.34-1.27,2.22-2.87,2-4.55,7.6-8,6.14s-1.07-6.63-1.16-10.12a26.87,26.87,0,0,1,3.11-13.87c.61-1.16,2.58-2.73.33-3.81-1.58-.75-2,1.32-2.59,2.42-3.28,6.52-9.07,9.1-15.83,10.16-1.16.18-2.49.52-3.2-.55s.29-2.17,1-3.07a45.16,45.16,0,0,1,14-11.89c1.55-.89,4.35-1.16,4.05-3.47-.36-2.78-3.38-2-5.25-2.46-5.25-1.16-10.63-1.9-15.57-4.15-1.76-.8-3.81-1.73-3.25-4.13.61-2.66,3-1.85,4.82-1.85,5.49,0,10.54,2,15.59,3.89,1.43.55,2.86,1.55,4.25.11,1.66-1.75.33-3.25-.73-4.56-4.5-5.52-5.36-11.8-3.84-18.49.86-3.81,2.88-4.48,5.45-1.32a43.65,43.65,0,0,1,8.34,15c.45,1.52,0,4,2.32,4.16s2.31-2.31,3.12-3.71c2.69-4.7,5.32-9.4,9.51-13,1-.83,2.07-2.19,3.47-1.45s.62,2.42.47,3.62c-.89,6.94-4.86,12-9.64,16.63a16.92,16.92,0,0,0-3.32,4.79c7.8-4.3,15.84-3.53,23.94-2.1,2.31.42,4.92,1,4.74,4-.17,2.76-2.78,2.76-4.86,3.05-5.91.81-11.83,1.54-17.73,2.31-4,.56-5,2.56-2.61,5.91,2.1,3,4.42,5.85,6.36,8.94,1.23,1.94,4,4.33,1.27,6.51s-4.48-.8-6-2.66c-2.68-3.27-5.16-6.71-7.79-10-.68-.86-1.42-2-2.82-1.3-1.08.53-.83,1.61-.82,2.53Q365.34,139.15,365.47,146.92Z"/><path class="cls-2" d="M434.35,220.83c-1.16-5.32-4.71-9.14-5.57-14.06-.51-2.94-2.4-7,.63-8.41,2.31-1.08,3.47,3.35,5,5.39,3,4,4.86,8.6,6.93,13.45,2.31-1.91,1.53-4.18,1.57-6.07A42.36,42.36,0,0,1,445.24,197c.77-2,1.15-5.32,4.11-4.73,3.14.63,1.78,3.82,1.57,5.86-.7,6.33-2.66,12.39-4.54,18.5-.52,1.7-2.48,4.12-.45,5.19,2.52,1.32,3.25-1.95,4.42-3.47,3.65-4.75,7.29-9.48,12.66-12.45,2.38-1.33,5.18-4.22,7.47-.87,1.93,2.84-1.1,4.9-3.18,6.51-4.94,3.83-10,7.48-14.74,12.57h15.25a13.2,13.2,0,0,1,4.52.75c1.27.48,3,.75,2.93,2.95s-1.63,2.63-3,2.76c-3.55.32-7.07,1.09-10.69-.39-2.71-1.16-6.16-2.84-8.53.23-2.49,3.25.86,5.64,2.31,8.15s3.59,4.62,3.94,7.6c.19,1.8,0,3.67-2,4.35s-2.74-1-3.47-2.31c-1.85-3.16-3.35-6.53-5.42-9.53-1.52-2.19-1.58-6.78-5.11-6-3,.7-1.42,4.71-1.7,7.22-.52,4.82-1.16,9.55-3.86,13.74-1.16,1.84-2.54,3.67-5.09,2.71s-2.41-3.27-2.17-5.39c.73-6.2,3.67-11.72,5.64-17.53.35-1,1.57-2.17.36-3.1-1.55-1.16-2.41.41-3.2,1.37-4.35,5.15-10.18,7.46-16.55,8.61-1.67.29-4.06,1.51-5.08-1-.87-2.15.95-3.56,2.31-4.89,3.38-3.37,7.85-4.75,12.22-6.26,2.06-.71,4.12-1.42,6.25-2.13-1-2.5-2.56-1.94-3.78-1.95-9-.15-16.83-3.62-24.11-8.56-1.16-.76-3.3-1.28-2.53-3.25.56-1.46,2.32-.9,3.62-.94C416.16,211,426.42,211.93,434.35,220.83Z"/><path class="cls-2" d="M338.61,63.07a20.64,20.64,0,0,1,18.66-2.81c1.46.44,3.31.7,3.38,2.6.08,2.1-2,2-3.37,2.46-5,1.51-9.86,3.47-15,3.78-4.36.27-4.7,2.31-3.28,5.78,1.81,4.36,5.1,8.09,6,13.63-4.71-1.48-6.08-5.51-8.67-8.22s-4.34-8.36-7.57-7.9-.42,6-1.58,9.13A29.51,29.51,0,0,1,322,91.11c-1,1.16-2,2.7-3.76,2.21-1.88-.54-2.21-2.43-2.46-4.2a28.42,28.42,0,0,1,2.09-15.26c.52-1.25,1.31-2.64.1-3.74s-2.56.1-3.66.69c-5.23,2.83-10.18,6.29-16.11,7.62-1.41.32-3.23,1.16-4.25-.43-.85-1.28.4-2.54,1.09-3.65,4.2-6.73,8.09-13.87,17.43-14.31,1,0,2.1-.14,2.32-1.29s-.72-1.7-1.58-2.19c-3-1.74-6.33-3.08-8.89-5.31s-6.93-5.38-3.8-8.84c3-3.26,5.53,1.61,7.87,3.46,3,2.32,5.6,5.29,8.5,7.81,1.16,1,2.06,3.57,4,2.11,1.59-1.15-.16-2.84-.71-4.12-2.22-5.18-2.81-10.41-.81-15.74.68-1.86,1.38-3.78,3.84-3.59,2.1.16,2.72,1.86,3.24,3.58A69.33,69.33,0,0,1,329.59,57c0,1.06-.58,2.54.88,3,1.86.55,2.14-1.16,2.55-2.37,2.15-6.49,6.54-11.25,11.81-15.31,1.16-.89,2.5-2.54,4-1.37s.5,2.9.06,4.33a35.68,35.68,0,0,1-8.59,14.21A3.33,3.33,0,0,0,338.61,63.07Zm-.33,1.3c-.41-1.77-.86-2-1.4-1.71-.86.36-1.77.79-1.59,1.94.07.49.34,1.08,1.08.73s1.66-.83,1.91-1Z"/><path class="cls-2" d="M132.59,272.23c-7.67-3.92-12-9.55-14-16.86-.7-2.54-1.91-6.44.24-7.48,2.91-1.41,4,2.66,5.37,4.7,2.63,4,4.77,8.35,7.12,12.54.7,1.25.85,3.47,3,2.75,1.77-.57,1.56-2.42,1.52-4-.14-7.59,1.86-14.47,7.19-20.09.82-.87,1.67-2.5,3.29-1.74s.94,2.31.88,3.59a52.85,52.85,0,0,1-5.44,21.09c-.62,1.24-2.16,2.85-.31,4,1.41.84,2.31-.93,3.18-1.89a29.54,29.54,0,0,1,17.27-9.71c1.45-.27,3.31-.87,4.28.68,1.15,1.75-.74,2.76-1.67,3.85-5,5.78-9.79,11.91-17.72,14.86,7.78.58,12,5.29,15,11.44.91,1.84,2.31,4.3,0,5.7-1.75,1.07-2.71-1.56-3.85-2.62-2.95-2.76-5.58-5.86-8.57-8.59-1.56-1.45-2.9-4.63-5.48-3.09-2.11,1.24-.49,3.9-.1,5.86.82,4.15,2,8.23,2.8,12.38.41,2.24.82,5.21-2.21,5.7-2.61.42-2.31-2.6-2.86-4.24-1.53-4.76-2.79-9.61-4.22-14.4-.31-1.07-.46-2.47-1.9-2.57s-1.73,1.38-2.11,2.31c-2,5.33-4.87,10.11-9.49,13.47-1.06.79-2.31,1.85-3.55.66-1-1-.17-2.22.22-3.19,1.78-4.48,3.72-8.87,5.55-13.32.49-1.16,1.8-2.44.66-3.7a4,4,0,0,0-4.32-.69c-6.54,2.31-11.43-1.93-16.58-4.38-2.71-1.3-.59-2.78,1.15-3.3a34.3,34.3,0,0,1,18.26-.37C127.18,272.08,129,273.67,132.59,272.23Z"/><path class="cls-2" d="M298.79,194.41c1.16-4.53.14-8.95,1.28-13.17.77-2.79,1.58-5.55,2.44-8.3.48-1.51,1.38-3,3.24-2.66s1.95,2.15,2.06,3.67a54.09,54.09,0,0,1-1.06,15.49c-.44,2.16-1.81,4.28-.92,6.74,3.07.07,3.47-2.72,4.85-4.36,2.81-3.47,5.5-6.94,10.18-8,1.28-.27,2.84-1,3.8.26s-.2,2.54-1,3.6a38.25,38.25,0,0,1-9.36,9.25c-1.07.73-2.61,1.36-2.25,3,.42,1.86,2.12,2.06,3.68,2.13,4.62.19,9.24.44,13.49,2.57,1.5.75,3.87,1.36,3.62,3.2-.33,2.31-3,2.09-4.77,2.31-5.35.56-10.12-1.92-15.11-3.25-1.25-.33-2.31-1.48-4.62-.22,7.76,4.24,12.72,10,12.09,20-5.12-3.59-7.29-8.44-10.72-12.15-1.15-1.16-1.76-3.31-3.94-2.79s-1.94,2.71-2.31,4.28c-1.28,5.39-2.71,10.64-8.3,14.11-1.48-6.17,1.24-11.7.63-17.35-3-.12-3.17,2.32-4.34,3.63-1.64,1.87-3,4-4.83,5.68s-3.82,3.24-6.12,1.28c-2.57-2.16-.46-4.19.82-6a44.2,44.2,0,0,1,8.71-9.25c.92-.72,2.75-1.31,1.8-3.07-.68-1.27-2.07-.67-3.15-.6-4.23.28-8.47.71-12.62-.47-1.62-.45-3.71-1-3.47-3.2.24-1.9,2.23-1.83,3.7-2a31.31,31.31,0,0,1,10.3.73c1.82.42,4.38,2.46,5.62.12,1-1.92-1.79-3-3.11-4.27-4.38-4.12-8.44-8.44-10.72-14.14-.7-1.77-2-3.79-.08-5.24,1.69-1.25,3.14.61,4.56,1.51A49,49,0,0,1,298.79,194.41Z"/><path class="cls-2" d="M252.17,228.9c-.59,3.69,3.47,4.29,4.62,6.93.64,1.54,2.38,3.07.68,4.63-1.34,1.24-2.89,0-4.15-.81-3.89-2.49-7.81-4.94-11.56-7.57-3.26-2.32-5.86-3.18-7.14,1.87-.65,2.51-2.54,3.73-5.78,4.31,2-5.4,4-10.4,5.78-15.51.88-2.62,2.53-5.63-.82-7.8-2.88-1.83-5.16.31-7.34,1.72-4.51,2.89-6.94,7.59-9.65,12.89-1.07-3.15-1.94-5.46-2.64-7.82-.26-.88-.55-2.47-.18-2.7,7.19-4.42-.48-5.51-1.94-7.16-2.75-3.13-6.38-5.5-9.66-8.19-.77-.62-1.54-1.34-1.16-2.38.54-1.51,1.87-1,2.94-.8,3.93.71,7.05,2.93,10.09,5.35,2,1.55,4,3,6.07,4.4,1.16.74,2.31,1.58,3.64.35s.8-2.46.21-3.71c-2.22-4.71-4.51-9.37-6.65-14.1-.58-1.28-2.14-2.91-.38-4.1,1.36-.93,2.92.25,4.24,1.06,4.33,2.7,6.18,7.24,8.52,11.43,1,1.73,1.44,4.68,4.08,4.11,3.18-.67,2-3.71,1.94-5.78A34.83,34.83,0,0,1,238.34,186c.63-1.58.86-3.94,2.72-4,2.24-.14,1.94,2.46,2.44,3.94a32.16,32.16,0,0,1,1,17.63c-.32,1.44-.89,3,.23,4.74,5.63-2.26,8.59-8.64,15.29-10.21-.89,6.79-5.37,10.15-10.41,13.1-1.62,1-3.94,1.53-3.65,3.9s2.77,2.1,4.62,2.57c5.28,1.38,10.92,1.9,15.6,6.29-4.87,2.32-9.43,1.38-13.93,1.16-1.6,0-4.15-1.35-4.36.94-.17,2,1.67,3.95,4.5,3.06Z"/><path class="cls-2" d="M223.87,117c-6.94-2.06-10.12-6.76-13.76-10.88-1.09-1.15-1.84-3.47-3.94-2.73s-1.4,2.93-1.4,4.56c0,4,.3,8.09.33,12.13,0,2.17-.27,4.55-3.1,4.69-2.54.13-2.76-2.13-3.24-4-1.51-5.85-1.73-11.88-1.62-19.56-3.33,4.18-2.82,7.87-4.25,10.83-1.58,3.29-3.09,6.62-5.78,9.25-1.33,1.33-2.94,2-4.7,1.15-2-1-1.41-2.86-1-4.55,1.35-4.8,4-8.68,6.87-12.65,3.46-4.72,2.81-6.29-3-6.84-8.11-.75-13.77-5.38-18.88-11.16-.78-.87-1.69-1.77-1.16-3,.72-1.66,2.31-1.22,3.47-.92,6.1,1.43,11.28,4.77,16.54,8,1.24.76,2.7,2.45,4.1,1.24,1.73-1.52,0-3.18-.84-4.63-3.11-5.35-6.11-10.74-6.08-17.18,0-1.78-.9-4.26,1.79-4.81,2.46-.49,3.09,1.89,4,3.47A92.77,92.77,0,0,1,194.2,85c.54,1.76.56,4.63,2.86,4.42,2.52-.19,1.73-3,1.85-4.74.46-6.62,1.75-13,5.2-18.74.9-1.49,1.8-3.21,3.93-2.71s2.21,2.43,2.31,4.18c.33,6.42-1.07,12.62-2.69,18.77-.5,1.88-1.67,3.8,2,3.55,1.77-.13,2,1.8,1.1,2.88-3.11,3.57-.21,5.48,1.81,7.73C216.85,105.16,221.14,109.78,223.87,117Z"/><path class="cls-2" d="M206.7,239.09c-2.72-1.15-5.49-2.15-8.09-3.46a24.75,24.75,0,0,1-7.82-5.78c-.77-.88-1.66-1.73-1-3,.75-1.54,2-.66,3-.48,5.23.9,9.76,3.47,14.15,6.26.93.6,1.93,1.64,3.05.68s.37-2.09-.07-3.17c-1.55-3.73-3.16-7.44-4.53-11.24-.76-2.09-1.56-4.32,0-7,5.48,4.62,6.75,11,8.39,17.22.53,2-.9,5.55,2.08,5.78,2.63.24,2.54-3.39,3.54-5.34,2.13-4.14,4.24-8.23,8.22-10.95,1.41-1,2.91-2.37,4.63-1.08s.49,2.88.09,4.26c-2.11,7.21-4.63,14.22-10.83,21,7.57-1.34,13.57-6.27,20.41-1.78-2.06,3.14-5.5,2.32-8.09,3.35-2.21.9-5.64.11-6.39,3-.65,2.56,2.31,3.68,3.83,5.31,3.47,3.72,6.72,7.43,5.78,14.13-5.31-3.69-8.25-8.66-12.11-12.72-1.16-1.16-1.72-3.61-3.85-2.76-2.45,1-1.27,3.38-1,5.12.89,5.85,2,11.66-.68,18.5-4-5.52-4-11.09-4.8-16.44-.26-1.82.52-4.52-1.57-5.13-2.61-.75-3.08,2.32-4.22,3.92-1.92,2.64-3.36,5.62-5.27,8.27-1.29,1.77-3.17,3.07-5.47,1.63-2.58-1.61-1.41-3.69-.23-5.48,2.22-3.36,4.62-6.61,6.93-9.95.62-.89,1.66-1.88.83-3.09s-2-.65-3.15-.37c-3.92,1-7.83,2.11-11.92,2-1.15,0-2.47,0-2.89-1.38s.68-2,1.6-2.75C194.24,242.17,200,240.13,206.7,239.09Z"/><path class="cls-2" d="M207.82,310.47V292.73a39.87,39.87,0,0,1,.47-5.78,2.89,2.89,0,0,1,3-2.76h.12c1.67.11,2.11,1.52,2.31,2.88.58,4.78,1.06,9.56,1.61,14.34.18,1.67-.07,3.73,1.93,4.41,1.77.61,2.67-1.15,3.77-2.15,3.27-3,6.5-6,9.79-8.94.84-.77,1.87-1.65,3-.78s.26,2.05-.17,3c-2.11,4.87-6.06,7.82-10.54,10.26-1.3.71-3.22,1.34-2.94,3.14s2.31,1.8,3.71,2.21c4.62,1.33,9.25,2.59,13.87,3.92,1.78.52,3.27,1.47,2.88,3.64-.36,1.91-2.09,2-3.6,2.31-5.5.87-10.14-1.36-14.67-4.08-1.43-.87-3.09-2.17-4.62-.54s-.27,3.15.55,4.69c2.81,5.3,6.3,10.41,5.78,17.92-5.78-5-7.78-10.9-9.78-16.82-.52-1.54-.21-4.25-2.31-4.06s-1.28,2.79-1.45,4.37c-.54,5.3.51,10.74-2,17.22A25,25,0,0,1,204.74,327a60.88,60.88,0,0,1,.62-6.87c.16-1.44,1.38-3.11-.23-4.24s-2.84.48-4.06,1.27c-2.42,1.57-4.63,3.4-7.18,4.82-2.09,1.16-4.31,2.6-7.27,1.16,2.7-5.18,7.53-6.94,12.52-8.35,1.67-.48,3.57-.7,4.1-2.68.67-2.44-1.37-3.39-2.93-4.41-3.47-2.31-5.79-5.63-8.1-8.9-1.15-1.67-3-3.62-.43-5.45,2.14-1.57,3.55.27,4.85,1.66A77.45,77.45,0,0,1,207.82,310.47Z"/><path class="cls-2" d="M368.63,297.4c4.84.71,6.4,4.49,7.64,8.39.72,2.31,2.57,5.53.91,6.94-1.87,1.64-4.29-1.26-6.39-2.32s-4.54-2.31-5.91-4.45a5.76,5.76,0,0,1-.45-6A4.75,4.75,0,0,1,368.63,297.4Z"/><path class="cls-2" d="M212.63,92c5.78-3.27,11.66-2.08,17.54-.65,1,.23,1.86,1,1.3,2.05a3.44,3.44,0,0,1-2.31,1.43C223.43,95.6,218,94,212.63,92Z"/><path class="cls-2" d="M209.6,89.79c4.24-7.68,9.06-13.14,17.34-16.4C224.5,78.9,216.33,86.57,209.6,89.79Z"/><path class="cls-1" d="M338.28,64.37c-.25.13-1.07.56-1.91,1s-1-.24-1.08-.73c-.18-1.15.73-1.58,1.59-1.94C337.42,62.42,337.87,62.6,338.28,64.37Z"/></svg>