<?xml version="1.0" encoding="utf-8"?>
<!-- Generator: Adobe Illustrator 22.0.0, SVG Export Plug-In . SVG Version: 6.00 Build 0)  -->
<svg version="1.1" id="Layer_1" xmlns="http://www.w3.org/2000/svg" xmlns:xlink="http://www.w3.org/1999/xlink" x="0px" y="0px"
	 viewBox="0 0 814 41.5" style="enable-background:new 0 0 814 41.5;" xml:space="preserve">
<style type="text/css">
	.st0{fill:#004A98;}
	.st1{fill:#FFFFFF;}
	.st2{fill:#15195A;}
	.st3{fill:#FF5F00;}
	.st4{fill:#EB001B;}
	.st5{fill:#F79E1B;}
	.st6{fill:#006ED2;}
	.st7{fill:#FED72B;}
	.st8{fill:#1C6EB7;}
	.st9{fill:#007DC3;}
	.st10{fill:#FDBB30;}
	.st11{fill:#1F1D4A;}
	.st12{clip-path:url(#SVGID_2_);}
	.st13{clip-path:url(#SVGID_4_);}
	.st14{fill:#C7CA12;}
	.st15{clip-path:url(#SVGID_6_);}
	.st16{fill:#002570;}
	.st17{fill:#DF2638;}
	.st18{clip-path:url(#SVGID_8_);}
</style>
<title>payment_methods</title>
<path class="st0" d="M182.3,33.9c6.5,0,12.5-5.3,12.5-11.8c0-7.1-5.9-12-12.5-12h-5.6c-6.5-0.1-11.9,5-12,11.5l0,0
	c0,0.2,0,0.4,0,0.5c0.1,6.6,5.4,11.8,12,11.8H182.3z"/>
<path class="st1" d="M179.2,28.4V15.5c3.6,1.4,5.4,5.3,4,8.9C182.5,26.3,181,27.7,179.2,28.4 M169.8,22c0-2.9,1.8-5.4,4.4-6.4v12.9
	C171.6,27.4,169.8,24.9,169.8,22 M176.7,11.1c-6,0-10.9,4.9-10.9,10.9s4.9,10.9,10.9,10.9c6,0,10.9-4.9,10.9-10.9c0,0,0,0,0,0l0,0
	C187.6,16,182.7,11.1,176.7,11.1"/>
<path class="st2" d="M37.3,20.2c0,2.3,2,3.5,3.6,4.3s2.1,1.3,2.1,2c0,1-1.3,1.5-2.5,1.5c-1.5,0-2.9-0.3-4.2-1l-0.7,3.5
	c1.5,0.6,3,0.8,4.5,0.8c4.3,0,7.1-2.1,7.1-5.4c0-4.2-5.8-4.4-5.7-6.3c0-0.6,0.5-1.2,1.7-1.3c1.4-0.1,2.8,0.1,4,0.7l0.7-3.4
	c-1.2-0.5-2.5-0.7-3.8-0.7C40.1,15,37.2,17.1,37.3,20.2 M54.9,15.3c-0.8,0-1.5,0.4-1.8,1.2L47,31.1h4.3l0.8-2.4h5.3l0.5,2.4h3.8
	l-3.3-15.8L54.9,15.3 M55.5,19.5l1.2,5.9h-3.4L55.5,19.5 M32.1,15.3l-3.4,15.8h4.1l3.4-15.8L32.1,15.3 M26,15.2L21.8,26L20,16.9
	c-0.1-0.9-0.9-1.6-1.9-1.6h-7l-0.1,0.5c1.4,0.3,2.7,0.7,4,1.3c0.6,0.2,0.9,0.8,1,1.4L19.3,31h4.3l6.6-15.8L26,15.2"/>
<rect x="107.5" y="12.1" class="st3" width="12.1" height="21.6"/>
<path class="st4" d="M108.3,22.9c0-4.2,2-8.2,5.3-10.8c-6-4.7-14.6-3.7-19.3,2.3S90.6,29,96.6,33.7c5,3.9,12,3.9,17,0
	C110.2,31.1,108.3,27.1,108.3,22.9"/>
<path class="st5" d="M135.8,22.9c0,7.6-6.1,13.8-13.7,13.8c-3.1,0-6.1-1-8.6-3c6-4.7,7-13.4,2.3-19.4c-0.7-0.9-1.4-1.6-2.3-2.3
	c6-4.7,14.7-3.6,19.3,2.3C134.7,16.8,135.8,19.8,135.8,22.9"/>
<path class="st6" d="M282.8,11.6h3.3c0.6,0,0.8,0.1,0.9,0.8c0.4,2.7,0.7,5.3,1.1,8l1.4,10c0,0.1,0,0.3,0,0.4
	c0.1,0.8,0.1,0.8-0.7,0.8h-4.1c-0.5,0-0.8-0.2-0.8-0.7c0-1.4-0.7-2.7-1.8-3.5c-0.9-0.7-1.7-1.5-2.5-2.2c-0.3-0.2-0.5-0.6-0.3-1
	c0.1-0.4,0.5-0.6,0.9-0.5c0.8,0,1.6,0,2.4,0c0.3,0,0.4-0.1,0.4-0.4c-0.3-2-0.5-4.1-0.8-6.1c0-0.1,0-0.3-0.1-0.4s0-0.3-0.1-0.4
	s-0.2,0.2-0.3,0.3c-1.6,3.1-3.3,6.2-5,9.3c-0.9,1.7-1.8,3.3-2.7,5c-0.2,0.4-0.6,0.7-1.1,0.7c-1.5,0-3,0-4.5,0
	c-0.5,0-0.5-0.1-0.3-0.5l10.3-19c0.2-0.4,0.6-0.7,1.1-0.6C280.6,11.6,281.7,11.6,282.8,11.6z"/>
<path class="st6" d="M260.5,11.2c3.3-0.1,6.4,1.6,8.1,4.4c0.1,0.1,0.1,0.3,0.2,0.4c0.1,0.1,0.1,0.4-0.2,0.6
	c-1.2,0.6-2.4,1.2-3.7,1.8c-0.4,0.3-1.1,0.3-1.4-0.2c0,0,0,0,0,0c-1.6-1.8-4.2-2.3-6.3-1c-2,1-3.2,3-3.2,5.2c0,2.5,2,4.4,4.5,4.4
	c0.1,0,0.2,0,0.3,0c1.6,0,3-0.8,4-2c0.3-0.6,1-0.8,1.5-0.5c0.1,0,0.1,0.1,0.2,0.1c1,0.5,2,1.1,3,1.6c0.3,0.1,0.3,0.3,0.1,0.6
	c-2.8,3.8-6.5,5.8-11.3,5.3c-4.7-0.5-8.2-4.6-8-9.4c0.3-5.7,4.6-10.4,10.2-11.3C259.3,11.3,259.9,11.2,260.5,11.2z"/>
<path class="st6" d="M242.1,12.4c-2.2-1.2-4.8-1.6-7.2-1c-5.6,1.2-9.6,6.1-9.6,11.7c0.1,3.9,2.6,7.3,6.3,8.4c3.2,1,6.7,0.5,9.5-1.4
	c3.4-2,5.5-5.7,5.6-9.6C246.8,17.2,245,14.1,242.1,12.4z M236.1,26.8c-0.2,0-0.5,0-0.7,0.1c-2.5,0.1-4.6-1.9-4.7-4.4
	c0-0.4,0-0.8,0.1-1.2c0.6-2.6,2.8-4.5,5.4-4.7c2.3-0.2,4.4,1.5,4.6,3.8c0,0.2,0,0.4,0,0.6C241.1,23.8,239,26.3,236.1,26.8z"/>
<path class="st7" d="M331.8,8.5c0,0.4,0.1,0.8,0.1,1.1c0.2,1.6,0.4,3.2,0.5,4.8c0,0.3,0,0.3-0.3,0.4c-0.9,0.3-1.8,0.9-2.5,1.6
	c-0.7,0.8-1.2,1.7-1.5,2.7c-0.3,1.2-0.4,2.5-0.2,3.7c0.1,0.8,0.4,1.6,1,2.2c0.7,0.8,1.8,1.2,2.9,1c0.3,0,0.5-0.1,0.8-0.1
	s0.2,0,0.2,0.2v5.5c0,0.2,0,0.2-0.2,0.2c-0.8,0.2-1.7,0.3-2.6,0.3c-1.6-0.1-3.1-0.9-4.1-2.2c-0.7-0.9-1.3-2-1.6-3.2
	c-0.5-1.6-0.7-3.3-0.6-5c0.1-2.8,0.8-5.5,2.1-7.9c0.8-1.6,2-3,3.4-4.1c0.7-0.5,1.4-1,2.3-1.3L331.8,8.5z"/>
<path class="st8" d="M341.3,32.3c-0.1-0.4-0.2-0.7-0.3-1c-0.8-2.5-1.7-5-2.5-7.5c-0.1-0.1,0-0.3,0.1-0.4c0.6-0.8,1-1.7,1.2-2.6
	c0.1-0.6,0.1-1.2,0-1.7c-0.1-0.2-0.2-0.4-0.3-0.6c-0.3-0.4-0.7-0.6-1.1-0.6c-0.1,0-0.2,0-0.1,0.1V18c0,4.4,0,8.9,0,13.4v0.1
	c0,0,0,0.1-0.1,0.1c0,0,0,0,0,0h-2.5c-0.1,0-0.1,0-0.1-0.1v-0.2c0-5.2,0-10.4,0-15.6c0-0.4,0-0.8,0-1.1c0-0.2,0-0.2,0.2-0.2
	c1.2,0,2.4,0,3.5,0.2c0.5,0.1,0.9,0.2,1.4,0.4c0.8,0.4,1.5,1.1,1.8,2c0.2,0.7,0.3,1.5,0.3,2.2c0,0.9-0.2,1.7-0.5,2.6
	c-0.2,0.6-0.5,1.1-0.9,1.7c-0.1,0.1-0.1,0.3,0,0.5c0.7,1.4,1.3,2.8,2,4.2l0.4,0.8c0,0.1,0,0.2,0,0.3c-0.7,1-1.4,2.1-2.1,3.1
	L341.3,32.3z"/>
<path class="st8" d="M345.7,23c0-2.8,0-5.6,0-8.4c0-0.2,0-0.2,0.2-0.2c1.5-0.1,3-0.2,4.6-0.4l0,0c0.3,0,0.3,0,0.3,0.3
	c0,1.1,0,2.3,0,3.4c0,0.3,0,0.2-0.2,0.3l-2.1,0.1c-0.2,0-0.2,0-0.2,0.2v2.8c0,0.1,0,0.1,0.1,0.1h0.7l1.2-0.1c0.1,0,0.1,0,0.1,0.1
	c0,0.3,0,0.7,0,1c0,0.8,0,1.7,0,2.5c0,0.2,0,0.2-0.2,0.2l-1.7-0.1h-0.1c-0.1,0-0.1,0-0.1,0.1c0,0,0,0,0,0v2.7c0,0.1,0,0.1,0.1,0.1
	h0.2c0.8,0,1.5,0,2.3,0c0.2,0,0.2,0,0.2,0.2c0,1.3,0,2.5,0,3.8c0,0.2,0,0.2-0.2,0.2l-2-0.1l-3.1-0.1c-0.2,0-0.2,0-0.2-0.2
	C345.8,28.5,345.7,25.7,345.7,23z"/>
<path class="st8" d="M384.3,21c0,0.1,0,0.1,0,0.2v3.4l0,0c0,0.2,0,0.2-0.2,0.2h-0.7l-1.1-0.1c-0.2,0-0.2,0-0.2,0.2v2.5
	c0,0.2,0,0.2,0.2,0.2c0.7,0,1.5,0,2.2,0h0.2c0.1,0,0.1,0,0.1,0.1c0,0.1,0,0.1,0,0.2c0,1.2,0,2.4,0,3.6v0.1c0,0.1,0,0.1-0.1,0.1h-0.6
	l-3.4-0.2h-1c-0.2,0-0.2,0-0.2-0.2c0-0.6,0-1.1,0-1.7c0-4.9,0-9.8,0-14.7c0-0.2,0-0.3,0-0.5s0-0.2,0.1-0.2l0.8-0.1
	c1.3-0.1,2.5-0.2,3.8-0.3h0.1c0.3,0,0.3,0,0.3,0.2c0,1.1,0,2.3,0,3.4v0.1c0,0.1,0,0.2-0.1,0.2h-0.7l-1.2,0c-0.3,0-0.3,0-0.3,0.3V21
	c0,0.2,0,0.2,0.2,0.2C383.1,21.2,383.7,21.1,384.3,21z"/>
<path class="st8" d="M372.3,25v-6.3c0-0.2,0-0.2-0.2-0.2c-0.5,0-0.9,0-1.4,0.1l-0.9,0.1c-0.2,0-0.2,0-0.2-0.2v-3.2
	c0-0.2,0-0.4,0-0.6s0-0.1,0.1-0.1c0.9,0.1,1.8,0.1,2.7,0.1c0.8,0,1.6,0,2.4,0c0.7,0,1.4-0.1,2-0.1h0.6c0.1,0,0.1,0,0.1,0.1
	c0,0.1,0,0.1,0,0.2v3.7c0,0.2,0,0.2-0.2,0.2l-1-0.1l-1.3-0.1c-0.2,0-0.2,0-0.2,0.1v0.1c0,4,0,8.1,0,12.1c0,0.2,0,0.4,0,0.6
	s0,0.1-0.2,0.1h-2.4c-0.2,0-0.2,0-0.2-0.2v-4V25H372.3z"/>
<path class="st8" d="M390.5,20.9v6.3c0,0.2,0,0.2,0.2,0.2c0.7,0,1.5,0,2.2-0.1c0.3,0,0.3,0,0.3,0.2c0,1.3,0,2.7,0,4l0,0
	c0,0.2,0,0.2-0.2,0.2l-3.2-0.2l-1.8-0.1h-0.2c0,0-0.1,0-0.1-0.1v-0.1c0-2.1,0-4.2,0-6.3c0-2.9,0-5.8,0-8.7c0-0.6,0-1.2,0-1.8
	c0-0.2,0-0.2,0.2-0.2h2.5c0.2,0,0.1,0,0.1,0.2c0,2.1,0,4.1,0,6.2L390.5,20.9L390.5,20.9z"/>
<path class="st8" d="M367.4,23c0,2.8,0,5.5,0,8.3c0,0.3,0,0.3-0.3,0.3h-2.4c-0.1,0-0.1,0-0.1-0.1v-0.6c0-4.1,0-8.3,0-12.4
	c0-1.3,0-2.6,0-3.9c0-0.3,0-0.3,0.2-0.3h2.4c0.1,0,0.1,0,0.1,0.1v0.4C367.4,17.5,367.3,20.2,367.4,23z"/>
<path class="st8" d="M362.2,19.8c-0.1-0.8-0.3-1.5-0.6-2.3c-0.5-1.4-1.7-2.4-3.1-2.8c-0.7-0.2-1.3-0.3-2-0.4
	c-0.8-0.1-1.6-0.1-2.5-0.1c-0.1,0-0.2,0-0.1,0.2v1.1c0,2.5,0,5,0,7.8c0,2.4,0,5.2-0.1,8v0.2c0,0.1,0,0.1,0.1,0.1h0.1
	c1.6-0.1,3.2-0.7,4.4-1.7c1.3-1,2.3-2.4,2.9-4C362.1,24,362.4,21.9,362.2,19.8z M358.9,24.7c-0.3,0.7-0.7,1.4-1.3,2
	c-0.2,0.2-0.5,0.4-0.9,0.5c0,0-0.1,0-0.1,0v-8.7c0-0.3-0.1-0.3,0.3-0.3c1.1,0,2,0.8,2.3,1.8c0.1,0.3,0.2,0.7,0.2,1
	C359.5,22.3,359.3,23.5,358.9,24.7z"/>
<g id="layer1">
	<g id="g41068">
		<g id="g6970">
			<path id="path6972" class="st9" d="M436.2,14.7c0,1.1-0.9,1.6-2,1.6c-1,0.1-1.9-0.6-2-1.6c0.3-1.1,1.4-1.8,2.5-1.5
				C435.5,13.4,436,14,436.2,14.7 M435.6,17.5c-0.8,3.6-1.7,7.3-2.5,10.9h-3.2c0.7-2.9,1.3-5.7,2-8.6h-1.7l0.6-2.3L435.6,17.5z
				 M471.6,17.4c0,0-0.8,2.4-0.9,2.5c-0.9-0.2-1.2-0.7-2.4-0.6c-3,0.3-3.7,4.1-4.3,7.2l-0.3,1.9h-3.1c0.9-3.6,1.7-7.4,2.6-10.9h3.1
				l-0.2,0.9C467.7,17.3,469.7,17,471.6,17.4 M452,23.6c-0.5,3.5,4.8,3,6.5,1.7c-0.2,0.8-0.2,1.8-0.4,2.6c-4.2,1.3-9,0.4-9.4-3.4
				c-0.5-4.5,3.2-6.9,7.1-7.2c2.2-0.2,4.8,0.2,5.5,1.8c0.3,1,0.2,2.1-0.5,2.9C459.3,23.8,455,24.3,452,23.6 M455.1,21.8
				c1.3-0.1,3.7-0.5,3.3-1.8c-0.3-0.8-1.8-0.9-2.7-0.7c-1.3,0.3-2.4,1.2-3.1,2.3C453.4,21.8,454.3,21.9,455.1,21.8 M450.1,13.3
				l-2.4,9.9c-0.9,3-3.6,5.1-6.6,5.2c-3,0.2-5.5-1-5.8-3.6c-0.6-5.5,5.4-9,10.6-6.9c0.3-1.6,0.9-3,1.2-4.6L450.1,13.3z M439.2,21.3
				c-0.8,1.2-0.9,2.7-0.4,4c0.7,1.3,3.1,1.3,4.3,0.4s1.7-3.8,2.1-5.5C443.2,18.5,440.3,19.6,439.2,21.3 M428.9,13.3
				c0,0-1.6,5.4-2.7,9.8l-0.5,1.7c-0.2,0.8,0.3,0.8,0.3,0.8h3l-0.7,2.7H425c-0.8,0.1-1.7-0.2-2.3-0.7c-0.5-0.6-0.7-1.4-0.5-2.2
				c0-0.4,1.5-5.7,1.5-5.7l1.8-6.5H428.9z"/>
		</g>
		<g id="g7002">
			<path id="path7004" class="st10" d="M483,22.9c0.3,0.4,0.3,1,0,1.4l-5.5,3.9c-0.6,0.3-1.4-0.1-1.9-0.9s-0.4-1.8,0.2-2.1l6.1-2.9
				C482.3,22.2,482.8,22.4,483,22.9L483,22.9z M490.3,22.9c0.2-0.5,0.7-0.7,1.2-0.6l6.1,2.9c0.6,0.3,0.7,1.3,0.2,2.1
				s-1.4,1.2-1.9,0.9l-5.5-3.9C490,23.9,490,23.3,490.3,22.9L490.3,22.9z M486.6,25c0.5-0.1,1,0.2,1.2,0.7l0.6,6.7
				c0,0.7-0.8,1.2-1.8,1.2s-1.8-0.5-1.8-1.2l0.6-6.7C485.6,25.2,486.1,24.9,486.6,25z M490.3,18.7c0.2,0.5,0.7,0.7,1.2,0.6l6.1-2.9
				c0.6-0.3,0.7-1.3,0.2-2.1s-1.4-1.3-1.9-0.9l-5.5,3.9C490,17.7,490,18.3,490.3,18.7L490.3,18.7z M483,18.7c0.3-0.4,0.3-1,0-1.4
				l-5.5-3.9c-0.6-0.3-1.4,0.1-1.9,0.9s-0.4,1.8,0.2,2.1l6.1,2.9C482.3,19.4,482.8,19.2,483,18.7L483,18.7z M486.6,16.6
				c0.6,0,1.1-0.3,1.2-0.7l0.6-6.7c0-0.7-0.8-1.2-1.8-1.2s-1.8,0.6-1.8,1.2l0.6,6.7C485.5,16.3,486,16.6,486.6,16.6z"/>
		</g>
	</g>
</g>
<g id="surface1">
	<path class="st11" d="M743.5,26.4c0,0.8,0.8,1.2,1.5,1.2c2.3,0,3-1.6,3.4-3.4h-1.1C745.9,24.2,743.5,24.5,743.5,26.4"/>
	<path class="st11" d="M774.3,20c-2.4,0-3.6,2.7-3.6,4.8c0,1.5,0.6,2.7,2.4,2.7c2.4,0,3.5-2.7,3.5-4.7C776.6,21.3,776.1,20,774.3,20
		"/>
	<g>
		<defs>
			<rect id="SVGID_1_" x="682" y="14.4" width="118.2" height="18.1"/>
		</defs>
		<clipPath id="SVGID_2_">
			<use xlink:href="#SVGID_1_"  style="overflow:visible;"/>
		</clipPath>
		<g class="st12">
			<path class="st11" d="M789.8,20.4c-0.8-0.3-1.6-0.5-2.5-0.5c-0.9,0-2,0.2-2,1.2c0,1.5,3.9,2,3.9,4.9c0,3-2.7,3.9-5.3,3.9
				c-1.2,0-2.4-0.2-3.6-0.7l0.7-2.4c0.9,0.5,1.7,0.9,2.9,0.9c1,0,2.1-0.3,2.1-1.3c0-1.9-3.9-2.1-3.9-5c0-2.7,2.7-3.7,5.1-3.7
				c1.1,0,2.2,0.2,3.3,0.5L789.8,20.4z M772.8,29.9c-3.3,0-5.3-2-5.3-5.3c0-3.9,3-6.9,6.9-6.9c3.1,0,5.3,1.9,5.3,5.1
				C779.8,26.9,776.9,29.9,772.8,29.9 M750.2,29.6h-2.6l0.3-1.8h0c-1,1.3-2.1,2.1-3.8,2.1c-2.1,0-3.6-1.2-3.6-3.3
				c0-3.9,4.3-4.1,7.2-4.1h1.1c0.1-0.3,0.1-0.7,0.1-1c0-1.2-1.3-1.5-2.3-1.5c-1.3,0-2.6,0.3-3.8,0.9l0.4-2.4c1.3-0.5,2.6-0.7,4-0.7
				c2.3,0,4.5,0.9,4.5,3.6C751.7,22.8,750.5,27.4,750.2,29.6 M682,14.5v18h44.1l2.7-13c0.1-0.6,0.2-1,0.2-1.5h2.9l-0.3,1.5h0
				c0.9-1.2,2-1.8,3.5-1.8c2.9,0,4.3,2,4.3,4.7c0,3.6-2,7.5-6.1,7.5c-1.3,0-2.7-0.5-3.2-2.1h0l-1,4.7h24.1l0.3-1.1
				c1.2,0.5,2.4,0.9,3.7,0.9c3.2,0,3.7-2.2,4.4-4.9h0c-0.8,1.4-2.2,2.2-3.9,2.2c-2.8,0-4.1-2.4-4.1-4.9c0-3.5,2.1-7,5.9-7
				c1.5,0,2.8,0.7,3.6,2l0.3-1.7h2.9c-0.1,0.3-0.2,0.9-0.4,1.6l-1.9,8.8c-0.3,1.7-0.9,3.1-1.7,4.1h37.7v-18"/>
		</g>
	</g>
	<path class="st11" d="M756.8,24.6c0,1.4,0.6,2.6,1.9,2.6c2.4,0,3.4-2.6,3.4-4.8c0-1.4-0.8-2.4-2.2-2.4
		C757.8,20,756.8,22.9,756.8,24.6"/>
	<path class="st11" d="M732.9,27.5c2.5,0,3.4-3.2,3.4-5c0-1.4-0.7-2.5-2.1-2.5c-2.1,0-3.2,2.7-3.2,4.8
		C730.9,26.3,731.4,27.5,732.9,27.5"/>
	<g>
		<defs>
			<rect id="SVGID_3_" x="682" y="9.3" width="118.2" height="20.6"/>
		</defs>
		<clipPath id="SVGID_4_">
			<use xlink:href="#SVGID_3_"  style="overflow:visible;"/>
		</clipPath>
		<g class="st13">
			<path class="st14" d="M718.4,27.5c-1.5,0-1.9-1.6-1.9-2.8c0-1.7,1-4.7,3.2-4.7c1.5,0,2.2,1.4,2.2,2.8
				C721.9,24.9,720.6,27.5,718.4,27.5 M800.2,9.3H682v5.2h41.9l-1.1,4.8c-1-1.1-2.1-1.7-3.6-1.7c-4,0-5.9,3.9-5.9,7.4
				c0,2.5,1.2,4.8,4,4.8c1.8,0,2.9-0.7,3.8-2h0l-0.3,1.7h2.8c0.1-0.6,0.2-1.6,0.4-2.6l2.7-12.5h73.2"/>
		</g>
	</g>
	<path class="st14" d="M699.8,17.7c-1.4,0-2.9,1.2-3.4,2.5h0l0.4-2.2h-2.9c-0.1,0.5-0.2,1.1-0.3,1.6l-2.1,10.1h3l1.1-5.2
		c0.4-1.9,1.4-3.8,3.6-3.8c0.4,0,0.8,0.1,1.2,0.2l0.6-3C700.6,17.7,700.2,17.7,699.8,17.7"/>
	<path class="st14" d="M709,22.6h-5.1c0.6-1.6,1.4-2.7,3.3-2.7c1.3,0,1.9,0.7,1.9,1.9C709.1,22.1,709,22.4,709,22.6 M707.2,17.7
		c-3.8,0-6.6,3.5-6.6,7.1c0,3.5,2.3,5.1,5.6,5.1c1.2,0,2.5-0.3,3.7-0.7l0.4-2.4c-1.1,0.5-2.3,0.8-3.6,0.8c-2.1,0-3.2-0.8-3.2-2.9
		h8.2c0.2-0.9,0.3-1.7,0.3-2.6C712,19.1,710.1,17.7,707.2,17.7"/>
</g>
<g id="surface1_1_">
	<path class="st1" d="M549.7,9.8L549.7,9.8L549.7,9.8"/>
	<g>
		<defs>
			<rect id="SVGID_5_" x="534.3" y="5.7" width="31.2" height="30.1"/>
		</defs>
		<clipPath id="SVGID_6_">
			<use xlink:href="#SVGID_5_"  style="overflow:visible;"/>
		</clipPath>
		<g class="st15">
			<path class="st16" d="M565.1,20.8c0,8.3-6.9,15.1-15.4,15.1c-8.5,0-15.4-6.7-15.4-15.1c0-8.3,6.9-15.1,15.4-15.1
				C558.2,5.7,565.1,12.5,565.1,20.8"/>
		</g>
	</g>
	<path class="st17" d="M560.9,20.8c0-6-5-11-11.2-11l10.2,15.5C560.5,23.9,560.9,22.4,560.9,20.8"/>
	<path class="st17" d="M542.9,29.6c1.9,1.4,4.2,2.2,6.8,2.2c2.5,0,4.8-0.8,6.7-2.2l-6.7-10"/>
	<path class="st17" d="M549.6,9.8c-6.2,0-11.2,4.9-11.2,11c0,1.7,0.4,3.2,1.1,4.6L549.6,9.8C549.7,9.8,549.6,9.8,549.6,9.8"/>
	<path class="st1" d="M559.9,25.3L549.7,9.8h0l-10.2,15.6c0.8,1.6,2,3,3.4,4.1l6.8-10l6.7,10C557.9,28.5,559.1,27,559.9,25.3"/>
	<path class="st16" d="M580.4,23.2l-0.5-5.6h0l-2.6,5.6H580.4z M585.6,29h-4.6l-0.2-2.5h-5l-1.2,2.5h-5.1l8.7-15.3h5.1"/>
	<path class="st16" d="M594,26.4c0.6,0,1.1-0.4,1.6-1.2c0.4-0.8,0.7-1.7,0.7-2.9c0-1.3-0.5-1.9-1.5-1.9c-0.7,0-1.3,0.4-1.7,1.3
		c-0.4,0.8-0.7,1.8-0.7,2.8c0,0.6,0.2,1.1,0.5,1.5C593.2,26.2,593.6,26.4,594,26.4 M593.5,18.7c0.5-0.4,1-0.6,1.4-0.8
		c0.4-0.2,1-0.2,1.7-0.2c1.3,0,2.2,0.4,2.9,1.3c0.7,0.9,1,2,1,3.3c0,1.8-0.5,3.4-1.5,4.8c-1,1.4-2.3,2.2-3.9,2.2
		c-1.7,0-2.9-0.7-3.7-2.1L591,29h-4l3.3-15.3h4.3"/>
	<path class="st16" d="M618,17.9l-0.6,3h-2.2l-0.8,3.9c-0.1,0.2-0.1,0.3-0.1,0.5c0,0.5,0.3,0.8,1,0.8c0.2,0,0.6-0.1,1.3-0.2l-0.6,3
		c-1.3,0.2-2.2,0.3-2.8,0.3c-1.2,0-2-0.3-2.5-0.9c-0.5-0.6-0.7-1.2-0.7-1.9c0-0.2,0.1-0.8,0.3-1.8l0.8-3.8h-1.5l0.6-3h1.6l0.4-1.7
		l4.8-2.4l-0.9,4.1"/>
	<path class="st16" d="M626.6,24c-2,0.3-3.1,0.6-3.5,0.9c-0.3,0.3-0.5,0.5-0.5,0.9c0,0.4,0.1,0.6,0.4,0.8c0.2,0.2,0.6,0.3,0.9,0.3
		c0.5,0,1.1-0.2,1.6-0.7C626,25.9,626.4,25.1,626.6,24 M619.6,21c0.3-1.1,0.8-1.9,1.8-2.4c0.9-0.6,2.3-0.9,4.3-0.9
		c2.2,0,3.7,0.3,4.4,0.8c0.8,0.5,1.1,1.3,1.1,2.4c0,0.7-0.2,1.8-0.6,3.4c-0.4,1.5-0.5,2.6-0.5,3.2c0,0.5,0.1,1,0.3,1.5h-4.2
		c-0.1-0.4-0.1-0.9-0.1-1.3c-1.1,1-2.4,1.5-3.7,1.5c-1.4,0-2.4-0.3-3-1c-0.6-0.7-0.9-1.4-0.9-2.3c0-1,0.3-1.7,0.8-2.2
		c0.5-0.5,1.2-0.9,2-1.1c0.8-0.2,1.9-0.3,3.3-0.5c1.2-0.1,2.1-0.3,2.5-0.4c0.1-0.3,0.1-0.6,0.1-0.8c0-0.3-0.1-0.5-0.4-0.7
		c-0.3-0.2-0.7-0.3-1.1-0.3c-0.5,0-0.9,0.1-1.2,0.2c-0.3,0.2-0.6,0.5-0.8,1"/>
	<g>
		<defs>
			<rect id="SVGID_7_" x="632.5" y="13.3" width="13.5" height="16.2"/>
		</defs>
		<clipPath id="SVGID_8_">
			<use xlink:href="#SVGID_7_"  style="overflow:visible;"/>
		</clipPath>
		<g class="st18">
			<path class="st16" d="M639.6,26.4c0.6,0,1.1-0.4,1.6-1.2c0.5-0.8,0.7-1.7,0.7-2.9c0-1.3-0.5-1.9-1.5-1.9c-0.7,0-1.3,0.4-1.7,1.3
				c-0.4,0.8-0.7,1.8-0.7,2.8c0,0.6,0.2,1.1,0.5,1.5C638.8,26.2,639.2,26.4,639.6,26.4 M639.1,18.7c0.5-0.4,1-0.6,1.4-0.8
				c0.4-0.2,1-0.2,1.7-0.2c1.3,0,2.2,0.4,2.9,1.3c0.7,0.9,1,2,1,3.3c0,1.8-0.5,3.4-1.5,4.8c-1,1.4-2.3,2.2-3.9,2.2
				c-1.7,0-2.9-0.7-3.7-2.1l-0.4,1.8h-4l3.3-15.3h4.3"/>
		</g>
	</g>
	<path class="st16" d="M601.5,29h4.3l2.4-11.1h-4.3L601.5,29z"/>
	<path class="st17" d="M607.5,16.3c0.1-0.2,0.1-0.4,0.1-0.6c0.5-0.1,0.9-0.3,1.2-0.6C608.6,15.7,608.1,16.1,607.5,16.3 M606.6,16.5
		c-0.1,0-0.3,0-0.4,0c-0.1-0.2-0.1-0.4-0.2-0.6c0.2,0,0.4,0,0.6,0c0.2,0,0.4,0,0.7-0.1c0,0.2-0.1,0.4-0.2,0.6
		C606.9,16.5,606.7,16.5,606.6,16.5 M604.3,15.1c0.3,0.3,0.8,0.5,1.3,0.6c0,0.2,0.1,0.4,0.2,0.6C605.1,16.1,604.6,15.7,604.3,15.1
		 M605.7,11.7c-0.1,0.2-0.1,0.4-0.2,0.7c-0.6,0.1-1,0.4-1.3,0.7C604.5,12.4,605.1,11.9,605.7,11.7 M606.6,11.6c0.2,0,0.3,0,0.5,0
		c0.1,0.2,0.1,0.4,0.2,0.7c-0.2,0-0.5-0.1-0.7-0.1c-0.2,0-0.4,0-0.6,0c0.1-0.3,0.1-0.5,0.2-0.7C606.3,11.6,606.4,11.6,606.6,11.6
		 M608.9,13.1c-0.3-0.3-0.7-0.5-1.2-0.7c0-0.2-0.1-0.5-0.2-0.7C608.2,12,608.7,12.5,608.9,13.1 M607.8,14.3h1.2
		c-0.2,0.5-0.7,0.8-1.3,1C607.8,15,607.8,14.6,607.8,14.3 M605.8,14.3h1.6c0,0.4,0,0.8-0.1,1.1c-0.2,0-0.5,0.1-0.7,0.1
		c-0.2,0-0.4,0-0.6,0C605.9,15.1,605.9,14.7,605.8,14.3 M605.4,14.3c0,0.4,0,0.7,0.1,1.1c-0.7-0.2-1.2-0.6-1.4-1.1H605.4z
		 M605.4,13.9h-1.3c0.2-0.5,0.7-0.9,1.4-1.1C605.5,13.1,605.4,13.5,605.4,13.9 M607.4,13.9h-1.6c0-0.4,0-0.8,0.1-1.2
		c0.2,0,0.4-0.1,0.7-0.1c0.3,0,0.5,0,0.8,0.1C607.4,13.1,607.4,13.5,607.4,13.9 M607.8,13.9c0-0.4,0-0.7-0.1-1
		c0.6,0.2,1.1,0.6,1.3,1H607.8z M607.4,11.3c-0.2,0-0.3-0.1-0.5-0.1c-0.1,0-0.2,0-0.3,0c-0.1,0-0.1,0-0.2,0c-0.2,0-0.3,0-0.5,0.1
		c-1.3,0.3-2.3,1.4-2.3,2.8s1,2.5,2.3,2.8c0.2,0,0.3,0.1,0.5,0.1c0.1,0,0.1,0,0.2,0c0.1,0,0.2,0,0.3,0c0.2,0,0.3,0,0.5-0.1
		c1.3-0.3,2.2-1.4,2.2-2.7C609.5,12.7,608.6,11.6,607.4,11.3"/>
</g>
</svg>
