<?xml version="1.0" encoding="utf-8"?>
<!-- Generator: Adobe Illustrator 22.0.0, SVG Export Plug-In . SVG Version: 6.00 Build 0)  -->
<svg version="1.1" id="Layer_1" xmlns="http://www.w3.org/2000/svg" xmlns:xlink="http://www.w3.org/1999/xlink" x="0px" y="0px"
	 viewBox="0 0 492.3 41.5" style="enable-background:new 0 0 492.3 41.5;" xml:space="preserve">
<style type="text/css">
	.st0{fill:#004A98;}
	.st1{fill:#FFFFFF;}
	.st2{fill:#15195A;}
	.st3{fill:#FF5F00;}
	.st4{fill:#EB001B;}
	.st5{fill:#F79E1B;}
	.st6{fill:#006ED2;}
	.st7{fill:#FED72B;}
	.st8{fill:#1C6EB7;}
	.st9{fill:#007DC3;}
	.st10{fill:#FDBB30;}
</style>
<title>payment_methods</title>
<path class="st0" d="M174.3,33.9c6.5,0,12.5-5.3,12.5-11.8c0-7.1-5.9-12-12.5-12h-5.6c-6.5-0.1-11.9,5-12,11.5l0,0
	c0,0.2,0,0.4,0,0.5c0.1,6.6,5.4,11.8,12,11.8H174.3z"/>
<path class="st1" d="M171.2,28.4V15.5c3.6,1.4,5.4,5.3,4,8.9C174.5,26.3,173,27.7,171.2,28.4 M161.8,22c0-2.9,1.8-5.4,4.4-6.4v12.9
	C163.6,27.4,161.8,24.9,161.8,22 M168.7,11.1c-6,0-10.9,4.9-10.9,10.9s4.9,10.9,10.9,10.9c6,0,10.9-4.9,10.9-10.9c0,0,0,0,0,0l0,0
	C179.6,16,174.7,11.1,168.7,11.1"/>
<path class="st2" d="M29.3,20.2c0,2.3,2,3.5,3.6,4.3s2.1,1.3,2.1,2c0,1-1.3,1.5-2.5,1.5c-1.5,0-2.9-0.3-4.2-1l-0.7,3.5
	c1.5,0.6,3,0.8,4.5,0.8c4.3,0,7.1-2.1,7.1-5.4c0-4.2-5.8-4.4-5.7-6.3c0-0.6,0.5-1.2,1.7-1.3c1.4-0.1,2.8,0.1,4,0.7l0.7-3.4
	c-1.2-0.5-2.5-0.7-3.8-0.7C32.1,15,29.2,17.1,29.3,20.2 M46.9,15.3c-0.8,0-1.5,0.4-1.8,1.2L39,31.1h4.3l0.8-2.4h5.3l0.5,2.4h3.8
	l-3.3-15.8L46.9,15.3 M47.5,19.5l1.2,5.9h-3.4L47.5,19.5 M24.1,15.3l-3.4,15.8h4.1l3.4-15.8L24.1,15.3 M18,15.2L13.8,26L12,16.9
	c-0.1-0.9-0.9-1.6-1.9-1.6h-7l-0.1,0.5c1.4,0.3,2.7,0.7,4,1.3c0.6,0.2,0.9,0.8,1,1.4L11.3,31h4.3l6.6-15.8L18,15.2"/>
<rect x="99.5" y="12.1" class="st3" width="12.1" height="21.6"/>
<path class="st4" d="M100.3,22.9c0-4.2,2-8.2,5.3-10.8c-6-4.7-14.6-3.7-19.3,2.3S82.6,29,88.6,33.7c5,3.9,12,3.9,17,0
	C102.2,31.1,100.3,27.1,100.3,22.9"/>
<path class="st5" d="M127.8,22.9c0,7.6-6.1,13.8-13.7,13.8c-3.1,0-6.1-1-8.6-3c6-4.7,7-13.4,2.3-19.4c-0.7-0.9-1.4-1.6-2.3-2.3
	c6-4.7,14.7-3.6,19.3,2.3C126.7,16.8,127.8,19.8,127.8,22.9"/>
<path class="st6" d="M274.8,11.6h3.3c0.6,0,0.8,0.1,0.9,0.8c0.4,2.7,0.7,5.3,1.1,8l1.4,10c0,0.1,0,0.3,0,0.4
	c0.1,0.8,0.1,0.8-0.7,0.8h-4.1c-0.5,0-0.8-0.2-0.8-0.7c0-1.4-0.7-2.7-1.8-3.5c-0.9-0.7-1.7-1.5-2.5-2.2c-0.3-0.2-0.5-0.6-0.3-1
	c0.1-0.4,0.5-0.6,0.9-0.5c0.8,0,1.6,0,2.4,0c0.3,0,0.4-0.1,0.4-0.4c-0.3-2-0.5-4.1-0.8-6.1c0-0.1,0-0.3-0.1-0.4s0-0.3-0.1-0.4
	s-0.2,0.2-0.3,0.3c-1.6,3.1-3.3,6.2-5,9.3c-0.9,1.7-1.8,3.3-2.7,5c-0.2,0.4-0.6,0.7-1.1,0.7c-1.5,0-3,0-4.5,0
	c-0.5,0-0.5-0.1-0.3-0.5l10.3-19c0.2-0.4,0.6-0.7,1.1-0.6C272.6,11.6,273.7,11.6,274.8,11.6z"/>
<path class="st6" d="M252.5,11.2c3.3-0.1,6.4,1.6,8.1,4.4c0.1,0.1,0.1,0.3,0.2,0.4c0.1,0.1,0.1,0.4-0.2,0.6
	c-1.2,0.6-2.4,1.2-3.7,1.8c-0.4,0.3-1.1,0.3-1.4-0.2c0,0,0,0,0,0c-1.6-1.8-4.2-2.3-6.3-1c-2,1-3.2,3-3.2,5.2c0,2.5,2,4.4,4.5,4.4
	c0.1,0,0.2,0,0.3,0c1.6,0,3-0.8,4-2c0.3-0.6,1-0.8,1.5-0.5c0.1,0,0.1,0.1,0.2,0.1c1,0.5,2,1.1,3,1.6c0.3,0.1,0.3,0.3,0.1,0.6
	c-2.8,3.8-6.5,5.8-11.3,5.3c-4.7-0.5-8.2-4.6-8-9.4c0.3-5.7,4.6-10.4,10.2-11.3C251.3,11.3,251.9,11.2,252.5,11.2z"/>
<path class="st6" d="M234.1,12.4c-2.2-1.2-4.8-1.6-7.2-1c-5.6,1.2-9.6,6.1-9.6,11.7c0.1,3.9,2.6,7.3,6.3,8.4c3.2,1,6.7,0.5,9.5-1.4
	c3.4-2,5.5-5.7,5.6-9.6C238.8,17.2,237,14.1,234.1,12.4z M228.1,26.8c-0.2,0-0.5,0-0.7,0.1c-2.5,0.1-4.6-1.9-4.7-4.4
	c0-0.4,0-0.8,0.1-1.2c0.6-2.6,2.8-4.5,5.4-4.7c2.3-0.2,4.4,1.5,4.6,3.8c0,0.2,0,0.4,0,0.6C233.1,23.8,231,26.3,228.1,26.8z"/>
<path class="st7" d="M323.8,8.5c0,0.4,0.1,0.8,0.1,1.1c0.2,1.6,0.4,3.2,0.5,4.8c0,0.3,0,0.3-0.3,0.4c-0.9,0.3-1.8,0.9-2.5,1.6
	c-0.7,0.8-1.2,1.7-1.5,2.7c-0.3,1.2-0.4,2.5-0.2,3.7c0.1,0.8,0.4,1.6,1,2.2c0.7,0.8,1.8,1.2,2.9,1c0.3,0,0.5-0.1,0.8-0.1
	s0.2,0,0.2,0.2v5.5c0,0.2,0,0.2-0.2,0.2c-0.8,0.2-1.7,0.3-2.6,0.3c-1.6-0.1-3.1-0.9-4.1-2.2c-0.7-0.9-1.3-2-1.6-3.2
	c-0.5-1.6-0.7-3.3-0.6-5c0.1-2.8,0.8-5.5,2.1-7.9c0.8-1.6,2-3,3.4-4.1c0.7-0.5,1.4-1,2.3-1.3L323.8,8.5z"/>
<path class="st8" d="M333.3,32.3c-0.1-0.4-0.2-0.7-0.3-1c-0.8-2.5-1.7-5-2.5-7.5c-0.1-0.1,0-0.3,0.1-0.4c0.6-0.8,1-1.7,1.2-2.6
	c0.1-0.6,0.1-1.2,0-1.7c-0.1-0.2-0.2-0.4-0.3-0.6c-0.3-0.4-0.7-0.6-1.1-0.6c-0.1,0-0.2,0-0.1,0.1V18c0,4.4,0,8.9,0,13.4v0.1
	c0,0,0,0.1-0.1,0.1c0,0,0,0,0,0h-2.5c-0.1,0-0.1,0-0.1-0.1v-0.2c0-5.2,0-10.4,0-15.6c0-0.4,0-0.8,0-1.1c0-0.2,0-0.2,0.2-0.2
	c1.2,0,2.4,0,3.5,0.2c0.5,0.1,0.9,0.2,1.4,0.4c0.8,0.4,1.5,1.1,1.8,2c0.2,0.7,0.3,1.5,0.3,2.2c0,0.9-0.2,1.7-0.5,2.6
	c-0.2,0.6-0.5,1.1-0.9,1.7c-0.1,0.1-0.1,0.3,0,0.5c0.7,1.4,1.3,2.8,2,4.2l0.4,0.8c0,0.1,0,0.2,0,0.3c-0.7,1-1.4,2.1-2.1,3.1
	L333.3,32.3z"/>
<path class="st8" d="M337.7,23c0-2.8,0-5.6,0-8.4c0-0.2,0-0.2,0.2-0.2c1.5-0.1,3-0.2,4.6-0.4l0,0c0.3,0,0.3,0,0.3,0.3
	c0,1.1,0,2.3,0,3.4c0,0.3,0,0.2-0.2,0.3l-2.1,0.1c-0.2,0-0.2,0-0.2,0.2v2.8c0,0.1,0,0.1,0.1,0.1h0.7l1.2-0.1c0.1,0,0.1,0,0.1,0.1
	c0,0.3,0,0.7,0,1c0,0.8,0,1.7,0,2.5c0,0.2,0,0.2-0.2,0.2l-1.7-0.1h-0.1c-0.1,0-0.1,0-0.1,0.1c0,0,0,0,0,0v2.7c0,0.1,0,0.1,0.1,0.1
	h0.2c0.8,0,1.5,0,2.3,0c0.2,0,0.2,0,0.2,0.2c0,1.3,0,2.5,0,3.8c0,0.2,0,0.2-0.2,0.2l-2-0.1l-3.1-0.1c-0.2,0-0.2,0-0.2-0.2
	C337.8,28.5,337.7,25.7,337.7,23z"/>
<path class="st8" d="M376.3,21c0,0.1,0,0.1,0,0.2v3.4l0,0c0,0.2,0,0.2-0.2,0.2h-0.7l-1.1-0.1c-0.2,0-0.2,0-0.2,0.2v2.5
	c0,0.2,0,0.2,0.2,0.2c0.7,0,1.5,0,2.2,0h0.2c0.1,0,0.1,0,0.1,0.1c0,0.1,0,0.1,0,0.2c0,1.2,0,2.4,0,3.6v0.1c0,0.1,0,0.1-0.1,0.1h-0.6
	l-3.4-0.2h-1c-0.2,0-0.2,0-0.2-0.2c0-0.6,0-1.1,0-1.7c0-4.9,0-9.8,0-14.7c0-0.2,0-0.3,0-0.5s0-0.2,0.1-0.2l0.8-0.1
	c1.3-0.1,2.5-0.2,3.8-0.3h0.1c0.3,0,0.3,0,0.3,0.2c0,1.1,0,2.3,0,3.4v0.1c0,0.1,0,0.2-0.1,0.2h-0.7l-1.2,0c-0.3,0-0.3,0-0.3,0.3V21
	c0,0.2,0,0.2,0.2,0.2C375.1,21.2,375.7,21.1,376.3,21z"/>
<path class="st8" d="M364.3,25v-6.3c0-0.2,0-0.2-0.2-0.2c-0.5,0-0.9,0-1.4,0.1l-0.9,0.1c-0.2,0-0.2,0-0.2-0.2v-3.2
	c0-0.2,0-0.4,0-0.6s0-0.1,0.1-0.1c0.9,0.1,1.8,0.1,2.7,0.1c0.8,0,1.6,0,2.4,0c0.7,0,1.4-0.1,2-0.1h0.6c0.1,0,0.1,0,0.1,0.1
	c0,0.1,0,0.1,0,0.2v3.7c0,0.2,0,0.2-0.2,0.2l-1-0.1l-1.3-0.1c-0.2,0-0.2,0-0.2,0.1v0.1c0,4,0,8.1,0,12.1c0,0.2,0,0.4,0,0.6
	s0,0.1-0.2,0.1h-2.4c-0.2,0-0.2,0-0.2-0.2v-4V25H364.3z"/>
<path class="st8" d="M382.5,20.9v6.3c0,0.2,0,0.2,0.2,0.2c0.7,0,1.5,0,2.2-0.1c0.3,0,0.3,0,0.3,0.2c0,1.3,0,2.7,0,4l0,0
	c0,0.2,0,0.2-0.2,0.2l-3.2-0.2l-1.8-0.1h-0.2c0,0-0.1,0-0.1-0.1v-0.1c0-2.1,0-4.2,0-6.3c0-2.9,0-5.8,0-8.7c0-0.6,0-1.2,0-1.8
	c0-0.2,0-0.2,0.2-0.2h2.5c0.2,0,0.1,0,0.1,0.2c0,2.1,0,4.1,0,6.2L382.5,20.9L382.5,20.9z"/>
<path class="st8" d="M359.4,23c0,2.8,0,5.5,0,8.3c0,0.3,0,0.3-0.3,0.3h-2.4c-0.1,0-0.1,0-0.1-0.1v-0.6c0-4.1,0-8.3,0-12.4
	c0-1.3,0-2.6,0-3.9c0-0.3,0-0.3,0.2-0.3h2.4c0.1,0,0.1,0,0.1,0.1v0.4C359.4,17.5,359.3,20.2,359.4,23z"/>
<path class="st8" d="M354.2,19.8c-0.1-0.8-0.3-1.5-0.6-2.3c-0.5-1.4-1.7-2.4-3.1-2.8c-0.7-0.2-1.3-0.3-2-0.4
	c-0.8-0.1-1.6-0.1-2.5-0.1c-0.1,0-0.2,0-0.1,0.2v1.1c0,2.5,0,5,0,7.8c0,2.4,0,5.2-0.1,8v0.2c0,0.1,0,0.1,0.1,0.1h0.1
	c1.6-0.1,3.2-0.7,4.4-1.7c1.3-1,2.3-2.4,2.9-4C354.1,24,354.4,21.9,354.2,19.8z M350.9,24.7c-0.3,0.7-0.7,1.4-1.3,2
	c-0.2,0.2-0.5,0.4-0.9,0.5c0,0-0.1,0-0.1,0v-8.7c0-0.3-0.1-0.3,0.3-0.3c1.1,0,2,0.8,2.3,1.8c0.1,0.3,0.2,0.7,0.2,1
	C351.5,22.3,351.3,23.5,350.9,24.7z"/>
<g id="layer1">
	<g id="g41068">
		<g id="g6970">
			<path id="path6972" class="st9" d="M428.2,14.7c0,1.1-0.9,1.6-2,1.6c-1,0.1-1.9-0.6-2-1.6c0.3-1.1,1.4-1.8,2.5-1.5
				C427.5,13.4,428,14,428.2,14.7 M427.6,17.5c-0.8,3.6-1.7,7.3-2.5,10.9h-3.2c0.7-2.9,1.3-5.7,2-8.6h-1.7l0.6-2.3L427.6,17.5z
				 M463.6,17.4c0,0-0.8,2.4-0.9,2.5c-0.9-0.2-1.2-0.7-2.4-0.6c-3,0.3-3.7,4.1-4.3,7.2l-0.3,1.9h-3.1c0.9-3.6,1.7-7.4,2.6-10.9h3.1
				l-0.2,0.9C459.7,17.3,461.7,17,463.6,17.4 M444,23.6c-0.5,3.5,4.8,3,6.5,1.7c-0.2,0.8-0.2,1.8-0.4,2.6c-4.2,1.3-9,0.4-9.4-3.4
				c-0.5-4.5,3.2-6.9,7.1-7.2c2.2-0.2,4.8,0.2,5.5,1.8c0.3,1,0.2,2.1-0.5,2.9C451.3,23.8,447,24.3,444,23.6 M447.1,21.8
				c1.3-0.1,3.7-0.5,3.3-1.8c-0.3-0.8-1.8-0.9-2.7-0.7c-1.3,0.3-2.4,1.2-3.1,2.3C445.4,21.8,446.3,21.9,447.1,21.8 M442.1,13.3
				l-2.4,9.9c-0.9,3-3.6,5.1-6.6,5.2c-3,0.2-5.5-1-5.8-3.6c-0.6-5.5,5.4-9,10.6-6.9c0.3-1.6,0.9-3,1.2-4.6L442.1,13.3z M431.2,21.3
				c-0.8,1.2-0.9,2.7-0.4,4c0.7,1.3,3.1,1.3,4.3,0.4s1.7-3.8,2.1-5.5C435.2,18.5,432.3,19.6,431.2,21.3 M420.9,13.3
				c0,0-1.6,5.4-2.7,9.8l-0.5,1.7c-0.2,0.8,0.3,0.8,0.3,0.8h3l-0.7,2.7H417c-0.8,0.1-1.7-0.2-2.3-0.7c-0.5-0.6-0.7-1.4-0.5-2.2
				c0-0.4,1.5-5.7,1.5-5.7l1.8-6.5H420.9z"/>
		</g>
		<g id="g7002">
			<path id="path7004" class="st10" d="M475,22.9c0.3,0.4,0.3,1,0,1.4l-5.5,3.9c-0.6,0.3-1.4-0.1-1.9-0.9s-0.4-1.8,0.2-2.1l6.1-2.9
				C474.3,22.2,474.8,22.4,475,22.9L475,22.9z M482.3,22.9c0.2-0.5,0.7-0.7,1.2-0.6l6.1,2.9c0.6,0.3,0.7,1.3,0.2,2.1
				s-1.4,1.2-1.9,0.9l-5.5-3.9C482,23.9,482,23.3,482.3,22.9L482.3,22.9z M478.6,25c0.5-0.1,1,0.2,1.2,0.7l0.6,6.7
				c0,0.7-0.8,1.2-1.8,1.2s-1.8-0.5-1.8-1.2l0.6-6.7C477.6,25.2,478.1,24.9,478.6,25z M482.3,18.7c0.2,0.5,0.7,0.7,1.2,0.6l6.1-2.9
				c0.6-0.3,0.7-1.3,0.2-2.1s-1.4-1.3-1.9-0.9l-5.5,3.9C482,17.7,482,18.3,482.3,18.7L482.3,18.7z M475,18.7c0.3-0.4,0.3-1,0-1.4
				l-5.5-3.9c-0.6-0.3-1.4,0.1-1.9,0.9s-0.4,1.8,0.2,2.1l6.1,2.9C474.3,19.4,474.8,19.2,475,18.7L475,18.7z M478.6,16.6
				c0.6,0,1.1-0.3,1.2-0.7l0.6-6.7c0-0.7-0.8-1.2-1.8-1.2s-1.8,0.6-1.8,1.2l0.6,6.7C477.5,16.3,478,16.6,478.6,16.6z"/>
		</g>
	</g>
</g>
</svg>
