<svg id="Layer_1" data-name="Layer 1" xmlns="http://www.w3.org/2000/svg" viewBox="0 0 511.07 41.54"><defs><style>.cls-1{fill:#004a98;}.cls-2{fill:#fff;}.cls-3{fill:#15195a;}.cls-4{fill:#ff5f00;}.cls-5{fill:#eb001b;}.cls-6{fill:#f79e1b;}.cls-7{fill:#016fd0;}.cls-8{fill:#5f6368;}.cls-9{fill:#4285f4;}.cls-10{fill:#34a853;}.cls-11{fill:#fbbc04;}.cls-12{fill:#ea4335;}</style></defs><title>payment_methods</title><path class="cls-1" d="M304.8,32.92c6.51,0,12.46-5.31,12.46-11.81,0-7.1-5.95-12-12.46-12h-5.6a11.74,11.74,0,0,0-12,11.48,4.68,4.68,0,0,0,0,.53,11.94,11.94,0,0,0,12,11.81Z"/><path class="cls-2" d="M301.69,27.44V14.54a6.9,6.9,0,0,1,0,12.9M292.31,21a6.93,6.93,0,0,1,4.44-6.45v12.9A6.94,6.94,0,0,1,292.31,21m6.91-10.91A10.91,10.91,0,1,0,310.12,21a10.91,10.91,0,0,0-10.9-10.91"/><path class="cls-3" d="M39.77,20.19c0,2.28,2,3.55,3.58,4.3s2.12,1.27,2.12,2C45.46,27.52,44.2,28,43,28a8.54,8.54,0,0,1-4.2-1l-.74,3.47a12.4,12.4,0,0,0,4.55.84c4.3,0,7.11-2.12,7.12-5.41,0-4.18-5.77-4.4-5.73-6.27,0-.57.55-1.17,1.73-1.32a7.7,7.7,0,0,1,4,.7l.72-3.35a10.91,10.91,0,0,0-3.83-.7c-4,0-6.89,2.15-6.91,5.23m17.65-4.94a1.86,1.86,0,0,0-1.75,1.16L49.54,31.06h4.29l.85-2.36h5.25l.5,2.36h3.79l-3.3-15.81h-3.5m.6,4.27,1.24,5.94H55.87L58,19.52M34.57,15.25,31.18,31.06h4.09l3.39-15.81H34.57m-6.05,0L24.26,26l-1.73-9.15a1.89,1.89,0,0,0-1.88-1.61h-7l-.1.46a17.35,17.35,0,0,1,4,1.34,1.71,1.71,0,0,1,1,1.39l3.27,12.62h4.32l6.63-15.81h-4.3"/><rect class="cls-4" x="122.91" y="12.06" width="12.05" height="21.65"/><path class="cls-5" d="M123.69,22.89A13.73,13.73,0,0,1,129,12.05a13.77,13.77,0,1,0,0,21.66,13.71,13.71,0,0,1-5.26-10.83"/><path class="cls-6" d="M151.21,22.89a13.76,13.76,0,0,1-22.28,10.82,13.78,13.78,0,0,0,0-21.66,13.77,13.77,0,0,1,22.28,10.83"/><path class="cls-7" d="M249.46,26.25l.79-1.77h-4.17a2.46,2.46,0,0,0-2.72,2.17c0,.11,0,.21,0,.31a2.22,2.22,0,0,0,2.07,2.36h2.26a.65.65,0,0,1,.71.58V30a.65.65,0,0,1-.64.65h-4.16v1.77h4.07a2.47,2.47,0,0,0,2.72-2.19,2.26,2.26,0,0,0,0-.37,2.16,2.16,0,0,0-2-2.28,2.07,2.07,0,0,0-.43,0h-1.87a.65.65,0,0,1-.71-.59v-.07a.63.63,0,0,1,.63-.64h3.48Zm-11.34.64a.64.64,0,0,1,.64-.64h3.47l.79-1.77h-4.16a2.46,2.46,0,0,0-2.72,2.17c0,.11,0,.21,0,.31a2.22,2.22,0,0,0,2.08,2.36h2.25a.64.64,0,0,1,.71.58V30a.64.64,0,0,1-.63.65h-4.17v1.77h4.07a2.47,2.47,0,0,0,2.72-2.19,2.26,2.26,0,0,0,0-.37,2.16,2.16,0,0,0-2-2.28,2.07,2.07,0,0,0-.43,0h-1.87a.65.65,0,0,1-.71-.59v-.07ZM229,32.37h6.43V30.6H231V29.26h4.33V27.54H231V26.25h4.42V24.48H229v7.89Zm-.32,0-2.56-2.87A2.46,2.46,0,0,0,228.22,27a2.49,2.49,0,0,0-2.41-2.56H221.1v7.89h2v-2.8h.78l2.36,2.8Zm-3.43-4.51H223.1V26.25h2.18a.82.82,0,0,1,.92.71s0,.07,0,.1c0,.45-.32.8-.93.8m-5-.72a2.54,2.54,0,0,0-2.4-2.66,1.93,1.93,0,0,0-.34,0h-4.44v7.89h2V29.8h2.37a2.6,2.6,0,0,0,2.79-2.39,2.44,2.44,0,0,0,0-.27Zm-2,0a.85.85,0,0,1-.81.89h-2.35V26.25h2.23a.86.86,0,0,1,.93.79v.11Zm-5.34,5.22-3.17-4,3.15-3.91h-2.45l-1.86,2.43-1.86-2.43h-2.51l3.16,4-3.15,3.93h2.45l1.86-2.44,1.87,2.44Zm-15.29,0H204V30.6h-4.43V29.26h4.33V27.54h-4.33V26.25H204V24.48h-6.43Z"/><path class="cls-7" d="M249.22,21.81v-7.9h-2v4.9l-3.15-4.9h-2.53v7.9h2V16.73l3.24,5.08Zm-10.16,0h2.27L238,13.91h-2.6L232,21.81h2.21l.64-1.62h3.59l.66,1.62Zm-1.35-3.33h-2.19l1.09-2.71Zm-6.46-2.74h2.12V13.91H231.1a3.58,3.58,0,0,0-3.82,3.34,3.37,3.37,0,0,0,0,.55v.12c0,2.42,1.4,3.89,3.67,3.89h.16l.82-1.77h-.64a1.9,1.9,0,0,1-2-1.75,2.3,2.3,0,0,1,0-.37V17.8a1.86,1.86,0,0,1,1.65-2.05,1.61,1.61,0,0,1,.31,0Zm-6.94,6.07h2v-7.9h-2v7.9Zm-.32,0-2.56-2.88a2.46,2.46,0,0,0,2.07-2.47,2.49,2.49,0,0,0-2.41-2.56h-4.71v7.9h2V19h.77l2.37,2.8Zm-3.43-4.51h-2.18V15.68h2.18a.82.82,0,0,1,.92.71s0,.07,0,.1c0,.46-.32.8-.93.8Zm-11.75,4.51h6.43V20h-4.43V18.69h4.32V17h-4.32V15.68h4.43V13.91h-6.43v7.9Zm-3.32,0h2v-7.9h-3.15l-1.76,5-1.77-5h-3.18v7.9h2V16l2.08,5.84h1.75L205.49,16V21.8Zm-10.35,0h2.26L194,13.91h-2.6L188,21.81h2.21l.65-1.62h3.58l.66,1.62Zm-1.36-3.33h-2.19l1.1-2.71Z"/><path class="cls-8" d="M463,22.66V29h-2V13.3h5.36a4.88,4.88,0,0,1,3.47,1.37,4.54,4.54,0,0,1,.23,6.42l-.23.23a4.85,4.85,0,0,1-3.47,1.34Zm0-7.42v5.49h3.38A2.74,2.74,0,0,0,469.17,18a2.72,2.72,0,0,0-.74-1.91l-.05-.05a2.62,2.62,0,0,0-2-.84Z"/><path class="cls-8" d="M475.9,17.92a5,5,0,0,1,3.54,1.2,4.24,4.24,0,0,1,1.29,3.28V29H478.8v-1.5h-.09a3.88,3.88,0,0,1-3.34,1.85,4.32,4.32,0,0,1-3-1.06,3.34,3.34,0,0,1-1.2-2.63A3.18,3.18,0,0,1,472.46,23a5.35,5.35,0,0,1,3.37-1,6.06,6.06,0,0,1,3,.66v-.46a2.29,2.29,0,0,0-.83-1.79,2.85,2.85,0,0,0-1.95-.73,3.08,3.08,0,0,0-2.68,1.42L471.56,20a4.94,4.94,0,0,1,4.34-2.11m-2.61,7.81a1.62,1.62,0,0,0,.67,1.32,2.48,2.48,0,0,0,1.57.53,3.22,3.22,0,0,0,2.27-.94,3,3,0,0,0,1-2.22,4.07,4.07,0,0,0-2.63-.75,3.44,3.44,0,0,0-2.06.59,1.77,1.77,0,0,0-.83,1.47Z"/><polygon class="cls-8" points="491.82 18.27 485.08 33.77 482.99 33.77 485.49 28.35 481.06 18.27 483.26 18.27 486.46 26 486.51 26 489.62 18.27 491.82 18.27"/><path class="cls-9" d="M454.83,21.29a11.32,11.32,0,0,0-.15-1.84h-8.52v3.48H451a4.21,4.21,0,0,1-1.8,2.75v2.25h2.91a8.81,8.81,0,0,0,2.68-6.64"/><path class="cls-10" d="M446.16,30.11a8.55,8.55,0,0,0,6-2.18l-2.91-2.25A5.49,5.49,0,0,1,441.66,24a5.36,5.36,0,0,1-.57-1.21h-3v2.33a9,9,0,0,0,8.07,5"/><path class="cls-11" d="M441.09,22.81a5.39,5.39,0,0,1,0-3.46V17h-3a9,9,0,0,0,0,8.11Z"/><path class="cls-12" d="M446.16,15.63A4.86,4.86,0,0,1,449.62,17l2.58-2.58a8.69,8.69,0,0,0-6-2.35,9,9,0,0,0-8.07,5l3,2.32a5.37,5.37,0,0,1,5.07-3.72"/><path d="M362.65,14.7a3,3,0,0,1-2.42,1.14,3.45,3.45,0,0,1,.86-2.51,3.62,3.62,0,0,1,2.4-1.24,3.6,3.6,0,0,1-.84,2.6m.83,1.33c-1.33-.08-2.48.76-3.11.76s-1.61-.72-2.67-.7a3.93,3.93,0,0,0-3.35,2c-1.45,2.48-.38,6.15,1,8.17.69,1,1.5,2.1,2.58,2.06s1.42-.67,2.65-.67,1.6.67,2.67.65,1.82-1,2.5-2a9.08,9.08,0,0,0,1.12-2.3,3.63,3.63,0,0,1-2.18-3.3,3.73,3.73,0,0,1,1.76-3.1,3.79,3.79,0,0,0-3-1.61m7.72-2.79v15h2.32V23.1h3.22a4.76,4.76,0,0,0,5-4.5v-.44a4.7,4.7,0,0,0-4.47-4.92h-.46Zm2.32,2h2.68c2,0,3.18,1.08,3.18,3s-1.16,3-3.18,3h-2.68ZM386,28.32a3.88,3.88,0,0,0,3.43-1.92h0v1.8h2.16V20.75c0-2.16-1.73-3.56-4.4-3.56-2.46,0-4.29,1.42-4.36,3.36H385a2,2,0,0,1,2.2-1.53c1.42,0,2.22.66,2.22,1.88v.83l-2.9.17c-2.7.16-4.16,1.27-4.16,3.19s1.5,3.24,3.66,3.24Zm.62-1.78c-1.24,0-2-.6-2-1.51s.76-1.49,2.21-1.57l2.59-.17v.85a2.53,2.53,0,0,1-2.63,2.42h-.14Zm7.88,5.73c2.26,0,3.33-.86,4.26-3.48l4.09-11.45h-2.37l-2.74,8.86h0L395,17.35h-2.43l3.94,10.9-.21.66a1.86,1.86,0,0,1-2,1.56c-.19,0-.54,0-.69,0v1.8a6.65,6.65,0,0,0,.89.06Z"/></svg>