<?xml version="1.0" encoding="utf-8"?>
<!-- Generator: Adobe Illustrator 22.0.0, SVG Export Plug-In . SVG Version: 6.00 Build 0)  -->
<svg version="1.1" id="Layer_1" xmlns="http://www.w3.org/2000/svg" xmlns:xlink="http://www.w3.org/1999/xlink" x="0px" y="0px"
	 viewBox="0 0 733.2 144.1" style="enable-background:new 0 0 733.2 144.1;" xml:space="preserve">
<style type="text/css">
	.st0{fill:#1F1D4A;}
	.st1{clip-path:url(#SVGID_2_);}
	.st2{clip-path:url(#SVGID_4_);}
	.st3{fill:#C7CA12;}
</style>
<g id="surface1">
	<path class="st0" d="M381.6,106.6c0,5.1,4.8,7.6,9.6,7.6c14.1,0,18.4-9.7,21.4-21.4h-6.6C396.8,92.8,381.6,94.3,381.6,106.6"/>
	<path class="st0" d="M572.5,66.8c-14.9,0-22.3,16.4-22.3,29.5c0,9.6,3.9,17,14.8,17c14.6,0,21.9-16.9,21.9-29.2
		C586.9,74.6,583.6,66.8,572.5,66.8"/>
	<g>
		<defs>
			<rect id="SVGID_1_" y="32" width="733.2" height="112.1"/>
		</defs>
		<clipPath id="SVGID_2_">
			<use xlink:href="#SVGID_1_"  style="overflow:visible;"/>
		</clipPath>
		<g class="st1">
			<path class="st0" d="M668.7,69.3c-4.9-1.8-10.1-3.4-15.5-3.4c-5.6,0-12.7,1.5-12.7,7.3c0,9.1,24.5,12.5,24.5,30.2
				c0,18.8-16.4,24.5-32.6,24.5c-7.6,0-15.2-1.1-22.1-4.4l4.1-15c5.3,3,10.7,5.6,18,5.6c6.3,0,12.9-2.1,12.9-8
				c0-11.7-24.5-12.8-24.5-30.9c0-17,16.4-23.1,31.3-23.1c6.9,0,13.9,1.3,20.5,3L668.7,69.3z M563.4,127.9
				c-20.5,0-32.9-12.6-32.9-33c0-24.2,18.6-42.7,42.9-42.7c19.5,0,33.2,11.8,33.2,31.8C606.6,109.4,589,127.9,563.4,127.9
				 M423.5,126.2h-15.9l2-11.1h-0.3c-6.5,8.2-12.9,12.8-23.3,12.8c-13.1,0-22.4-7.3-22.4-20.7c0-23.9,26.7-25.7,44.4-25.7h6.6
				c0.6-2,0.6-4.1,0.6-6.2c0-7.3-7.9-9.4-14.5-9.4c-8.3,0-16.3,2.1-23.8,5.6l2.7-15c8-2.8,16.2-4.4,24.6-4.4
				c14.5,0,28.1,5.3,28.1,22.3C432.4,84.2,425.2,112.6,423.5,126.2 M0,32.4v111.6h273.8l16.7-80.8c0.7-3.5,1.3-6.3,1.5-9.4h17.9
				l-2.1,9.6h0.3c5.5-7.7,12.2-11.2,21.8-11.2c18,0,26.6,12.2,26.6,29.4c0,22.6-12.5,46.4-37.7,46.4c-8.3,0-16.9-2.8-20-12.9h-0.3
				l-5.9,29.1h149.6l2.1-6.9c7.4,3.1,14.6,5.6,22.8,5.6c20,0,22.9-13.9,27.4-30.4h-0.3c-4.8,8.7-13.9,13.8-24.3,13.8
				c-17.6,0-25.2-14.8-25.2-30.6c0-21.7,13.2-43.4,36.7-43.4c9.6,0,17.6,4.6,22.1,12.2l2.1-10.5h18.1c-0.6,2-1.4,5.5-2.4,10.1
				l-11.5,54.4c-2,10.4-5.3,19.1-10.4,25.7h233.8V32.4"/>
		</g>
	</g>
	<path class="st0" d="M464.4,95.5c0,8.7,3.5,16.2,12,16.2c15,0,21.2-15.9,21.2-29.7c0-8.4-4.9-15.2-13.6-15.2
		C470.3,66.8,464.4,84.6,464.4,95.5"/>
	<path class="st0" d="M315.9,113.3c15.7,0,20.8-19.7,20.8-31.1c0-8.9-4.5-15.5-13.2-15.5c-12.8,0-20,16.9-20,29.5
		C303.6,105.6,306.8,113.3,315.9,113.3"/>
	<g>
		<defs>
			<rect id="SVGID_3_" y="0" width="733.2" height="128"/>
		</defs>
		<clipPath id="SVGID_4_">
			<use xlink:href="#SVGID_3_"  style="overflow:visible;"/>
		</clipPath>
		<g class="st2">
			<path class="st3" d="M225.8,113.3c-9.3,0-11.5-9.8-11.5-17.2c0-10.8,6.3-29.4,19.8-29.4c9.6,0,13.6,8.7,13.6,17.2
				C247.7,97.3,239.6,113.3,225.8,113.3 M733.2,0H0v32.4h260l-6.6,30c-5.9-6.7-13.1-10.3-22.4-10.3c-24.6,0-36.4,24-36.4,45.7
				c0,15.7,7.7,30.1,24.9,30.1c11,0,18-4.5,23.6-12.4h0.3l-1.8,10.7h17.6c0.4-3.7,1.5-9.8,2.7-16l17-77.8h454.4"/>
		</g>
	</g>
	<path class="st3" d="M110.7,52.2c-8.7,0-18,7.4-21.4,15.3H89l2.5-13.6h-18c-0.6,3.4-1.1,6.6-1.7,9.7l-12.9,62.7h18.8l6.7-32.5
		c2.4-11.7,8.9-23.6,22.2-23.6c2.4,0,5.1,0.4,7.2,1.1l3.9-18.4C115.6,52.3,113,52.2,110.7,52.2"/>
	<path class="st3" d="M167.6,82.9h-31.9c3.7-10,8.7-17,20.4-17c7.9,0,11.9,4.4,11.9,12.1C168,79.7,167.9,81.3,167.6,82.9
		 M156.4,52.2c-23.8,0-41.2,21.6-41.2,44.1c0,21.5,14.1,31.6,34.9,31.6c7.7,0,15.8-1.8,23.1-4.1l2.4-14.9c-7,3.2-14.5,5.2-22.2,5.2
		c-12.9,0-20.1-4.9-20.1-18.3h51c1.1-5.3,1.8-10.7,1.8-16.2C186,61.3,174.2,52.2,156.4,52.2"/>
</g>
</svg>
