<?xml version="1.0" encoding="utf-8"?>
<!-- Generator: Adobe Illustrator 22.0.0, SVG Export Plug-In . SVG Version: 6.00 Build 0)  -->
<svg version="1.1" id="Capa_1" xmlns="http://www.w3.org/2000/svg" xmlns:xlink="http://www.w3.org/1999/xlink" x="0px" y="0px"
	 viewBox="0 0 39.9 23" style="enable-background:new 0 0 39.9 23;" xml:space="preserve">
<style type="text/css">
	.st0{fill:none;stroke:#121111;stroke-miterlimit:10;}
	.st1{fill:none;stroke:#000000;stroke-linecap:round;stroke-linejoin:round;stroke-miterlimit:10;}
</style>
<g>
	<path class="st0" d="M-4.7,10.4c-0.2-0.8-0.9-1.3-1.6-1.7c-1.8-1-3.2-2.5-5-3.4c-0.7-0.4-1.1-1.5-2.2-0.7c-0.2,0.2-0.5,0.1-0.6-0.2
		c-0.5-1.3-1.7-2-2.5-3c-0.7-0.8-1.5-1.4-2.4-0.1c-0.2,0.4-0.5,0.1-0.8,0c-1.2-0.7-1.6,0.2-1.9,1.1C-22.3,4.2-22.4,6.2-23,8
		c-0.4,1.2-0.5,2.5-0.2,3.8c0.2,1,0.1,1.8-0.6,2.7c-0.8,1-0.9,3.1-0.2,3.9c1.1,1.2,2,2.7,4.1,2.2c0.8-0.2,1.4,0.4,2.1,0.8
		c1.3,0.8,2.7,1.3,4.4,0.8c0.5-0.1,1.6,0.1,2.5,0.3c0.7,0.2,1.5,0,2.1-0.4c0.6-0.4,1.3-0.6,1.9-0.8c2.2-1.1,3.1-2.6,2.8-5
		c-0.1-0.4,0-0.9,0-1.4c0-1.1,1.6-1.6,1.4-2.3C-2.9,11.7-4.4,11.6-4.7,10.4z"/>
</g>
<polyline class="st1" points="6.2,13.3 27.8,13.3 27.8,1.4 13.3,1.4 "/>
<line class="st1" x1="16.4" y1="4.1" x2="6.9" y2="4.1"/>
<line class="st1" x1="3" y1="10.3" x2="11.5" y2="10.3"/>
<line class="st1" x1="1.3" y1="7.4" x2="13.3" y2="7.4"/>
<polyline class="st1" points="32.3,4.2 32.3,11.4 38.3,11.4 "/>
<circle class="st1" cx="11.9" cy="18.4" r="2.8"/>
<circle class="st1" cx="33.4" cy="18.4" r="2.8"/>
<path class="st1" d="M37.1,18.4h1.4v-7.6c0-3.7-3-6.7-6.7-6.7h-3.9"/>
<line class="st1" x1="15.2" y1="18.4" x2="30" y2="18.4"/>
<line class="st1" x1="6.9" y1="18.4" x2="8.1" y2="18.4"/>
<path class="st1" d="M48.7,4.9c0.1-0.6,9.3-4.4,9.9-4.4c0.7,0,10,3.6,10.2,4.3c1.1,8.7-6.2,17.7-10,17.7S47.8,13.7,48.7,4.9z"/>
<polyline class="st1" points="65.1,7.5 57,15.3 53.3,11.7 "/>
</svg>
