<svg id="Layer_1" data-name="Layer 1" xmlns="http://www.w3.org/2000/svg" viewBox="0 0 100 60"><defs><style>.cls-1{fill:#15195a;}</style></defs><title>payment_methods</title><path class="cls-1" d="M50,24.35c0,4.09,3.58,6.37,6.41,7.71s3.8,2.28,3.8,3.58c0,1.85-2.28,2.71-4.43,2.71a15.26,15.26,0,0,1-7.52-1.79l-1.33,6.22a22.1,22.1,0,0,0,8.16,1.5c7.7,0,12.74-3.8,12.75-9.69,0-7.49-10.34-7.89-10.26-11.24,0-1,1-2.1,3.1-2.36a13.7,13.7,0,0,1,7.16,1.25l1.29-6A19.57,19.57,0,0,0,62.26,15c-7.17,0-12.35,3.86-12.38,9.37M81.51,15.5a3.34,3.34,0,0,0-3.14,2.08L67.49,43.83h7.69L76.7,39.6h9.41l.9,4.23H93.8L87.89,15.5H81.61m1.08,7.65L84.91,33.8H78.84l3.81-10.65m-42-7.65L34.59,43.83h7.33L48,15.5H40.67m-10.84,0L22.19,34.77l-3.1-16.4a3.38,3.38,0,0,0-3.37-2.89H3.18L3,16.31a30.71,30.71,0,0,1,7.17,2.4A3.07,3.07,0,0,1,12,21.2l5.86,22.62h7.74L37.44,15.48h-7.7"/></svg>