<?xml version="1.0" encoding="utf-8"?>
<!-- Generator: Adobe Illustrator 22.0.0, SVG Export Plug-In . SVG Version: 6.00 Build 0)  -->
<svg version="1.1" id="Layer_1" xmlns="http://www.w3.org/2000/svg" xmlns:xlink="http://www.w3.org/1999/xlink" x="0px" y="0px"
	 viewBox="0 0 100 100" style="enable-background:new 0 0 100 100;" xml:space="preserve">
<style type="text/css">
	.st0{fill:#5f9061;}
</style>
<title>Untitled-1</title>
<path class="st0" d="M51,2.2c-0.5,0-1,0-1.4,0C22.8,2.2,1,24,1,50.8C1.1,58.5,3,66,6.5,72.9L1,99.4l26.7-5.5
	c6.8,3.5,14.3,5.4,22,5.5c26.9,0.4,48.9-21.1,49.3-48C99.4,24.6,77.9,2.6,51,2.2z M72.8,67.8c-1,2.6-5.7,5.3-7.8,5.5
	c-2.2,0.2-4.1,0.9-13.9-2.9c-11.9-4.6-19.3-16.9-19.9-17.6c-0.6-0.7-4.7-6.3-4.7-12c-0.1-3.7,1.4-7.2,4-9.7c0.8-0.9,2-1.4,3.1-1.4
	c0.8,0,1.3,0,2.2,0s1.8,0,2.6,2c1.1,2.3,3.3,8,3.6,8.6c0.4,0.7,0.4,1.4,0.1,2.1s-0.7,1.4-1.2,2c-0.6,0.7-1.2,1.5-1.8,2.1
	s-1.2,1.2-0.5,2.4c1.8,2.9,3.9,5.7,6.5,8c2.7,2.5,5.9,4.4,9.3,5.8c1.2,0.6,1.9,0.5,2.6-0.3c0.7-0.8,2.8-3.3,3.6-4.5s1.6-0.9,2.6-0.6
	c1.1,0.3,6.8,3.1,7.9,3.7c1.2,0.6,2,0.9,2.3,1.4C73.8,62.8,73.8,65.1,72.8,67.8z"/>
</svg>
